<svg width="152" height="50" viewBox="0 0 152 50" fill="none" xmlns="http://www.w3.org/2000/svg">
<g clip-path="url(#clip0)">
<path d="M18.5063 32.3957C18.7954 32.3957 19.0297 32.1613 19.0297 31.8723C19.0297 31.5832 18.7954 31.3489 18.5063 31.3489C18.2172 31.3489 17.9829 31.5832 17.9829 31.8723C17.9829 32.1613 18.2172 32.3957 18.5063 32.3957Z" fill="white"/>
<path d="M17.1626 30.0677C17.1335 30.1763 17.0726 30.2737 16.9879 30.3476C16.9031 30.4215 16.7983 30.4685 16.6868 30.4826C16.5753 30.4967 16.462 30.4773 16.3616 30.4269C16.2611 30.3764 16.1779 30.2972 16.1226 30.1993C16.0673 30.1014 16.0423 29.9893 16.051 29.8772C16.0596 29.7651 16.1014 29.6581 16.1711 29.5699C16.2407 29.4816 16.3351 29.4161 16.4421 29.3816C16.5491 29.3472 16.664 29.3453 16.772 29.3764C16.9081 29.4272 17.0219 29.5244 17.0933 29.6509C17.1648 29.7773 17.1893 29.925 17.1626 30.0677Z" fill="white"/>
<path d="M15.721 27.8374C15.6273 27.9601 15.4968 28.0498 15.3486 28.0933C15.2004 28.1368 15.0421 28.132 14.8969 28.0795C14.7743 27.9847 14.6848 27.8536 14.6413 27.7048C14.5978 27.5561 14.6025 27.3974 14.6547 27.2515C14.7492 27.1286 14.8806 27.0392 15.0296 26.9963C15.1786 26.9535 15.3374 26.9594 15.4827 27.0132C15.6058 27.1067 15.6954 27.2374 15.7383 27.3858C15.7813 27.5343 15.7752 27.6926 15.721 27.8374Z" fill="white"/>
<path d="M14.815 25.2791C14.7272 25.3739 14.6132 25.4405 14.4874 25.4704C14.3617 25.5004 14.2299 25.4923 14.1088 25.4472C13.9876 25.402 13.8826 25.322 13.8071 25.2171C13.7316 25.1122 13.6889 24.9872 13.6845 24.8581C13.6801 24.7289 13.7142 24.6013 13.7824 24.4915C13.8506 24.3818 13.9499 24.2947 14.0677 24.2415C14.1855 24.1883 14.3164 24.1712 14.4439 24.1925C14.5714 24.2138 14.6897 24.2725 14.7838 24.3612C14.8757 24.4954 14.9275 24.653 14.933 24.8156C14.9385 24.9781 14.8976 25.1389 14.815 25.2791Z" fill="white"/>
<path d="M14.5222 22.6894C14.3668 22.7889 14.1783 22.8225 13.9981 22.783C13.8179 22.7434 13.6608 22.6339 13.5614 22.4785C13.4619 22.3231 13.4283 22.1346 13.4678 21.9544C13.5074 21.7742 13.6169 21.6171 13.7723 21.5177C13.9277 21.4182 14.1162 21.3846 14.2964 21.4241C14.4766 21.4637 14.6337 21.5732 14.7332 21.7286C14.8326 21.884 14.8663 22.0725 14.8267 22.2527C14.7871 22.4329 14.6776 22.59 14.5222 22.6894Z" fill="white"/>
<path d="M14.8115 20.1623C14.6006 20.256 13.9678 19.9201 13.8741 19.7092C13.8728 19.5293 13.9131 19.3515 13.9916 19.1896C14.0702 19.0277 14.185 18.8861 14.3271 18.7757C14.542 18.682 15.1708 19.014 15.2646 19.2249C15.3583 19.4358 15.0224 20.0686 14.8115 20.1623Z" fill="white"/>
<path d="M15.6352 17.7875C15.4165 17.8305 14.8228 17.311 14.7798 17.0962C14.7369 16.8813 15.2603 16.2837 15.4751 16.2408C15.6899 16.1978 16.2875 16.7212 16.3266 16.936C16.3656 17.1509 15.85 17.7485 15.6352 17.7875Z" fill="white"/>
<path d="M16.9478 15.6509C16.7407 15.6509 16.233 14.9401 16.2408 14.7331C16.2486 14.526 16.9478 14.0183 17.1587 14.0261C17.3696 14.0339 17.8735 14.7331 17.8657 14.944C17.8579 15.1549 17.1587 15.6588 16.9478 15.6509Z" fill="white"/>
<path d="M18.7094 13.8425C18.518 13.7957 18.1587 12.9207 18.2095 12.7332C18.2602 12.5458 19.1312 12.1786 19.3226 12.2294C19.514 12.2802 19.8734 13.1512 19.8226 13.3426C19.7718 13.534 18.9008 13.8855 18.7094 13.8425Z" fill="white"/>
<path d="M20.8809 12.4287C20.7169 12.3427 20.5567 11.3311 20.6426 11.1671C20.7286 11.003 21.7402 10.8468 21.9043 10.9327C22.0683 11.0186 22.2245 12.0264 22.1386 12.1904C22.0527 12.3545 21.041 12.5146 20.8809 12.4287Z" fill="white"/>
<path d="M23.4235 11.499C23.2907 11.3858 23.3844 10.2921 23.4977 10.1593C23.6109 10.0265 24.7046 10.1202 24.8374 10.2335C24.9702 10.3468 24.8764 11.4443 24.7632 11.5732C24.6499 11.7021 23.5524 11.6279 23.4235 11.499Z" fill="white"/>
<path d="M26.3101 11.1982C26.2163 11.0693 26.5835 9.95222 26.7007 9.85457C26.8178 9.75692 27.9505 10.128 28.0443 10.2452C28.138 10.3623 27.7709 11.4911 27.6537 11.5888C27.5365 11.6864 26.4038 11.331 26.3101 11.1982Z" fill="white"/>
<path d="M28.9196 11.4991C28.8688 11.3585 29.5797 10.3273 29.7008 10.2765C29.8218 10.2258 30.8725 10.9327 30.9233 11.0577C30.9741 11.1827 30.2632 12.2295 30.1226 12.2803C29.982 12.331 28.9704 11.628 28.9196 11.4991Z" fill="white"/>
<path d="M31.4814 12.5457C31.4814 12.4051 32.4384 11.5029 32.5751 11.4872C32.7118 11.4716 33.618 12.4442 33.6336 12.5809C33.6492 12.7176 32.6766 13.6238 32.5399 13.6394C32.4032 13.655 31.4971 12.6707 31.4814 12.5457Z" fill="white"/>
<path d="M33.6221 13.9675C34.0398 13.6406 34.51 13.387 35.0125 13.2175C35.1414 13.2175 35.7937 14.483 35.7664 14.608C35.7391 14.733 34.5009 15.3892 34.372 15.3619C34.0442 14.9433 33.7905 14.4717 33.6221 13.9675Z" fill="white"/>
<path d="M35.4736 16.2096C35.9824 16.0007 36.5195 15.8691 37.0672 15.819C37.2742 16.3284 37.4058 16.8652 37.4578 17.4126C36.9483 17.6191 36.4115 17.7506 35.8642 17.8032C35.6563 17.2941 35.5247 16.7571 35.4736 16.2096Z" fill="white"/>
<path d="M36.7 18.6702C37.2643 18.5894 37.8369 18.5828 38.4029 18.6507C38.4832 19.2163 38.4911 19.7899 38.4264 20.3575C37.8596 20.428 37.2863 20.428 36.7195 20.3575C36.6403 19.7983 36.6338 19.2311 36.7 18.6702Z" fill="white"/>
<path d="M37.3134 21.1935C37.9 21.2613 38.4775 21.3923 39.036 21.5841C38.9705 22.171 38.8395 22.7488 38.6454 23.3066C38.0585 23.2407 37.4807 23.1097 36.9229 22.916C36.9907 22.3294 37.1216 21.7519 37.3134 21.1935Z" fill="white"/>
<path d="M37.3442 23.7089C37.9152 23.9247 38.4645 24.1941 38.9847 24.5135C38.7705 25.0852 38.501 25.6346 38.1801 26.154C37.609 25.9382 37.0597 25.6688 36.5396 25.3493C36.7569 24.779 37.0263 24.2299 37.3442 23.7089Z" fill="white"/>
<path d="M36.8329 26.1305C37.3492 26.4846 37.8388 26.8763 38.2976 27.3023C37.9445 27.8193 37.5528 28.3089 37.1258 28.767C36.6078 28.4151 36.1181 28.0233 35.6611 27.5952C36.012 27.0764 36.4038 26.5866 36.8329 26.1305Z" fill="white"/>
<path d="M35.8094 28.3765C36.2412 28.8619 36.6429 29.3732 37.0124 29.9076C36.5257 30.3394 36.0131 30.7412 35.4774 31.1106C35.0447 30.6246 34.6429 30.1119 34.2744 29.5756C34.7605 29.1441 35.2731 28.7436 35.8094 28.3765Z" fill="white"/>
<path d="M34.3211 30.3528C34.3641 30.3528 35.1804 32.13 35.1726 32.173C35.1648 32.216 33.3993 33.0362 33.3524 33.0284C33.038 32.4365 32.7538 31.829 32.501 31.2082C32.5088 31.1614 34.2743 30.345 34.3211 30.3528Z" fill="white"/>
<path d="M32.3995 31.9854C32.4308 31.9854 32.837 33.9774 32.8252 34.0126C32.8135 34.0477 30.8293 34.4501 30.7981 34.4344C30.7668 34.4188 30.3606 32.4385 30.3723 32.4073C30.384 32.376 32.3683 31.9698 32.3995 31.9854Z" fill="white"/>
<path d="M30.1499 33.2002L30.0054 35.325C30.0054 35.325 27.8962 35.1922 27.8806 35.1766C27.865 35.1609 28.0095 33.0674 28.0251 33.0478C28.0407 33.0283 30.1304 33.1845 30.1499 33.2002Z" fill="white"/>
<path d="M27.5989 33.6689C27.5989 33.6689 26.849 35.7195 26.8412 35.7234C26.8334 35.7273 24.7906 34.9735 24.7828 34.9657C24.775 34.9579 25.5327 32.9151 25.5444 32.9073C25.5561 32.8995 27.595 33.6572 27.5989 33.6689Z" fill="white"/>
<path d="M22.9639 32.4467L21.9731 34.4709L23.9974 35.4617L24.9882 33.4375L22.9639 32.4467Z" fill="white"/>
<path d="M18.1469 37.567C18.5438 37.567 18.8656 37.2452 18.8656 36.8483C18.8656 36.4514 18.5438 36.1296 18.1469 36.1296C17.75 36.1296 17.4282 36.4514 17.4282 36.8483C17.4282 37.2452 17.75 37.567 18.1469 37.567Z" fill="white"/>
<path d="M16.3343 35.1336C16.3289 35.2821 16.2797 35.4257 16.193 35.5463C16.1063 35.6669 15.9858 35.7592 15.8467 35.8116C15.7077 35.8639 15.5563 35.8741 15.4116 35.8407C15.2668 35.8073 15.1351 35.7319 15.0331 35.6239C14.9311 35.5159 14.8632 35.3802 14.838 35.2338C14.8129 35.0873 14.8315 34.9368 14.8917 34.8009C14.9518 34.6651 15.0508 34.55 15.1761 34.4702C15.3015 34.3904 15.4476 34.3495 15.5961 34.3524C15.7957 34.3634 15.9836 34.4506 16.1209 34.5959C16.2582 34.7412 16.3346 34.9337 16.3343 35.1336Z" fill="white"/>
<path d="M14.1197 33.0713C14.0843 33.2213 14.0054 33.3575 13.8929 33.4628C13.7803 33.5681 13.6391 33.6377 13.487 33.6629C13.3349 33.6881 13.1789 33.6678 13.0383 33.6045C12.8978 33.5411 12.7791 33.4376 12.6973 33.307C12.6155 33.1764 12.5741 33.0245 12.5784 32.8704C12.5827 32.7164 12.6325 32.567 12.7215 32.4412C12.8105 32.3153 12.9348 32.2186 13.0786 32.1632C13.2225 32.1079 13.3795 32.0963 13.5299 32.1299C13.7211 32.1956 13.8841 32.3249 13.9914 32.4962C14.0988 32.6675 14.144 32.8705 14.1197 33.0713Z" fill="white"/>
<path d="M12.2961 30.5481C12.227 30.695 12.1159 30.8182 11.9768 30.9019C11.8377 30.9857 11.6769 31.0263 11.5147 31.0186C11.3525 31.0109 11.1963 30.9552 11.0657 30.8586C10.9352 30.762 10.8363 30.6289 10.7815 30.476C10.7267 30.3232 10.7185 30.1575 10.758 30C10.7974 29.8425 10.8827 29.7002 11.0031 29.5912C11.1234 29.4823 11.2735 29.4115 11.4341 29.3878C11.5947 29.3641 11.7588 29.3887 11.9055 29.4583C12.0778 29.575 12.2085 29.7435 12.2787 29.9394C12.349 30.1353 12.355 30.3485 12.2961 30.5481Z" fill="white"/>
<path d="M11.0108 27.7593C10.91 27.8953 10.7711 27.9983 10.6117 28.0553C10.4523 28.1122 10.2795 28.1207 10.1154 28.0794C9.95118 28.0382 9.80291 27.9492 9.68935 27.8237C9.57578 27.6981 9.50199 27.5417 9.47736 27.3743C9.45273 27.2068 9.47836 27.0358 9.55098 26.8828C9.6236 26.7299 9.73995 26.602 9.88531 26.5153C10.0307 26.4285 10.1985 26.3868 10.3676 26.3955C10.5366 26.4042 10.6993 26.4629 10.835 26.5641C10.9785 26.724 11.0716 26.9227 11.1029 27.1352C11.1342 27.3478 11.1021 27.5648 11.0108 27.7593Z" fill="white"/>
<path d="M10.3036 24.8729C10.0692 25.1072 9.28017 25.033 9.04582 24.7986C8.81146 24.5643 8.8857 23.7792 9.12005 23.5448C9.35441 23.3105 10.1395 23.3847 10.3738 23.6191C10.6082 23.8534 10.534 24.6385 10.3036 24.8729Z" fill="white"/>
<path d="M10.1473 21.959C9.8856 22.1387 9.06145 21.8926 8.88178 21.6309C8.70211 21.3692 8.94817 20.549 9.20986 20.3693C9.47156 20.1896 10.2957 20.4318 10.4754 20.6935C10.655 20.9552 10.409 21.7793 10.1473 21.959Z" fill="white"/>
<path d="M10.5226 19.092C10.2453 19.2131 9.42898 18.7874 9.304 18.5062C9.17901 18.2249 9.60866 17.4086 9.88988 17.2875C10.1711 17.1664 10.9874 17.5922 11.1085 17.8734C11.2296 18.1546 10.8039 18.9671 10.5226 19.092Z" fill="white"/>
<path d="M11.4131 16.3462C11.1279 16.4126 10.3546 15.7955 10.2882 15.5103C10.2218 15.2252 10.8389 14.4518 11.124 14.3854C11.4092 14.319 12.1825 14.9401 12.2489 15.2213C12.3153 15.5025 11.6943 16.2798 11.4131 16.3462Z" fill="white"/>
<path d="M12.7921 13.7996C12.5148 13.7996 11.8274 13.0184 11.8117 12.7255C11.7961 12.4326 12.5929 11.7607 12.8859 11.749C13.1788 11.7373 13.8506 12.5302 13.8624 12.8232C13.8741 13.1161 13.0695 13.784 12.7921 13.7996Z" fill="white"/>
<path d="M14.6355 11.5185C14.3738 11.4834 13.8231 10.4952 13.8543 10.2335C13.8856 9.97177 14.8776 9.42494 15.1393 9.45228C15.401 9.47962 15.9517 10.4756 15.9205 10.7373C15.8892 10.999 14.8972 11.5576 14.6355 11.5185Z" fill="white"/>
<path d="M16.9321 9.58514C16.6978 9.49921 16.3306 8.36259 16.4126 8.12433C16.4946 7.88607 17.6351 7.52282 17.8734 7.60484C18.1117 7.68686 18.4749 8.82739 18.3929 9.06565C18.3109 9.30391 17.1704 9.66716 16.9321 9.58514Z" fill="white"/>
<path d="M19.6703 8.0695C19.4633 7.94842 19.3227 6.69072 19.4437 6.50714C19.5648 6.32356 20.8225 6.15951 21.0061 6.2806C21.1897 6.40168 21.3498 7.65938 21.2327 7.84296C21.1155 8.02653 19.8734 8.19058 19.6703 8.0695Z" fill="white"/>
<path d="M22.8301 7.05802C22.6622 6.9096 22.7755 5.58159 22.9239 5.41364C23.0723 5.24568 24.4003 5.35895 24.5683 5.50738C24.7362 5.6558 24.6229 6.98381 24.4745 7.15176C24.3261 7.31972 22.9981 7.20254 22.8301 7.05802Z" fill="white"/>
<path d="M25.9511 6.6361C25.83 6.46424 26.2674 5.13233 26.4432 5.01124C26.619 4.89016 27.9431 5.32762 28.0642 5.49948C28.1852 5.67134 27.7478 7.00326 27.5759 7.12434C27.4041 7.24542 26.076 6.81187 25.9511 6.6361Z" fill="white"/>
<path d="M29.0132 6.97981C28.9312 6.80014 29.6655 5.52681 29.8452 5.44869C30.0248 5.37058 31.2982 6.10098 31.3802 6.28456C31.4622 6.46814 30.724 7.73365 30.5443 7.81567C30.3647 7.8977 29.0913 7.16339 29.0132 6.97981Z" fill="white"/>
<path d="M32.0714 7.92505C32.0245 7.74538 33.0244 6.58142 33.2041 6.53455C33.3838 6.48768 34.5517 7.49149 34.5946 7.67117C34.6376 7.85084 33.6416 9.0187 33.458 9.06167C33.2744 9.10463 32.1144 8.10472 32.0714 7.92505Z" fill="white"/>
<path d="M34.6377 9.24917C34.6377 9.07731 35.9501 8.15161 36.122 8.15161C36.2938 8.15161 37.2195 9.46399 37.2156 9.63585C37.2117 9.80771 35.9071 10.7334 35.7353 10.7295C35.5634 10.7256 34.6377 9.42103 34.6377 9.24917Z" fill="white"/>
<path d="M37.1997 11.5303C37.231 11.374 38.7621 10.6866 38.9105 10.7178C39.059 10.7491 39.7503 12.2802 39.719 12.4286C39.6878 12.577 38.1567 13.2723 38.0122 13.241C37.8676 13.2098 37.1685 11.6865 37.1997 11.5303Z" fill="white"/>
<path d="M39.1526 14.0574C39.2112 13.9246 40.9025 13.5301 41.0392 13.5848C41.1759 13.6394 41.5664 15.3346 41.5079 15.4713C41.4493 15.608 39.758 15.9986 39.6252 15.94C39.4924 15.8814 39.0979 14.1902 39.1526 14.0574Z" fill="white"/>
<path d="M40.5276 16.7641C40.6018 16.6547 42.4063 16.6 42.5157 16.6742C42.6251 16.7484 42.6797 18.553 42.6094 18.6623C42.5391 18.7717 40.7307 18.8264 40.6174 18.7561C40.5042 18.6858 40.4534 16.8773 40.5276 16.7641Z" fill="white"/>
<path d="M41.3325 19.592C42.0153 19.61 42.6934 19.711 43.3519 19.8928C43.331 20.5756 43.2287 21.2535 43.0472 21.9121C42.3644 21.8942 41.6863 21.7932 41.0278 21.6114C41.0488 20.9286 41.151 20.2507 41.3325 19.592Z" fill="white"/>
<path d="M41.5976 22.4629C42.271 22.6278 42.9255 22.8622 43.5506 23.162C43.3888 23.8359 43.1557 24.4905 42.8553 25.115C42.1815 24.9532 41.5268 24.7201 40.9023 24.4197C41.0648 23.7449 41.2978 23.089 41.5976 22.4629Z" fill="white"/>
<path d="M41.3324 25.3103C41.9796 25.6129 42.598 25.9738 43.1799 26.3883C42.876 27.0349 42.5153 27.6532 42.1019 28.2358C41.4537 27.935 40.8352 27.574 40.2544 27.1578C40.557 26.5106 40.9179 25.8922 41.3324 25.3103Z" fill="white"/>
<path d="M40.5512 28.0562C41.1369 28.4921 41.6892 28.9712 42.2034 29.4896C41.7682 30.0771 41.2877 30.6296 40.766 31.1418C40.1801 30.7061 39.6278 30.2269 39.1138 29.7083C39.551 29.1226 40.0315 28.5703 40.5512 28.0562Z" fill="white"/>
<path d="M39.2894 30.6379C39.7862 31.1946 40.248 31.7817 40.6721 32.3956C40.1164 32.8936 39.5293 33.3555 38.9144 33.7783C38.4163 33.2216 37.9532 32.6346 37.5278 32.0206C38.0866 31.5247 38.6749 31.063 39.2894 30.6379Z" fill="white"/>
<path d="M37.5516 32.9463C37.6024 32.9463 38.6023 34.9305 38.5945 34.9813C38.5867 35.0321 36.6142 36.032 36.5595 36.0281C36.5049 36.0242 35.5088 34.0439 35.5166 33.9892C35.5245 33.9345 37.4969 32.9385 37.5516 32.9463Z" fill="white"/>
<path d="M35.3564 34.9344C35.3916 34.9344 36.0087 37.1452 35.997 37.1803C35.9853 37.2155 33.7862 37.8365 33.7472 37.8209C33.7081 37.8053 33.0949 35.6102 33.1066 35.575C33.1183 35.5399 35.3174 34.9344 35.3564 34.9344Z" fill="white"/>
<path d="M32.8914 36.4968C32.8914 36.4968 32.8914 38.8638 32.8914 38.8833C32.8914 38.9029 30.5479 38.8833 30.5049 38.8833C30.462 38.8833 30.5049 36.5164 30.5049 36.4968C30.5049 36.4773 32.868 36.4968 32.8914 36.4968Z" fill="white"/>
<path d="M29.888 37.278C29.888 37.278 29.431 39.6606 29.4232 39.6684C29.4154 39.6762 27.0406 39.2114 27.0328 39.2036C27.025 39.1958 27.4898 36.821 27.4976 36.8132C27.5054 36.8054 29.8802 37.278 29.888 37.278Z" fill="white"/>
<path d="M24.5206 36.8618L23.8643 39.2577L26.2601 39.914L26.9165 37.5181L24.5206 36.8618Z" fill="white"/>
<path d="M18.9633 43.2462C19.4745 43.2462 19.889 42.8317 19.889 42.3205C19.889 41.8092 19.4745 41.3948 18.9633 41.3948C18.452 41.3948 18.0376 41.8092 18.0376 42.3205C18.0376 42.8317 18.452 43.2462 18.9633 43.2462Z" fill="white"/>
<path d="M16.772 40.7933C16.8029 40.9787 16.7783 41.1691 16.7013 41.3405C16.6243 41.512 16.4983 41.6568 16.3392 41.7568C16.1801 41.8569 15.9949 41.9076 15.807 41.9027C15.6191 41.8978 15.4369 41.8374 15.2832 41.7292C15.1296 41.621 15.0113 41.4697 14.9434 41.2945C14.8754 41.1192 14.8608 40.9278 14.9014 40.7443C14.9419 40.5608 15.0358 40.3933 15.1713 40.2631C15.3068 40.1328 15.4778 40.0455 15.6628 40.0121C15.9121 39.978 16.1651 40.0397 16.3709 40.1846C16.5767 40.3295 16.72 40.547 16.772 40.7933Z" fill="white"/>
<path d="M13.9168 39.063C13.9176 39.2577 13.8606 39.4482 13.7531 39.6105C13.6456 39.7728 13.4923 39.8996 13.3128 39.9748C13.1332 40.05 12.9354 40.0703 12.7443 40.0331C12.5533 39.9958 12.3775 39.9028 12.2393 39.7657C12.1011 39.6286 12.0067 39.4536 11.9679 39.2628C11.9292 39.072 11.9479 38.874 12.0217 38.6939C12.0954 38.5137 12.221 38.3595 12.3825 38.2507C12.5439 38.1419 12.734 38.0834 12.9286 38.0826C13.1832 38.1014 13.4227 38.2104 13.6039 38.3902C13.7851 38.57 13.8961 38.8086 13.9168 39.063Z" fill="white"/>
<path d="M11.3311 36.8483C11.2964 37.0454 11.204 37.2277 11.0656 37.3723C10.9273 37.5168 10.7492 37.6171 10.5538 37.6604C10.3584 37.7037 10.1546 37.6881 9.96815 37.6156C9.78166 37.543 9.62084 37.4168 9.50609 37.2529C9.39134 37.089 9.3278 36.8947 9.32348 36.6946C9.31915 36.4946 9.37426 36.2977 9.48182 36.129C9.58938 35.9603 9.74454 35.8272 9.92772 35.7467C10.1109 35.6661 10.3138 35.6417 10.5109 35.6766C10.7578 35.7539 10.9722 35.9108 11.1206 36.1228C11.2689 36.3348 11.343 36.5899 11.3311 36.8483Z" fill="white"/>
<path d="M9.1126 34.1845C9.04139 34.3771 8.91469 34.5443 8.74852 34.665C8.58234 34.7856 8.38414 34.8543 8.17894 34.8624C7.97374 34.8705 7.77077 34.8176 7.59563 34.7104C7.42048 34.6031 7.28101 34.4464 7.19488 34.26C7.10876 34.0736 7.07984 33.8658 7.11173 33.6629C7.14362 33.4601 7.2349 33.2712 7.37406 33.1202C7.51323 32.9692 7.69403 32.8628 7.89363 32.8145C8.09322 32.7661 8.30266 32.778 8.49548 32.8487C8.72684 32.977 8.91134 33.1756 9.02229 33.4158C9.13325 33.6559 9.16487 33.9252 9.1126 34.1845Z" fill="white"/>
<path d="M7.41727 31.2902C7.21807 31.6808 6.34705 31.8761 5.95646 31.6808C5.56587 31.4855 5.37058 30.6067 5.56587 30.22C5.76117 29.8333 6.63999 29.6302 7.02668 29.8294C7.41336 30.0286 7.62038 30.8996 7.41727 31.2902Z" fill="white"/>
<path d="M6.24539 28.2279C5.99151 28.5677 5.03846 28.6185 4.68303 28.3646C4.32759 28.1107 4.2924 27.1577 4.55019 26.8023C4.80798 26.4468 5.75712 26.4117 6.11255 26.6656C6.46799 26.9194 6.49927 27.9037 6.24539 28.2279Z" fill="white"/>
<path d="M5.58928 25.0643C5.29243 25.3494 4.28473 25.2322 3.99959 24.9354C3.71446 24.6385 3.83553 23.6347 4.12847 23.3496C4.42142 23.0644 5.43307 23.1855 5.71429 23.4785C5.99552 23.7714 5.88222 24.7791 5.58928 25.0643Z" fill="white"/>
<path d="M5.43679 21.8614C5.1126 22.0879 4.07756 21.7872 3.85102 21.4708C3.62448 21.1544 3.92914 20.1115 4.24161 19.9084C4.55408 19.7053 5.60084 19.9827 5.82738 20.299C6.05393 20.6154 5.76098 21.6544 5.43679 21.8614Z" fill="white"/>
<path d="M5.78847 18.6819C5.44475 18.8499 4.41752 18.3577 4.24956 18.014C4.08161 17.6703 4.57765 16.643 4.92137 16.479C5.26509 16.3149 6.28841 16.8071 6.45636 17.1469C6.62432 17.4867 6.12828 18.5296 5.78847 18.6819Z" fill="white"/>
<path d="M6.62845 15.5884C6.28082 15.6939 5.29651 15.0065 5.19105 14.6549C5.08559 14.3034 5.77304 13.323 6.12457 13.2175C6.4761 13.1121 7.45651 13.7995 7.56587 14.1511C7.67524 14.5026 6.97998 15.483 6.62845 15.5884Z" fill="white"/>
<path d="M7.95629 12.6473C7.61257 12.6942 6.71028 11.8036 6.66341 11.456C6.61654 11.1084 7.50318 10.21 7.83518 10.1632C8.16718 10.1163 9.0851 11.0029 9.13197 11.3349C9.17884 11.6669 8.30391 12.6004 7.95629 12.6473Z" fill="white"/>
<path d="M9.76471 9.91324C9.4327 9.91324 8.65541 8.8274 8.66712 8.49149C8.67884 8.15558 9.75297 7.37831 10.0889 7.39002C10.4248 7.40174 11.1981 8.47586 11.1903 8.81177C11.1825 9.14768 10.085 9.93667 9.76471 9.91324Z" fill="white"/>
<path d="M12.0381 7.45642C11.7217 7.39002 11.1124 6.14404 11.1749 5.82766C11.2374 5.51128 12.4872 4.90586 12.8036 4.96836C13.12 5.03085 13.7254 6.28074 13.6629 6.59321C13.6004 6.90569 12.3662 7.51891 12.0381 7.45642Z" fill="white"/>
<path d="M14.8152 5.33554C14.5262 5.22617 14.1239 3.83177 14.2332 3.54663C14.3426 3.2615 15.737 2.85529 16.0221 2.96466C16.3072 3.07402 16.7135 4.46843 16.6041 4.75356C16.4947 5.03869 15.1003 5.44491 14.8152 5.33554Z" fill="white"/>
<path d="M18.0531 3.62468C17.8032 3.47626 17.6313 1.97248 17.7797 1.7186C17.9281 1.46472 19.428 1.29676 19.6819 1.44519C19.9357 1.59361 20.1037 3.09348 19.9553 3.34736C19.8069 3.60125 18.307 3.7692 18.0531 3.62468Z" fill="white"/>
<path d="M21.5451 2.42162C21.3381 2.23804 21.4474 0.667866 21.6271 0.468665C21.8068 0.269464 23.3809 0.371017 23.5801 0.550689C23.7793 0.73036 23.6777 2.30444 23.498 2.50364C23.3183 2.70284 21.756 2.60129 21.5451 2.42162Z" fill="white"/>
<path d="M24.7555 1.98038C24.5953 1.77337 25.0367 0.195385 25.2437 0.0274306C25.4507 -0.140523 27.0287 0.308656 27.1967 0.515669C27.3646 0.722682 26.9154 2.30067 26.7084 2.46862C26.5014 2.63658 24.9273 2.1874 24.7555 1.98038Z" fill="white"/>
<path d="M28.318 2.16779C28.197 1.94906 28.9039 0.402318 29.1226 0.281235C29.3414 0.160152 30.8842 0.871026 31.0053 1.08585C31.1264 1.30068 30.4155 2.85132 30.2007 2.9724C29.9858 3.09349 28.443 2.38261 28.318 2.16779Z" fill="white"/>
<path d="M31.7201 2.85126C31.6381 2.62862 32.6341 1.17172 32.8528 1.0936C33.0716 1.01549 34.5285 2.00758 34.6066 2.23022C34.6847 2.45286 33.6926 3.90586 33.4739 3.98397C33.2551 4.06209 31.7982 3.06999 31.7201 2.85126Z" fill="white"/>
<path d="M34.774 4.0778C34.7427 3.85907 36.0668 2.60528 36.2856 2.57403C36.5043 2.54278 37.7581 3.87079 37.7855 4.08952C37.8128 4.30825 36.4887 5.56205 36.2739 5.58939C36.0591 5.61673 34.8013 4.2731 34.774 4.0778Z" fill="white"/>
<path d="M37.938 6.13226C37.938 5.92915 39.5004 4.87456 39.7113 4.88237C39.9222 4.89018 40.9729 6.44473 40.9651 6.65565C40.9573 6.86657 39.4027 7.91726 39.1918 7.90944C38.9809 7.90163 37.9302 6.33927 37.938 6.13226Z" fill="white"/>
<path d="M40.5707 8.53437C40.6097 8.35079 42.383 7.54618 42.5705 7.58524C42.758 7.6243 43.5587 9.39758 43.5235 9.58506C43.4884 9.77255 41.7073 10.5733 41.5237 10.5342C41.3401 10.4951 40.5511 8.72186 40.5707 8.53437Z" fill="white"/>
<path d="M42.68 11.21C42.7425 11.046 44.6916 10.5343 44.8556 10.5968C45.0197 10.6593 45.5274 12.6084 45.4649 12.7724C45.4024 12.9365 43.4534 13.4442 43.2933 13.3817C43.1331 13.3192 42.6175 11.3741 42.68 11.21Z" fill="white"/>
<path d="M44.2775 14.0964C44.3595 13.9597 46.4257 13.7761 46.5624 13.8581C46.6991 13.9401 46.8866 16.0064 46.8046 16.1431C46.7226 16.2798 44.6563 16.4633 44.5157 16.3813C44.3751 16.2993 44.1954 14.2331 44.2775 14.0964Z" fill="white"/>
<path d="M45.363 17.1431C45.4567 17.0298 47.5854 17.1938 47.7065 17.2876C47.8276 17.3813 47.6557 19.51 47.562 19.6311C47.4683 19.7522 45.3395 19.5803 45.2185 19.4866C45.0974 19.3929 45.2692 17.2563 45.363 17.1431Z" fill="white"/>
<path d="M45.9414 20.2873C46.0391 20.2014 48.1756 20.717 48.285 20.8146C48.3943 20.9123 47.8514 23.0527 47.7537 23.1582C47.6561 23.2636 45.5156 22.7285 45.4102 22.627C45.3047 22.5254 45.8399 20.3733 45.9414 20.2873Z" fill="white"/>
<path d="M46.0194 23.4628C46.7965 23.6905 47.5489 23.9953 48.2653 24.3728C48.039 25.1504 47.7341 25.903 47.3553 26.6187C46.5767 26.3918 45.8229 26.0869 45.1055 25.7087C45.3328 24.9308 45.6391 24.1783 46.0194 23.4628Z" fill="white"/>
<path d="M45.6015 26.6069C46.3388 26.9726 47.0431 27.4012 47.7067 27.8881C47.3434 28.628 46.9147 29.3338 46.4256 29.9973C45.6883 29.6316 44.9839 29.203 44.3203 28.7161C44.6853 27.9772 45.114 27.2715 45.6015 26.6069Z" fill="white"/>
<path d="M44.6951 29.6654C45.3681 30.1627 46.0051 30.707 46.6012 31.2942C46.1034 31.9678 45.5578 32.6049 44.9686 33.2003C44.2931 32.7048 43.6559 32.159 43.0625 31.5676C43.5602 30.895 44.1058 30.2593 44.6951 29.6654Z" fill="white"/>
<path d="M43.305 32.5635C43.8891 33.1822 44.4368 33.8343 44.9455 34.5164C44.3285 35.1025 43.6763 35.6503 42.9925 36.1569C42.4087 35.539 41.8623 34.8868 41.356 34.204C41.9718 33.6181 42.6226 33.0703 43.305 32.5635Z" fill="white"/>
<path d="M41.4339 35.247C41.4925 35.247 42.7502 37.4265 42.7463 37.485C42.7424 37.5436 40.5668 38.8013 40.5082 38.7974C40.4496 38.7935 39.1919 36.6179 39.1958 36.5593C39.1997 36.5008 41.3753 35.2431 41.4339 35.247Z" fill="white"/>
<path d="M39.102 37.6686C39.141 37.6686 40.0238 40.0981 40.012 40.141C40.0003 40.184 37.5826 41.0628 37.5396 41.0511C37.4967 41.0394 36.6178 38.6216 36.6295 38.5826C36.6412 38.5435 39.059 37.6412 39.102 37.6686Z" fill="white"/>
<path d="M36.4576 39.5043C36.481 39.5043 36.7193 42.1447 36.7076 42.1721C36.6958 42.1994 34.0671 42.4338 34.0398 42.4181C34.0124 42.4025 33.7781 39.7817 33.7937 39.7543C33.8093 39.727 36.4302 39.4926 36.4576 39.5043Z" fill="white"/>
<path d="M33.1924 40.7269C33.1924 40.7269 33.0869 43.4298 33.0791 43.4415C33.0713 43.4532 30.3723 43.336 30.345 43.3282C30.3177 43.3204 30.4505 40.6214 30.4622 40.5941C30.4739 40.5668 33.1807 40.7191 33.1924 40.7269Z" fill="white"/>
<path d="M27.2351 41.2068L26.9575 43.9542L29.705 44.2319L29.9826 41.4844L27.2351 41.2068Z" fill="white"/>
</g>
<path d="M72.8453 19.0673C72.6195 16.3027 70.3896 15.5778 67.7999 15.5778C65.2102 15.5778 63.2556 16.5941 63.2556 18.4206C63.2556 20.5527 65.2102 21.0217 69.1265 21.6827C72.0549 22.1802 74.9834 22.8625 74.9834 25.9469C74.9834 29.9126 71.4058 31 68.2727 31C64.2012 31 61.2163 29.5786 60.9834 25.2433H62.6488C62.9381 28.6405 65.1891 29.4578 68.2939 29.4578C70.7002 29.4578 73.2334 28.8039 73.2334 26.2383C73.2334 23.6727 70.312 23.4737 67.3836 22.9975C63.559 22.3863 61.5126 21.2989 61.5126 18.6906C61.5126 15.1371 64.7515 14 67.8634 14C71.1517 14 74.4612 15.1798 74.5741 19.0318L72.8453 19.0673Z" fill="white"/>
<path d="M79.3278 15H80.8863V18.783H83.9834V20.0778H80.8863V28.0344C80.8863 29.0687 81.1834 29.5533 82.4447 29.5533C82.9606 29.5675 83.4764 29.5215 83.9834 29.4159V30.8626C83.4191 30.9517 82.8498 30.9976 82.2796 31C79.8561 31 79.3278 29.9657 79.3278 28.0271V20.0778H76.9834V18.783H79.3607L79.3278 15Z" fill="white"/>
<path d="M100.67 26.7159C99.907 28.8801 98.0368 31 93.8536 31C88.6704 31 86.9834 27.4915 86.9834 24.5C86.9834 21.0875 89.1513 18 93.8536 18C97.1131 18 100.983 19.3665 100.983 24.9284H88.7697C88.7697 27.4693 90.6475 29.5449 93.8612 29.5449C96.9147 29.5449 98.2429 28.5773 98.8765 26.7159H100.67ZM99.1437 23.6063C98.6322 20.5926 96.3498 19.4625 93.9376 19.4625C91.5254 19.4625 89.1437 20.6148 88.7239 23.6063H99.1437Z" fill="white"/>
<path d="M103.983 14H105.983V31H103.983V14Z" fill="white"/>
<path d="M109.983 14H111.983V16.5977H109.983V14ZM109.983 18.7218H111.983V31H109.983V18.7218Z" fill="white"/>
<path d="M125.405 28.3552H125.365C124.897 29.5932 123.232 31 120.778 31C117.093 31 115.983 28.9812 115.983 26.2028V19H117.562V26.5194C117.562 28.8265 118.899 29.6354 120.905 29.6354C124.001 29.6354 125.405 27.9754 125.405 25.3306V19H126.983V30.6694H125.405V28.3552Z" fill="white"/>
<path d="M150.316 22.9959C150.316 20.7156 149.235 19.507 146.784 19.507C144.219 19.507 142.799 21.1032 142.799 23.5584V31H141.132V22.4639C141.132 20.86 140.072 19.507 137.798 19.507C135.41 19.507 133.651 20.9816 133.651 23.8929V31H131.983V18.3896H133.686V20.7156H133.728C134.435 19.3854 135.692 18.002 138.37 18.002C141.047 18.002 142.227 19.5222 142.566 20.7688C143.029 19.9054 143.7 19.1925 144.508 18.7055C145.317 18.2185 146.232 17.9754 147.158 18.002C150.45 18.002 151.983 19.7958 151.983 22.3879V31H150.316V22.9959Z" fill="white"/>
<defs>
<clipPath id="clip0">
<rect width="50.2768" height="50" fill="white"/>
</clipPath>
</defs>
</svg>
