<svg width="164" height="179" viewBox="0 0 164 179" fill="none" xmlns="http://www.w3.org/2000/svg">
<rect x="79.2007" y="175.077" width="5.2" height="4.4" transform="rotate(-30.9927 79.2007 175.077)" fill="#D90029"/>
<rect x="90.4004" y="162.277" width="5.2" height="4.4" transform="rotate(-30.9927 90.4004 162.277)" fill="#D90029"/>
<rect x="101.164" y="151.539" width="4.54296" height="3.84405" transform="rotate(-30.9927 101.164 151.539)" fill="#D90029"/>
<rect x="109.976" y="140.113" width="4.10433" height="3.84405" transform="rotate(-30.9927 109.976 140.113)" fill="#D90029"/>
<rect x="118.637" y="130.769" width="3.44851" height="3.22981" transform="rotate(-30.9927 118.637 130.769)" fill="#D90029"/>
<rect x="126.8" y="122.226" width="2.76926" height="2.59364" transform="rotate(-30.9927 126.8 122.226)" fill="#D90029"/>
<rect x="133.6" y="114.226" width="2.76926" height="2.59364" transform="rotate(-30.9927 133.6 114.226)" fill="#D90029"/>
<rect x="139.993" y="107.19" width="2.31118" height="2.34464" transform="rotate(-30.9927 139.993 107.19)" fill="#D90029"/>
<rect x="145.771" y="100.687" width="2.11152" height="2.14208" transform="rotate(-30.9927 145.771 100.687)" fill="#D90029"/>
<rect x="151.523" y="94.6642" width="1.82293" height="1.84932" transform="rotate(-30.9927 151.523 94.6642)" fill="#D90029"/>
<rect x="156.4" y="88.9386" width="1.82293" height="1.84932" transform="rotate(-30.9927 156.4 88.9386)" fill="#D90029"/>
<rect x="152.4" y="81.4906" width="1.34076" height="1.52772" transform="rotate(-30.9927 152.4 81.4906)" fill="#D90029"/>
<rect x="148.8" y="74.2903" width="1.34076" height="1.52772" transform="rotate(-30.9927 148.8 74.2903)" fill="#D90029"/>
<rect x="161.6" y="83.4219" width="1.20824" height="1.24517" transform="rotate(-30.9927 161.6 83.4219)" fill="#D90029"/>
<rect x="157.601" y="76.6222" width="1.20824" height="1.24517" transform="rotate(-30.9927 157.601 76.6222)" fill="#D90029"/>
<rect x="153.601" y="69.4218" width="1.20824" height="1.24517" transform="rotate(-30.9927 153.601 69.4218)" fill="#D90029"/>
<rect x="149.6" y="62.2221" width="1.20824" height="1.24517" transform="rotate(-30.9927 149.6 62.2221)" fill="#D90029"/>
<rect x="145.601" y="54.6217" width="1.20824" height="1.24517" transform="rotate(-30.9927 145.601 54.6217)" fill="#D90029"/>
<rect x="141.201" y="47.022" width="1.20824" height="1.24517" transform="rotate(-30.9927 141.201 47.022)" fill="#D90029"/>
<rect x="137.2" y="39.4222" width="1.20824" height="1.24517" transform="rotate(-30.9927 137.2 39.4222)" fill="#D90029"/>
<rect x="132.801" y="31.8218" width="1.20824" height="1.24517" transform="rotate(-30.9927 132.801 31.8218)" fill="#D90029"/>
<rect x="128.8" y="24.6221" width="1.20824" height="1.24517" transform="rotate(-30.9927 128.8 24.6221)" fill="#D90029"/>
<rect x="124.4" y="17.0217" width="1.20824" height="1.24517" transform="rotate(-30.9927 124.4 17.0217)" fill="#D90029"/>
<rect x="120" y="9.02197" width="1.20824" height="1.24517" transform="rotate(-30.9927 120 9.02197)" fill="#D90029"/>
<rect x="116" y="1.42218" width="1.20824" height="1.24517" transform="rotate(-30.9927 116 1.42218)" fill="#D90029"/>
<rect x="144.401" y="66.6906" width="1.34076" height="1.52772" transform="rotate(-30.9927 144.401 66.6906)" fill="#D90029"/>
<rect x="140" y="59.0902" width="1.34076" height="1.52772" transform="rotate(-30.9927 140 59.0902)" fill="#D90029"/>
<rect x="135.6" y="51.0904" width="1.34076" height="1.52772" transform="rotate(-30.9927 135.6 51.0904)" fill="#D90029"/>
<rect x="131.601" y="43.4901" width="1.34076" height="1.52772" transform="rotate(-30.9927 131.601 43.4901)" fill="#D90029"/>
<rect x="126.8" y="35.4902" width="1.34076" height="1.52772" transform="rotate(-30.9927 126.8 35.4902)" fill="#D90029"/>
<rect x="122.8" y="28.2905" width="1.34076" height="1.52772" transform="rotate(-30.9927 122.8 28.2905)" fill="#D90029"/>
<rect x="118" y="19.8901" width="1.34076" height="1.52772" transform="rotate(-30.9927 118 19.8901)" fill="#D90029"/>
<rect x="113.601" y="11.8903" width="1.34076" height="1.52772" transform="rotate(-30.9927 113.601 11.8903)" fill="#D90029"/>
<rect x="109.2" y="3.89056" width="1.34076" height="1.52772" transform="rotate(-30.9927 109.2 3.89056)" fill="#D90029"/>
<rect x="147.2" y="86.9385" width="1.82293" height="1.84932" transform="rotate(-30.9927 147.2 86.9385)" fill="#D90029"/>
<rect x="142.801" y="79.3388" width="1.82293" height="1.84932" transform="rotate(-30.9927 142.801 79.3388)" fill="#D90029"/>
<rect x="138.4" y="71.3384" width="1.82293" height="1.84932" transform="rotate(-30.9927 138.4 71.3384)" fill="#D90029"/>
<rect x="134" y="63.3386" width="1.82293" height="1.84932" transform="rotate(-30.9927 134 63.3386)" fill="#D90029"/>
<rect x="129.601" y="55.7389" width="1.82293" height="1.84932" transform="rotate(-30.9927 129.601 55.7389)" fill="#D90029"/>
<rect x="125.2" y="47.7385" width="1.82293" height="1.84932" transform="rotate(-30.9927 125.2 47.7385)" fill="#D90029"/>
<rect x="120.8" y="39.3387" width="1.82293" height="1.84932" transform="rotate(-30.9927 120.8 39.3387)" fill="#D90029"/>
<rect x="116" y="31.3383" width="1.82293" height="1.84932" transform="rotate(-30.9927 116 31.3383)" fill="#D90029"/>
<rect x="111.72" y="22.8668" width="1.68366" height="1.70803" transform="rotate(-30.9927 111.72 22.8668)" fill="#D90029"/>
<rect x="107.201" y="14.8669" width="1.68366" height="1.70803" transform="rotate(-30.9927 107.201 14.8669)" fill="#D90029"/>
<rect x="102.4" y="6.46716" width="1.68366" height="1.70803" transform="rotate(-30.9927 102.4 6.46716)" fill="#D90029"/>
<rect x="141.601" y="93.0871" width="2.11152" height="2.14208" transform="rotate(-30.9927 141.601 93.0871)" fill="#D90029"/>
<rect x="137.2" y="85.0873" width="2.11152" height="2.14208" transform="rotate(-30.9927 137.2 85.0873)" fill="#D90029"/>
<rect x="132.401" y="77.0875" width="2.11152" height="2.14208" transform="rotate(-30.9927 132.401 77.0875)" fill="#D90029"/>
<rect x="127.601" y="68.6871" width="2.11152" height="2.14208" transform="rotate(-30.9927 127.601 68.6871)" fill="#D90029"/>
<rect x="123.326" y="60.6114" width="1.96476" height="2.08609" transform="rotate(-30.9927 123.326 60.6114)" fill="#D90029"/>
<rect x="118.4" y="52.2116" width="1.96476" height="1.86877" transform="rotate(-30.9927 118.4 52.2116)" fill="#D90029"/>
<rect x="113.601" y="43.8118" width="1.96476" height="1.86877" transform="rotate(-30.9927 113.601 43.8118)" fill="#D90029"/>
<rect x="108.8" y="35.4114" width="1.96476" height="1.86877" transform="rotate(-30.9927 108.8 35.4114)" fill="#D90029"/>
<rect x="103.601" y="26.6116" width="1.96476" height="1.86877" transform="rotate(-30.9927 103.601 26.6116)" fill="#D90029"/>
<rect x="98.8003" y="18.2118" width="1.96476" height="1.86877" transform="rotate(-30.9927 98.8003 18.2118)" fill="#D90029"/>
<rect x="94.2695" y="9.25024" width="1.65094" height="1.808" transform="rotate(-30.9927 94.2695 9.25024)" fill="#D90029"/>
<rect x="135.6" y="99.5897" width="2.31118" height="2.34464" transform="rotate(-30.9927 135.6 99.5897)" fill="#D90029"/>
<rect x="130.801" y="91.1899" width="2.31118" height="2.34464" transform="rotate(-30.9927 130.801 91.1899)" fill="#D90029"/>
<rect x="126.171" y="82.6872" width="2.11152" height="2.14208" transform="rotate(-30.9927 126.171 82.6872)" fill="#D90029"/>
<rect x="121.6" y="74.6874" width="2.11152" height="2.14208" transform="rotate(-30.9927 121.6 74.6874)" fill="#D90029"/>
<rect x="116.801" y="65.887" width="2.11152" height="2.14208" transform="rotate(-30.9927 116.801 65.887)" fill="#D90029"/>
<rect x="111.6" y="57.0872" width="2.11152" height="2.14208" transform="rotate(-30.9927 111.6 57.0872)" fill="#D90029"/>
<rect x="106.526" y="48.2114" width="1.96476" height="2.08609" transform="rotate(-30.9927 106.526 48.2114)" fill="#D90029"/>
<rect x="101.601" y="39.4116" width="1.96476" height="2.08609" transform="rotate(-30.9927 101.601 39.4116)" fill="#D90029"/>
<rect x="96.4004" y="30.2118" width="1.96476" height="2.08609" transform="rotate(-30.9927 96.4004 30.2118)" fill="#D90029"/>
<rect x="91.2007" y="21.4114" width="1.96476" height="2.08609" transform="rotate(-30.9927 91.2007 21.4114)" fill="#D90029"/>
<rect x="86.0005" y="12.2115" width="1.96476" height="2.08609" transform="rotate(-30.9927 86.0005 12.2115)" fill="#D90029"/>
<rect x="128.8" y="105.826" width="2.76926" height="2.59364" transform="rotate(-30.9927 128.8 105.826)" fill="#D90029"/>
<rect x="124.229" y="97.289" width="2.5034" height="2.34464" transform="rotate(-30.9927 124.229 97.289)" fill="#D90029"/>
<rect x="119.201" y="88.4892" width="2.5034" height="2.34464" transform="rotate(-30.9927 119.201 88.4892)" fill="#D90029"/>
<rect x="114" y="79.6888" width="2.5034" height="2.34464" transform="rotate(-30.9927 114 79.6888)" fill="#D90029"/>
<rect x="109.2" y="71.289" width="2.5034" height="2.34464" transform="rotate(-30.9927 109.2 71.289)" fill="#D90029"/>
<rect x="104" y="62.0891" width="2.5034" height="2.34464" transform="rotate(-30.9927 104 62.0891)" fill="#D90029"/>
<rect x="98.4004" y="52.8887" width="2.5034" height="2.34464" transform="rotate(-30.9927 98.4004 52.8887)" fill="#D90029"/>
<rect x="93.2007" y="43.6889" width="2.5034" height="2.34464" transform="rotate(-30.9927 93.2007 43.6889)" fill="#D90029"/>
<rect x="87.6006" y="34.489" width="2.5034" height="2.34464" transform="rotate(-30.9927 87.6006 34.489)" fill="#D90029"/>
<rect x="82.8291" y="25.0316" width="2.00323" height="2.34464" transform="rotate(-30.9927 82.8291 25.0316)" fill="#D90029"/>
<rect x="77.2007" y="15.4311" width="2.00323" height="1.87883" transform="rotate(-30.9927 77.2007 15.4311)" fill="#D90029"/>
<rect x="121.6" y="113.426" width="2.76926" height="2.59364" transform="rotate(-30.9927 121.6 113.426)" fill="#D90029"/>
<rect x="116.4" y="104.226" width="2.76926" height="2.59364" transform="rotate(-30.9927 116.4 104.226)" fill="#D90029"/>
<rect x="111.2" y="95.426" width="2.76926" height="2.59364" transform="rotate(-30.9927 111.2 95.426)" fill="#D90029"/>
<rect x="105.601" y="86.2261" width="2.76926" height="2.59364" transform="rotate(-30.9927 105.601 86.2261)" fill="#D90029"/>
<rect x="100.8" y="77.4258" width="2.76926" height="2.59364" transform="rotate(-30.9927 100.8 77.4258)" fill="#D90029"/>
<rect x="95.2002" y="68.2259" width="2.76926" height="2.59364" transform="rotate(-30.9927 95.2002 68.2259)" fill="#D90029"/>
<rect x="89.6006" y="58.626" width="2.76926" height="2.59364" transform="rotate(-30.9927 89.6006 58.626)" fill="#D90029"/>
<rect x="84.4321" y="48.7668" width="2.26542" height="2.59364" transform="rotate(-30.9927 84.4321 48.7668)" fill="#D90029"/>
<rect x="78.8008" y="39.1663" width="2.26542" height="2.59364" transform="rotate(-30.9927 78.8008 39.1663)" fill="#D90029"/>
<rect x="73.1274" y="28.97" width="1.8843" height="2.59364" transform="rotate(-30.9927 73.1274 28.97)" fill="#D90029"/>
<rect x="67.6006" y="19.3701" width="1.8843" height="2.15332" transform="rotate(-30.9927 67.6006 19.3701)" fill="#D90029"/>
<rect x="113.2" y="121.775" width="3.44851" height="3.22981" transform="rotate(-30.9927 113.2 121.775)" fill="#D90029"/>
<rect x="108" y="112.576" width="3.44851" height="3.22981" transform="rotate(-30.9927 108 112.576)" fill="#D90029"/>
<rect x="102.4" y="102.976" width="3.44851" height="3.22981" transform="rotate(-30.9927 102.4 102.976)" fill="#D90029"/>
<rect x="96.8003" y="93.7759" width="3.44851" height="3.22981" transform="rotate(-30.9927 96.8003 93.7759)" fill="#D90029"/>
<rect x="91.6006" y="84.5755" width="3.44851" height="3.22981" transform="rotate(-30.9927 91.6006 84.5755)" fill="#D90029"/>
<rect x="86.0005" y="74.5756" width="3.44851" height="3.22981" transform="rotate(-30.9927 86.0005 74.5756)" fill="#D90029"/>
<rect x="79.9375" y="63.9734" width="3.05535" height="3.22981" transform="rotate(-30.9927 79.9375 63.9734)" fill="#D90029"/>
<rect x="74.0005" y="53.9729" width="3.05535" height="3.22981" transform="rotate(-30.9927 74.0005 53.9729)" fill="#D90029"/>
<rect x="68.6885" y="43.8" width="2.71975" height="3.22981" transform="rotate(-30.9927 68.6885 43.8)" fill="#D90029"/>
<rect x="62.5532" y="33.3084" width="2.54155" height="3.22981" transform="rotate(-30.9927 62.5532 33.3084)" fill="#D90029"/>
<rect x="56.9277" y="23.2321" width="2.3929" height="2.77782" transform="rotate(-30.9927 56.9277 23.2321)" fill="#D90029"/>
<rect x="104.4" y="130.914" width="4.10433" height="3.84405" transform="rotate(-30.9927 104.4 130.914)" fill="#D90029"/>
<rect x="98.4004" y="121.314" width="4.10433" height="3.84405" transform="rotate(-30.9927 98.4004 121.314)" fill="#D90029"/>
<rect x="92.8008" y="111.713" width="4.10433" height="3.84405" transform="rotate(-30.9927 92.8008 111.713)" fill="#D90029"/>
<rect x="86.4004" y="101.313" width="4.10433" height="3.84405" transform="rotate(-30.9927 86.4004 101.313)" fill="#D90029"/>
<rect x="80.8008" y="91.7135" width="4.10433" height="3.84405" transform="rotate(-30.9927 80.8008 91.7135)" fill="#D90029"/>
<rect x="74.4004" y="81.3136" width="4.10433" height="3.84405" transform="rotate(-30.9927 74.4004 81.3136)" fill="#D90029"/>
<rect x="68.4009" y="71.3131" width="4.10433" height="3.84405" transform="rotate(-30.9927 68.4009 71.3131)" fill="#D90029"/>
<rect x="62.0005" y="60.9132" width="4.10433" height="3.84405" transform="rotate(-30.9927 62.0005 60.9132)" fill="#D90029"/>
<rect x="55.6006" y="50.5133" width="4.10433" height="3.84405" transform="rotate(-30.9927 55.6006 50.5133)" fill="#D90029"/>
<rect x="48.8003" y="39.3134" width="4.10433" height="3.84405" transform="rotate(-30.9927 48.8003 39.3134)" fill="#D90029"/>
<rect x="42.8008" y="28.9135" width="4.10433" height="3.84405" transform="rotate(-30.9927 42.8008 28.9135)" fill="#D90029"/>
<rect x="94.8008" y="141.139" width="4.54296" height="3.84405" transform="rotate(-30.9927 94.8008 141.139)" fill="#D90029"/>
<rect x="88.4004" y="130.739" width="4.54296" height="3.84405" transform="rotate(-30.9927 88.4004 130.739)" fill="#D90029"/>
<rect x="82.4009" y="120.739" width="4.54296" height="3.84405" transform="rotate(-30.9927 82.4009 120.739)" fill="#D90029"/>
<rect x="76.0005" y="110.339" width="4.54296" height="3.84405" transform="rotate(-30.9927 76.0005 110.339)" fill="#D90029"/>
<rect x="69.6006" y="99.5391" width="4.54296" height="3.84405" transform="rotate(-30.9927 69.6006 99.5391)" fill="#D90029"/>
<rect x="63.2002" y="89.1392" width="4.54296" height="3.84405" transform="rotate(-30.9927 63.2002 89.1392)" fill="#D90029"/>
<rect x="56.8008" y="78.3393" width="4.54296" height="3.84405" transform="rotate(-30.9927 56.8008 78.3393)" fill="#D90029"/>
<rect x="50.0005" y="67.5394" width="4.54296" height="3.84405" transform="rotate(-30.9927 50.0005 67.5394)" fill="#D90029"/>
<rect x="43.6006" y="56.7389" width="4.54296" height="3.84405" transform="rotate(-30.9927 43.6006 56.7389)" fill="#D90029"/>
<rect x="36.8003" y="45.1389" width="4.54296" height="3.84405" transform="rotate(-30.9927 36.8003 45.1389)" fill="#D90029"/>
<rect x="30.0005" y="33.939" width="4.54296" height="3.84405" transform="rotate(-30.9927 30.0005 33.939)" fill="#D90029"/>
<rect x="84" y="151.477" width="5.2" height="4.4" transform="rotate(-30.9927 84 151.477)" fill="#D90029"/>
<rect x="77.6006" y="141.078" width="5.2" height="4.4" transform="rotate(-30.9927 77.6006 141.078)" fill="#D90029"/>
<rect x="70.8003" y="130.278" width="5.2" height="4.4" transform="rotate(-30.9927 70.8003 130.278)" fill="#D90029"/>
<rect x="64.4004" y="119.478" width="5.2" height="4.4" transform="rotate(-30.9927 64.4004 119.478)" fill="#D90029"/>
<rect x="57.6001" y="108.277" width="5.2" height="4.4" transform="rotate(-30.9927 57.6001 108.277)" fill="#D90029"/>
<rect x="50.8003" y="97.0772" width="5.2" height="4.4" transform="rotate(-30.9927 50.8003 97.0772)" fill="#D90029"/>
<rect x="44.0005" y="85.4773" width="5.2" height="4.4" transform="rotate(-30.9927 44.0005 85.4773)" fill="#D90029"/>
<rect x="37.2002" y="74.2773" width="5.2" height="4.4" transform="rotate(-30.9927 37.2002 74.2773)" fill="#D90029"/>
<rect x="30.4009" y="62.6774" width="5.2" height="4.4" transform="rotate(-30.9927 30.4009 62.6774)" fill="#D90029"/>
<rect x="22.8003" y="50.6774" width="5.2" height="4.4" transform="rotate(-30.9927 22.8003 50.6774)" fill="#D90029"/>
<rect x="15.2007" y="38.6775" width="5.2" height="4.4" transform="rotate(-30.9927 15.2007 38.6775)" fill="#D90029"/>
<rect x="72.8003" y="164.277" width="5.2" height="4.4" transform="rotate(-30.9927 72.8003 164.277)" fill="#D90029"/>
<rect x="66.0005" y="152.677" width="5.2" height="4.4" transform="rotate(-30.9927 66.0005 152.677)" fill="#D90029"/>
<rect x="58.8003" y="141.078" width="5.2" height="4.4" transform="rotate(-30.9927 58.8003 141.078)" fill="#D90029"/>
<rect x="52.0005" y="129.878" width="5.2" height="4.4" transform="rotate(-30.9927 52.0005 129.878)" fill="#D90029"/>
<rect x="44.8003" y="117.878" width="5.2" height="4.4" transform="rotate(-30.9927 44.8003 117.878)" fill="#D90029"/>
<rect x="37.6006" y="106.278" width="5.2" height="4.4" transform="rotate(-30.9927 37.6006 106.278)" fill="#D90029"/>
<rect x="30.4009" y="94.2777" width="5.2" height="4.4" transform="rotate(-30.9927 30.4009 94.2777)" fill="#D90029"/>
<rect x="23.2002" y="82.2777" width="5.2" height="4.4" transform="rotate(-30.9927 23.2002 82.2777)" fill="#D90029"/>
<rect x="15.6006" y="69.4777" width="5.2" height="4.4" transform="rotate(-30.9927 15.6006 69.4777)" fill="#D90029"/>
<rect x="7.6001" y="56.6777" width="5.2" height="4.4" transform="rotate(-30.9927 7.6001 56.6777)" fill="#D90029"/>
<rect x="0.400391" y="44.2777" width="5.2" height="4.4" transform="rotate(-30.9927 0.400391 44.2777)" fill="#D90029"/>
</svg>
