<svg width="217" height="161" viewBox="0 0 217 161" fill="none" xmlns="http://www.w3.org/2000/svg">
<path fill-rule="evenodd" clip-rule="evenodd" d="M117.505 0.880151L117.181 0.629639L116.938 0.959257L51.006 90.4343L50.7658 90.7603L51.0947 90.9965L59.3788 96.9443L57.0857 100.048L56.8446 100.375L56.896 100.412L54.0186 104.307L49.9908 101.481L49.6651 101.253L49.4349 101.577L44.3497 108.742L40.1393 105.818L39.8085 105.588L39.5811 105.921L36.483 110.448L31.3297 106.875L30.9993 106.645L30.7719 106.977L28.0773 110.907L24.2473 108.371L24.2535 108.36L24.4603 107.984L24.0708 107.804L21.8203 106.764L21.3758 106.47L21.0472 106.252L20.9668 106.37L12.0795 102.263L11.7282 102.101L11.5544 102.447L5.34565 114.787L5.15765 115.161L5.53935 115.332L12.6574 118.523L9.77286 122.742L9.54209 123.079L9.88458 123.302L16.584 127.671L16.225 128.194L15.9989 128.524L16.3286 128.75L38.2073 143.767L38.526 143.986L38.5464 143.958L49.3284 151.371L49.6472 151.59L49.8769 151.279L50.8785 149.922L60.3296 156.498L60.6436 156.717L60.8759 156.413L63.4135 153.092L71.6085 158.963L71.9193 159.185L72.1558 158.885L75.1482 155.084L82.0508 160.035L82.3605 160.258L82.5974 159.959L85.6339 156.13L91.7601 160.525L92.0698 160.747L92.3066 160.448L95.609 156.284L101.158 160.264L101.468 160.487L101.705 160.188L105.552 155.335L110.907 159.177L111.217 159.399L111.454 159.101L114.896 154.766L119.048 157.743L119.358 157.965L119.594 157.667L122.438 154.08L126.448 156.954L126.758 157.176L126.995 156.877L130.139 152.905L133.491 155.307L133.801 155.53L134.037 155.231L136.401 152.244L147.162 159.97L147.465 160.187L147.703 159.9L216.022 77.6076L216.286 77.289L215.959 77.0357L117.505 0.880151ZM23.1912 108.631L21.4295 107.465L21.2453 107.38L13.8579 118.184L17.1302 119.651L23.1912 108.631ZM12.0951 103.152L20.5089 107.039L13.1162 117.852L6.2483 114.773L12.0951 103.152ZM17.1394 120.532L13.3991 118.855L10.664 122.856L17.0365 127.011L27.6248 111.567L23.8605 109.074L17.6535 120.36L17.4758 120.683L17.1394 120.532ZM17.2543 128.108L17.1109 128.317L21.9704 131.652L22.1926 131.328L17.2543 128.108ZM22.6445 130.667L17.7068 127.448L28.2919 112.009L33.1931 115.254L22.6445 130.667ZM22.8629 131.765L22.6583 132.064L38.362 142.861L39.166 141.771L27.8585 133.902L27.5177 134.355L27.2929 134.653L26.9797 134.449L22.8629 131.765ZM27.2014 133.445L27.1034 133.575L23.3148 131.104L33.8602 115.696L37.6378 118.198L27.1767 132.936L26.9431 133.265L27.2014 133.445ZM28.34 133.262L39.6411 141.127L42.0851 137.814L34.0329 132.047L33.703 131.81L33.9441 131.484L44.6045 117.052L41.138 114.649L38.7685 117.987L39.1292 118.226L39.4835 118.46L39.2279 118.8L28.34 133.262ZM38.3052 118.64L38.3332 118.658L37.6126 119.615L38.3052 118.64ZM38.1011 117.545L40.4806 114.193L36.6886 111.564L34.3121 115.036L38.1011 117.545ZM33.645 114.594L36.0312 111.108L31.2043 107.761L28.7444 111.349L33.645 114.594ZM49.4629 150.493L39.0216 143.314L39.8229 142.228L50.2216 149.464L49.4629 150.493ZM50.6968 148.82L40.298 141.584L42.7356 138.28L53.0318 145.656L50.6968 148.82ZM53.5069 145.012L43.2106 137.637L45.847 134.063L56.1381 141.446L53.5069 145.012ZM42.5602 137.171L45.1969 133.597L37.4839 128.064L37.4715 128.055L34.8288 131.633L42.5602 137.171ZM56.6131 140.802L46.322 133.42L48.9714 129.829L59.2625 137.211L56.6131 140.802ZM45.672 132.953L48.3213 129.362L41.2563 124.294L40.9315 124.061L38.2799 127.65L45.672 132.953ZM59.7376 136.568L49.4464 129.185L52.3471 125.254L62.6389 132.636L59.7376 136.568ZM48.7964 128.719L51.697 124.787L44.9549 119.951L42.0522 123.88L48.7964 128.719ZM63.1139 131.992L52.8221 124.61L53.9608 123.067L54.2053 122.735L53.8668 122.5L47.0202 117.753L49.1524 114.867L66.5427 127.345L63.1139 131.992ZM53.0724 122.923L46.5446 118.397L45.7188 119.515L52.172 124.143L53.0724 122.923ZM48.1001 112.32L45.08 116.408L41.6011 113.996L44.5438 109.85L48.1001 112.32ZM43.8866 109.394L40.9436 113.54L37.1405 110.903L40.0138 106.705L43.8866 109.394ZM51.3537 149.278L60.4725 155.623L62.7628 152.626L53.6823 146.122L51.3537 149.278ZM54.1573 145.478L63.2488 151.99L65.9355 148.475L56.7881 141.912L54.1573 145.478ZM57.2632 141.269L66.4214 147.839L69.1319 144.292L59.9126 137.678L57.2632 141.269ZM60.3876 137.034L69.6179 143.656L72.5867 139.771L63.289 133.102L60.3876 137.034ZM63.764 132.458L73.0726 139.135L76.5792 134.546L67.1927 127.811L63.764 132.458ZM67.6677 127.167L77.0652 133.91L80.1625 129.857L52.6528 110.129L50.5151 113.023L68.42 125.455L68.7581 125.69L68.5137 126.021L67.6677 127.167ZM50.0395 113.666L67.6255 125.877L67.0177 126.701L49.6278 114.224L50.0395 113.666ZM48.5756 111.676L53.5431 104.951L49.857 102.365L45.0068 109.198L48.5756 111.676ZM84.4036 125.625L84.2982 125.763L92.5544 131.68L95.4288 128.028L58.8152 101.787L56.0557 105.523L70.2406 115.688L84.0625 125.385L84.4036 125.625ZM83.1617 125.932L69.7778 116.341L55.4762 106.307L53.1282 109.485L80.6484 129.221L83.1617 125.932ZM71.7636 158.09L63.8994 152.456L66.5858 148.941L74.4975 154.617L71.7636 158.09ZM74.9929 153.988L67.0718 148.305L69.7823 144.758L77.7556 150.478L74.9929 153.988ZM78.251 149.849L70.2682 144.122L73.237 140.237L81.2775 146.004L78.251 149.849ZM81.7728 145.375L73.723 139.601L77.2295 135.013L85.3459 140.836L81.7728 145.375ZM85.8412 140.207L77.7155 134.377L80.8129 130.324L88.9999 136.195L85.8412 140.207ZM89.4952 135.566L81.2989 129.688L83.8122 126.399L92.0591 132.309L89.4952 135.566ZM75.6436 154.454L82.2074 159.163L84.9831 155.663L78.4063 150.945L75.6436 154.454ZM78.9016 150.316L85.4808 155.035L88.5219 151.201L81.9282 146.471L78.9016 150.316ZM82.4235 145.842L89.0196 150.573L92.6086 146.048L85.9965 141.303L82.4235 145.842ZM86.4918 140.674L93.1062 145.42L96.2812 141.416L89.6507 136.661L86.4918 140.674ZM90.146 136.032L96.7788 140.789L99.3565 137.538L92.71 132.775L90.146 136.032ZM93.2053 132.146L99.8541 136.911L102.742 133.27L96.0797 128.495L93.2053 132.146ZM96.5751 127.866L103.24 132.642L105.365 129.961L98.6952 125.172L96.5751 127.866ZM98.0447 124.705L95.9242 127.399L59.2906 101.144L61.3484 98.3583L98.0447 124.705ZM91.9167 159.652L86.1316 155.502L89.1728 151.667L94.9582 155.817L91.9167 159.652ZM95.4558 155.19L89.6704 151.04L93.2593 146.514L99.044 150.665L95.4558 155.19ZM99.5417 150.037L93.757 145.887L96.932 141.883L102.718 146.032L99.5417 150.037ZM103.215 145.405L97.4297 141.256L100.007 138.005L105.795 142.152L103.215 145.405ZM106.292 141.525L100.505 137.378L103.393 133.736L109.18 137.884L106.292 141.525ZM109.678 137.256L103.891 133.109L106.016 130.428L111.799 134.581L109.678 137.256ZM62.9922 96.1333L107.129 127.738L111.448 122.292L67.7247 89.7271L62.9922 96.1333ZM112.331 122.466L107.78 128.204L113.569 132.349L125.118 117.786L74.7239 80.2529L68.2001 89.0837L112.256 121.896L112.587 122.143L112.331 122.466ZM96.1067 155.656L101.315 159.392L104.901 154.868L99.6947 151.132L96.1067 155.656ZM100.192 150.504L105.399 154.24L108.575 150.233L103.369 146.499L100.192 150.504ZM103.866 145.872L109.073 149.605L111.653 146.351L106.446 142.619L103.866 145.872ZM106.943 141.991L112.15 145.723L115.037 142.081L109.831 138.35L106.943 141.991ZM110.329 137.723L115.534 141.454L117.652 138.783L112.45 135.048L110.329 137.723ZM114.22 132.816L119.426 136.544L138.554 112.414L82.0542 70.3304L75.1993 79.6094L125.927 117.391L126.257 117.637L126.001 117.96L114.22 132.816ZM111.064 158.305L106.05 154.707L109.226 150.7L114.245 154.299L111.064 158.305ZM114.743 153.672L109.724 150.072L112.304 146.817L117.327 150.417L114.743 153.672ZM117.825 149.79L112.801 146.19L115.688 142.548L120.714 146.15L117.825 149.79ZM121.212 145.523L116.185 141.92L118.302 139.25L123.328 142.858L121.212 145.523ZM125.11 140.614L120.078 137.01L139.437 112.588L139.693 112.265L139.362 112.018L82.3137 69.5262L89.2273 60.1676L151.246 107.694L125.11 140.614ZM115.394 154.138L119.204 156.871L121.787 153.613L117.978 150.884L115.394 154.138ZM118.476 150.256L122.285 152.986L125.171 149.345L121.365 146.617L118.476 150.256ZM121.863 145.99L125.669 148.717L127.78 146.054L123.979 143.325L121.863 145.99ZM124.894 142.172L128.689 144.908L128.7 144.894L124.898 142.167L124.894 142.172ZM124.248 141.7L124.244 141.704L122.576 140.501L124.248 141.7ZM125.761 141.08L129.564 143.803L163.193 101.385L96.5407 50.2678L89.7027 59.524L152.055 107.306L152.378 107.554L152.125 107.873L125.761 141.08ZM126.604 156.082L122.936 153.452L125.822 149.811L129.488 152.438L126.604 156.082ZM129.985 151.81L126.32 149.184L128.43 146.521L132.091 149.149L129.985 151.81ZM132.992 148.011L129.338 145.377L129.351 145.361L133.011 147.986L132.992 148.011ZM164.073 101.563L130.216 144.27L133.877 146.892L175.074 94.8366L103.375 39.7957L96.4408 49.183L96.7044 49.3852L164.003 100.997L164.325 101.245L164.073 101.563ZM130.636 152.277L133.647 154.435L135.751 151.777L132.741 149.616L130.636 152.277ZM133.641 148.479L136.646 150.646L136.672 150.613L133.662 148.453L133.641 148.479ZM134.529 147.358L137.541 149.515L184.937 89.6369L108.891 31.2646L103.349 38.7671L103.539 38.913L175.883 94.4492L176.205 94.6964L175.953 95.0147L134.529 147.358ZM145.337 156.913L137.296 151.114L137.323 151.08L142.314 154.66L142.618 154.878L142.856 154.589L203.22 81.2107L203.478 80.8962L203.159 80.6432L116.383 11.8325L116.059 11.575L115.813 11.9086L56.4031 92.5322L56.2811 92.6978L54.7608 91.6016L117.392 6.60642L209.528 78.8374L145.337 156.913ZM140.37 151.54L138.192 149.981L185.817 89.8151L186.068 89.4967L185.746 89.2495L109.055 30.3819L108.732 30.1338L108.49 30.4615L61.0207 94.7216L59.5419 93.6626L112.666 21.5694L194.547 84.8146L140.37 151.54ZM59.8542 96.3007L59.8736 96.2745L53.9651 92.0141L53.6373 91.7777L53.877 91.4524L116.992 5.80007L117.237 5.4683L117.561 5.72256L210.344 78.4604L210.666 78.713L210.406 79.0292L145.717 157.711L145.594 157.86L147.325 159.102L215.142 77.4151L117.339 1.76345L51.8903 90.5829L59.8542 96.3007ZM116.211 12.7168L57.2875 92.6806L58.5856 93.6119L58.6573 93.5145L112.265 20.7655L112.507 20.4361L112.831 20.6862L195.361 84.432L195.685 84.6826L195.427 85.0007L140.753 152.337L140.641 152.475L142.476 153.792L202.343 81.017L116.211 12.7168ZM10.2189 96.3609L10.2997 95.9395L9.87374 95.8884L1.80046 94.9195L1.41632 94.8734L1.35745 95.2558L0.0636441 103.66L0 104.074L0.415861 104.119L8.19531 104.962L8.56184 105.002L8.63128 104.64L10.2189 96.3609ZM0.917974 103.369L2.08927 95.7599L9.35243 96.6316L7.91503 104.127L0.917974 103.369Z" fill="#2BB0CC"/>
</svg>
