<svg width="178" height="177" viewBox="0 0 178 177" fill="none" xmlns="http://www.w3.org/2000/svg">
<path fill-rule="evenodd" clip-rule="evenodd" d="M105.032 111.872C97.1856 130.968 78.4024 144.414 56.4786 144.414C27.5003 144.414 4.00879 120.922 4.00879 91.9438C4.00879 62.9655 27.5003 39.474 56.4786 39.474C83.1466 39.474 105.168 59.3691 108.51 85.1267C108.799 87.2904 108.948 89.4984 108.948 91.7412L108.948 91.8061C108.948 91.852 108.948 91.8979 108.948 91.9438C108.948 92.0101 108.948 92.0764 108.948 92.1426V92.2158L108.948 92.349L108.948 92.4181L108.948 92.5516L108.948 92.6861L108.948 92.7542L108.948 92.8255L108.948 92.9567L108.948 93.0571V93.0595L108.948 93.1594L108.948 93.24L108.948 93.3329L108.948 93.3619L108.948 93.4379L108.948 93.5645L108.948 93.6393L108.948 93.7671C108.948 96.5874 108.625 99.332 108.012 101.966C107.348 105.402 106.342 108.716 105.032 111.872ZM4.81913 91.9438C4.81913 63.4131 27.9479 40.2843 56.4786 40.2843C63.6969 40.2843 70.5695 41.7648 76.8091 44.4386C70.8444 42.021 64.3232 40.6895 57.4912 40.6895C29.0723 40.6895 6.03429 63.7275 6.03429 92.1464C6.03429 120.397 28.7997 143.33 56.9858 143.601C56.8169 143.602 56.6479 143.603 56.4786 143.603C27.9479 143.603 4.81913 120.475 4.81913 91.9438ZM57.4912 41.4999C29.5199 41.4999 6.84463 64.1751 6.84463 92.1464C6.84463 120.118 29.5199 142.793 57.4912 142.793C64.5677 142.793 71.3053 141.342 77.4225 138.72C71.5804 141.085 65.1944 142.388 58.5043 142.388C30.6448 142.388 8.06029 119.803 8.06029 91.9438C8.06029 64.253 30.3724 41.7734 57.9991 41.5024C57.83 41.5007 57.6607 41.4999 57.4912 41.4999ZM8.87063 91.9438C8.87063 64.5319 31.0924 42.3102 58.5043 42.3102C58.6732 42.3102 58.842 42.3111 59.0106 42.3127C31.944 42.5846 10.0863 64.6103 10.0863 91.7412C10.0863 119.041 32.2173 141.172 59.5173 141.172C66.0703 141.172 72.3255 139.897 78.0483 137.581C72.0505 140.153 65.4437 141.577 58.5043 141.577C31.0924 141.577 8.87063 119.356 8.87063 91.9438ZM59.5173 43.1206C32.6649 43.1206 10.8966 64.8888 10.8966 91.7412C10.8966 118.594 32.6649 140.362 59.5173 140.362C59.6863 140.362 59.8552 140.361 60.0238 140.359C33.5163 140.088 12.1118 118.515 12.1118 91.9438C12.1118 65.2032 33.7893 43.5257 60.5299 43.5257C66.9479 43.5257 73.0743 44.7745 78.6793 47.0422C72.7994 44.5183 66.3216 43.1206 59.5173 43.1206ZM108.123 92.9677L108.126 92.8547C107.642 74.9274 92.9577 60.543 74.9137 60.543C56.5645 60.543 41.6895 75.4179 41.6895 93.7671C41.6895 112.116 56.5645 126.991 74.9137 126.991C85.8241 126.991 95.5062 121.732 101.563 113.611C95.6096 121.492 86.1604 126.586 75.5216 126.586C57.508 126.586 42.9052 111.983 42.9052 93.9697C42.9052 75.9562 57.508 61.3533 75.5216 61.3533C93.1999 61.3533 107.593 75.4178 108.123 92.9677ZM12.9221 91.9438C12.9221 65.6508 34.2368 44.3361 60.5299 44.3361C67.193 44.3361 73.5365 45.7049 79.2943 48.1767C73.8115 45.9611 67.8197 44.7412 61.543 44.7412C35.3618 44.7412 14.1378 65.9652 14.1378 92.1464C14.1378 118.159 35.0891 139.278 61.0373 139.549C60.8684 139.551 60.6992 139.552 60.5299 139.552C34.2368 139.552 12.9221 118.237 12.9221 91.9438ZM61.543 45.5516C35.8093 45.5516 14.9481 66.4128 14.9481 92.1464C14.9481 117.88 35.8093 138.741 61.543 138.741C61.7122 138.741 61.8812 138.74 62.05 138.739C36.6614 138.467 16.1638 117.802 16.1638 92.349C16.1638 66.7273 36.9343 45.9567 62.556 45.9567C68.6948 45.9567 74.5552 47.1491 79.918 49.3148C74.2801 46.8929 68.0681 45.5516 61.543 45.5516ZM16.9741 92.349C16.9741 67.1748 37.3818 46.7671 62.556 46.7671C68.9437 46.7671 75.0245 48.081 80.5429 50.4533C75.2996 48.3372 69.5704 47.1723 63.5691 47.1723C38.5068 47.1723 18.1898 67.4893 18.1898 92.5516C18.1898 117.444 38.233 137.656 63.0614 137.928C62.8931 137.93 62.7247 137.931 62.556 137.931C37.3818 137.931 16.9741 117.523 16.9741 92.349ZM63.5691 47.9826C38.9543 47.9826 19.0001 67.9368 19.0001 92.5516C19.0001 117.166 38.9543 137.121 63.5691 137.121C69.8216 137.121 75.7735 135.833 81.1739 133.509C76.0484 135.577 70.448 136.715 64.5817 136.715C40.0788 136.715 20.2153 116.852 20.2153 92.349C20.2153 68.0151 39.8057 48.2568 64.0754 47.9854C63.9068 47.9836 63.7381 47.9826 63.5691 47.9826ZM21.0256 92.349C21.0256 68.2937 40.5263 48.793 64.5817 48.793C70.693 48.793 76.5105 50.0516 81.7888 52.3238C76.7855 50.3078 71.3197 49.1981 65.5947 49.1981C41.6513 49.1981 22.2413 68.6081 22.2413 92.5516C22.2413 116.326 41.3785 135.631 65.0888 135.902C64.92 135.904 64.7509 135.905 64.5817 135.905C40.5263 135.905 21.0256 116.404 21.0256 92.349ZM65.5947 50.0085C42.0988 50.0085 23.0516 69.0557 23.0516 92.5516C23.0516 116.047 42.0988 135.095 65.5947 135.095C65.764 135.095 65.9331 135.094 66.1019 135.092C42.951 134.821 24.2673 115.969 24.2673 92.7542C24.2673 69.3701 43.2238 50.4136 66.6078 50.4136C72.1949 50.4136 77.5292 51.4958 82.4126 53.4619C77.2541 51.2396 71.5682 50.0085 65.5947 50.0085ZM25.0776 92.7542C25.0776 69.8177 43.6713 51.224 66.6078 51.224C72.4433 51.224 77.9977 52.4276 83.0363 54.6C78.2728 52.6838 73.07 51.6292 67.6209 51.6292C44.7963 51.6292 26.2933 70.1321 26.2933 92.9567C26.2933 115.612 44.5235 134.01 67.115 134.281C66.9462 134.283 66.7771 134.284 66.6078 134.284C43.6713 134.284 25.0776 115.691 25.0776 92.7542ZM27.1036 92.9567C27.1036 70.5797 45.2438 52.4395 67.6209 52.4395C73.3215 52.4395 78.7471 53.6168 83.668 55.7415C79.022 53.873 73.9478 52.8447 68.6334 52.8447C46.3683 52.8447 28.3188 70.8942 28.3188 93.1594C28.3188 115.255 46.0952 133.2 68.1269 133.471C67.9585 133.473 67.7898 133.474 67.6209 133.474C45.2438 133.474 27.1036 115.334 27.1036 92.9567ZM68.6334 53.655C46.8158 53.655 29.1291 71.3417 29.1291 93.1594C29.1291 114.977 46.8158 132.664 68.6334 132.664C73.4544 132.664 78.0736 131.8 82.3449 130.219C78.4212 131.542 74.219 132.258 69.8493 132.258C48.2555 132.258 30.7502 114.753 30.7502 93.1594C30.7502 71.5655 48.2555 54.0602 69.8493 54.0602C74.219 54.0602 78.4212 54.777 82.3449 56.0995C78.0736 54.5186 73.4544 53.655 68.6334 53.655ZM31.5605 93.1594C31.5605 72.013 48.703 54.8706 69.8493 54.8706C75.2459 54.8706 80.3818 55.987 85.0384 58.0016C80.6566 56.2432 75.8723 55.2757 70.8619 55.2757C49.8275 55.2757 32.7757 72.3275 32.7757 93.3619C32.7757 114.228 49.5551 131.174 70.3566 131.445C70.1878 131.447 70.0187 131.448 69.8493 131.448C48.703 131.448 31.5605 114.306 31.5605 93.1594ZM70.8619 56.0861C50.275 56.0861 33.586 72.775 33.586 93.3619C33.586 113.949 50.275 130.638 70.8619 130.638C71.0312 130.638 71.2003 130.637 71.3691 130.634C51.1273 130.364 34.8017 113.871 34.8017 93.5645C34.8017 73.0895 51.4 56.4912 71.875 56.4912C76.7448 56.4912 81.3952 57.4302 85.6553 59.1369C81.1202 57.174 76.1181 56.0861 70.8619 56.0861ZM35.612 93.5645C35.612 73.537 51.8475 57.3016 71.875 57.3016C76.9932 57.3016 81.8637 58.3619 86.2789 60.2749C82.1388 58.6181 77.6198 57.7067 72.888 57.7067C52.9725 57.7067 36.8277 73.8515 36.8277 93.7671C36.8277 113.514 52.6997 129.553 72.3819 129.824C72.2132 129.826 72.0442 129.827 71.875 129.827C51.8475 129.827 35.612 113.592 35.612 93.5645ZM72.888 58.5171C53.42 58.5171 37.638 74.2991 37.638 93.7671C37.638 113.235 53.42 129.017 72.888 129.017C77.8704 129.017 82.6114 127.983 86.9082 126.119C82.8863 127.727 78.4968 128.612 73.9006 128.612C54.5444 128.612 38.8532 112.921 38.8532 93.5645C38.8532 74.3769 54.2723 58.7907 73.3957 58.5207C73.2268 58.5183 73.0575 58.5171 72.888 58.5171ZM39.6635 93.5645C39.6635 74.6559 54.992 59.3275 73.9006 59.3275C78.7429 59.3275 83.3505 60.3327 87.5259 62.146C83.6256 60.5889 79.3696 59.7326 74.9137 59.7326C56.1169 59.7326 40.8792 74.9704 40.8792 93.7671C40.8792 112.395 55.8445 127.528 74.4081 127.798C74.2393 127.8 74.0701 127.802 73.9006 127.802C54.992 127.802 39.6635 112.473 39.6635 93.5645ZM75.5216 62.1637C57.9556 62.1637 43.7155 76.4037 43.7155 93.9697C43.7155 111.536 57.9556 125.776 75.5216 125.776C93.0876 125.776 107.328 111.536 107.328 93.9697C107.328 76.4037 93.0876 62.1637 75.5216 62.1637Z" fill="url(#paint0_linear)"/>
<path fill-rule="evenodd" clip-rule="evenodd" d="M112.407 92C112.407 61.9451 87.5937 37.5934 57.0005 37.5934C26.4073 37.5934 1.59386 61.9451 1.59386 92C1.59386 122.055 26.4073 146.407 57.0005 146.407C87.5937 146.407 112.407 122.055 112.407 92ZM57.0005 38.4067C87.1587 38.4067 111.594 62.4083 111.594 92C111.594 121.592 87.1587 145.593 57.0005 145.593C26.8424 145.593 2.4072 121.592 2.4072 92C2.4072 62.4083 26.8424 38.4067 57.0005 38.4067Z" fill="url(#paint1_linear)"/>
<path fill-rule="evenodd" clip-rule="evenodd" d="M18.8162 141.856C35.0435 162.635 60.4899 176.017 89.0953 176.017C138.097 176.017 177.828 136.748 177.828 88.2973C177.828 39.8466 138.097 0.577454 89.0953 0.577454C40.3377 0.577454 0.757989 39.4569 0.365448 87.575C0.363354 87.8155 0.362305 88.0563 0.362305 88.2973C0.362305 88.3776 0.362421 88.4579 0.362654 88.5381L0.362488 88.7025L0.362531 88.7862L0.362442 88.9051L0.362673 89.0967L0.362381 89.3102L0.362534 89.4647L0.362518 89.5128L0.36255 89.5406L0.36235 89.7154C0.36235 89.8019 0.362497 89.8884 0.36279 89.9748L0.36264 90.1206L0.362801 90.2716C0.362491 90.3563 0.362335 90.441 0.362335 90.5258C0.362335 90.6118 0.362495 90.6979 0.362816 90.7839L0.363028 90.9248C0.3628 90.9943 0.362686 91.0639 0.362686 91.1335L0.362812 91.26L0.362768 91.311C0.36249 91.3868 0.36235 91.4627 0.36235 91.5387L0.362483 91.6669L0.362434 91.7413C0.362434 93.3273 0.428444 94.898 0.557901 96.451C0.791266 99.3704 1.23083 102.233 1.86228 105.024C4.47949 118.732 10.4149 131.289 18.8162 141.856ZM177.018 88.2973C177.018 40.3029 137.658 1.3878 89.0953 1.3878C57.4729 1.3878 29.7527 17.8885 14.2612 42.652C29.7758 19.0399 56.7725 3.41369 87.4747 3.41369C135.579 3.41369 174.587 41.7739 174.587 89.1077C174.587 136.441 135.579 174.802 87.4747 174.802C80.0729 174.802 72.8863 173.893 66.0242 172.184C73.3765 174.155 81.1115 175.207 89.0953 175.207C137.658 175.207 177.018 136.292 177.018 88.2973ZM87.4747 4.22404C135.144 4.22404 173.776 42.234 173.776 89.1077C173.776 135.981 135.144 173.991 87.4747 173.991C65.1317 173.991 44.774 165.641 29.4491 151.942C44.4582 164.913 64.1244 172.776 85.6514 172.776C132.75 172.776 170.94 135.14 170.94 88.7025C170.94 42.2646 132.75 4.6292 85.6514 4.6292C78.9027 4.6292 72.337 5.40193 66.0402 6.86255C72.8935 5.13988 80.0753 4.22404 87.4747 4.22404ZM170.13 88.7025C170.13 42.7231 132.313 5.43955 85.6514 5.43955C77.7087 5.43955 70.0223 6.51982 62.7351 8.53936C69.5345 6.78101 76.6716 5.84472 84.0304 5.84472C130.233 5.84472 167.699 42.7544 167.699 88.2973C167.699 133.84 130.233 170.75 84.0304 170.75C62.0037 170.75 41.9628 162.361 27.0207 148.647C42.2123 163.085 62.8785 171.965 85.6514 171.965C132.313 171.965 170.13 134.682 170.13 88.7025ZM84.0304 6.65506C129.797 6.65506 166.888 43.2131 166.888 88.2973C166.888 133.381 129.797 169.94 84.0304 169.94C76.2302 169.94 68.682 168.878 61.5265 166.893C68.1943 168.616 75.1935 169.534 82.4099 169.534C127.718 169.534 164.457 133.35 164.457 88.7025C164.457 44.0546 127.718 7.87059 82.4099 7.87059C60.8033 7.87059 41.1453 16.0995 26.4911 29.551C41.3944 15.3757 61.6776 6.65506 84.0304 6.65506ZM163.647 88.7025C163.647 44.5135 127.282 8.68094 82.4099 8.68094C62.1161 8.68094 43.5622 16.0102 29.3254 28.1269C43.227 16.7424 61.096 9.89647 80.5866 9.89647C124.887 9.89647 160.811 45.264 160.811 88.9051C160.811 132.546 124.887 167.914 80.5866 167.914C67.492 167.914 55.1292 164.824 44.2098 159.343C55.5961 165.33 68.6001 168.724 82.4099 168.724C127.282 168.724 163.647 132.891 163.647 88.7025ZM80.5866 10.7068C124.451 10.7068 160 45.7232 160 88.9051C160 132.087 124.451 167.103 80.5866 167.103C73.762 167.103 67.1388 166.256 60.8193 164.662C66.5821 165.994 72.5894 166.698 78.7632 166.698C122.058 166.698 157.164 132.055 157.164 89.3102C157.164 46.5651 122.058 11.9223 78.7632 11.9223C59.0168 11.9223 40.9737 19.1288 27.1879 31.0236C41.2902 18.4009 60.0248 10.7068 80.5866 10.7068ZM156.354 89.3102C156.354 47.0226 121.62 12.7326 78.7632 12.7326C58.7008 12.7326 40.4185 20.2469 26.6463 32.5784C40.1009 20.9751 57.6918 13.9482 76.9399 13.9482C119.228 13.9482 153.518 47.8662 153.518 89.7154C153.518 131.565 119.228 165.483 76.9399 165.483C70.9326 165.483 65.0867 164.798 59.4777 163.504C65.6436 165.06 72.1054 165.888 78.7632 165.888C121.62 165.888 156.354 131.598 156.354 89.3102ZM76.9399 14.7585C118.789 14.7585 152.707 48.3219 152.707 89.7154C152.707 131.109 118.789 164.672 76.9399 164.672C57.2393 164.672 39.2963 157.234 25.8219 145.043C39.0259 156.505 56.3507 163.457 75.3194 163.457C116.712 163.457 150.276 130.356 150.276 89.5128C150.276 48.6695 116.712 15.5689 75.3194 15.5689C62.2207 15.5689 49.9058 18.8837 39.1905 24.7096C50.3041 18.3795 63.1942 14.7585 76.9399 14.7585ZM149.466 89.5128C149.466 49.1275 116.275 16.3792 75.3194 16.3792C55.9961 16.3792 38.4012 23.6693 25.2052 35.612C38.1322 24.3979 55.1089 17.5947 73.6989 17.5947C114.195 17.5947 147.035 49.8778 147.035 89.7154C147.035 129.553 114.195 161.836 73.6989 161.836C60.8549 161.836 48.7811 158.589 38.281 152.883C49.1785 159.093 61.8277 162.646 75.3194 162.646C116.275 162.646 149.466 129.898 149.466 89.5128ZM73.6989 18.405C113.76 18.405 146.225 50.3382 146.225 89.7154C146.225 129.093 113.76 161.026 73.6989 161.026C67.4341 161.026 61.3551 160.245 55.5569 158.777C60.7985 159.983 66.2616 160.621 71.8756 160.621C111.366 160.621 143.389 129.062 143.389 90.1206C143.389 51.179 111.366 19.6206 71.8756 19.6206C53.8687 19.6206 37.4143 26.1823 24.8407 37.0138C37.7301 25.4547 54.8759 18.405 73.6989 18.405ZM142.578 90.1206C142.578 51.6375 110.929 20.4309 71.8756 20.4309C52.7729 20.4309 35.4418 27.8974 22.7197 40.0297C35.1924 28.6213 51.8981 21.6464 70.2546 21.6464C108.849 21.6464 140.147 52.4792 140.147 90.5258C140.147 128.572 108.849 159.405 70.2546 159.405C64.1494 159.405 58.2268 158.634 52.5818 157.184C58.7146 158.895 65.1865 159.81 71.8756 159.81C110.929 159.81 142.578 128.604 142.578 90.1206ZM139.336 90.5258C139.336 52.9379 108.413 22.4568 70.2546 22.4568C52.5164 22.4568 36.3416 29.0435 24.1098 39.8689C36.0141 29.7282 51.5314 23.5949 68.5005 23.5949C105.998 23.5949 136.406 53.5436 136.406 90.5C136.406 127.456 105.998 157.405 68.5005 157.405C50.8039 157.405 34.6864 150.735 22.599 139.805C34.9941 151.447 51.776 158.595 70.2546 158.595C108.413 158.595 139.336 128.114 139.336 90.5258ZM68.5005 24.4052C105.562 24.4052 135.595 54.0025 135.595 90.5C135.595 126.998 105.562 156.595 68.5005 156.595C57.6578 156.595 47.4167 154.062 38.3531 149.563C46.924 153.537 56.5024 155.759 66.6084 155.759C103.188 155.759 132.854 126.651 132.854 90.7284C132.854 54.8061 103.188 25.6982 66.6084 25.6982C51.3935 25.6982 37.3746 30.7341 26.189 39.2017C37.7321 29.951 52.4579 24.4052 68.5005 24.4052ZM6.97213 116.372C5.72956 113.743 4.67794 111.008 3.83477 108.186C2.29602 102.714 1.45371 96.9576 1.40769 91.0147C1.45572 85.1448 2.37418 79.4784 4.04248 74.1344C11.5259 51.8832 32.8061 35.8275 57.8969 35.8275C89.2303 35.8275 114.621 60.8664 114.621 91.7413C114.621 122.616 89.2303 147.655 57.8969 147.655C36.1535 147.655 17.2716 135.598 7.75049 117.899C7.48362 117.395 7.22412 116.886 6.97213 116.372ZM132.044 90.7284C132.044 55.2678 102.755 26.5085 66.6084 26.5085C49.577 26.5085 34.0679 32.8935 22.4277 43.3559C33.753 33.6209 48.5705 27.724 64.7851 27.724C100.358 27.724 129.208 56.1073 129.208 91.1335C129.208 126.16 100.358 154.543 64.7851 154.543C59.7452 154.543 54.8401 153.973 50.1331 152.896C55.3965 154.235 60.9175 154.948 66.6084 154.948C102.755 154.948 132.044 126.189 132.044 90.7284ZM64.7851 28.5343C99.9232 28.5343 128.397 56.567 128.397 91.1335C128.397 125.7 99.9232 153.733 64.7851 153.733C58.7318 153.733 52.8762 152.901 47.3299 151.347C52.3885 152.639 57.6948 153.327 63.1641 153.327C97.8422 153.327 125.966 125.67 125.966 91.5387C125.966 57.4074 97.8422 29.7499 63.1641 29.7499C46.6787 29.7499 31.6745 36.0002 20.4688 46.225C31.9231 35.2765 47.5527 28.5343 64.7851 28.5343ZM125.155 91.5387C125.155 57.8674 97.4072 30.5602 63.1641 30.5602C47.953 30.5602 34.0236 35.9485 23.2385 44.8893C33.6963 36.5741 47.0083 31.5949 61.5005 31.5949C95.1311 31.5949 122.406 58.409 122.406 91.5C122.406 124.591 95.1311 151.405 61.5005 151.405C45.975 151.405 31.8041 145.691 21.0458 136.282C32.1023 146.357 46.9006 152.517 63.1641 152.517C97.4072 152.517 125.155 125.21 125.155 91.5387ZM61.5005 32.4052C94.6964 32.4052 121.595 58.8692 121.595 91.5C121.595 124.131 94.6964 150.595 61.5005 150.595C50.7829 150.595 40.7216 147.836 32.0101 143.002C40.2282 147.267 49.5878 149.681 59.5179 149.681C92.1831 149.681 118.673 123.564 118.673 91.3361C118.673 59.1079 92.1831 32.9913 59.5179 32.9913C53.3459 32.9913 47.3943 33.9237 41.8003 35.6535C47.9715 33.5487 54.6 32.4052 61.5005 32.4052ZM117.863 91.3361C117.863 59.566 91.7462 33.8016 59.5179 33.8016C43.7124 33.8016 29.3769 39.9983 18.8709 50.0612C29.1272 40.7223 42.8374 35.0171 57.8969 35.0171C89.6669 35.0171 115.431 60.408 115.431 91.7413C115.431 123.075 89.6669 148.465 57.8969 148.465C52.9185 148.465 48.0876 147.842 43.4801 146.67C48.5754 148.103 53.9557 148.871 59.5179 148.871C91.7462 148.871 117.863 123.106 117.863 91.3361Z" fill="url(#paint2_linear)"/>
<defs>
<linearGradient id="paint0_linear" x1="4.00879" y1="90.4897" x2="108.951" y2="93.6873" gradientUnits="userSpaceOnUse">
<stop stop-color="#463056"/>
<stop offset="1" stop-color="#C97DFF"/>
</linearGradient>
<linearGradient id="paint1_linear" x1="0.362304" y1="85.8662" x2="177.828" y2="91.3361" gradientUnits="userSpaceOnUse">
<stop stop-color="#BF67FD"/>
<stop offset="1" stop-color="#463155"/>
</linearGradient>
<linearGradient id="paint2_linear" x1="0.362304" y1="85.8662" x2="177.828" y2="91.3361" gradientUnits="userSpaceOnUse">
<stop stop-color="#BF67FD"/>
<stop offset="1" stop-color="#463155"/>
</linearGradient>
</defs>
</svg>
