<svg width="175" height="48" viewBox="0 0 175 48" fill="none" xmlns="http://www.w3.org/2000/svg">
<g clip-path="url(#clip0)">
<path d="M63.9535 18.3678C63.5335 18.227 62.6468 18.133 61.76 18.133C59.0995 18.133 56.2524 20.3005 56.2524 22.976V35.7355H50.1851V12.9697H56.0191V15.2697C57.3726 13.5799 59.8462 12.5002 62.6 12.5002C63.2886 12.5052 63.9755 12.568 64.6537 12.688L63.9535 18.3678Z" fill="#505A63"/>
<path d="M70.8139 1C73.0076 1 74.7812 2.68983 74.7812 4.89605C74.7812 7.10226 73.0076 8.79196 70.8139 8.79196C68.6202 8.79196 66.8467 7.10226 66.8467 4.89605C66.8467 2.68983 68.6203 1 70.8139 1ZM73.8476 35.7356H67.7802V12.9697H73.8476V35.7355V35.7356Z" fill="#505A63"/>
<path d="M91.7708 12.4991C89.3628 12.4685 87.0194 13.2825 85.1435 14.8013V12.9695H79.3081V47H85.3761V34.1399C87.1018 35.511 89.2452 36.2407 91.4441 36.2057C94.8048 36.2057 98.0244 34.7024 100.031 32.3554C101.806 30.2896 102.877 27.4747 102.877 24.3761C102.877 17.6636 97.9304 12.4991 91.7708 12.4991ZM91.0333 30.6655C87.2643 30.6655 84.7871 28.0496 84.7871 24.396C84.7871 20.7423 87.2643 18.1265 91.0333 18.1265C94.2505 18.1265 96.8589 20.9339 96.8589 24.396C96.8589 27.858 94.2505 30.6655 91.0333 30.6655Z" fill="#505A63"/>
<path d="M139.703 35.7356H133.635V2.4082H139.703V35.7357V35.7356Z" fill="#505A63"/>
<path d="M164.44 32.1211C162.246 34.7498 158.652 36.2049 155.152 36.2049C148.384 36.2049 143.297 31.5111 143.297 24.3762C143.297 18.0392 147.591 12.5002 154.312 12.5002C160.566 12.5002 165 17.8044 165 24.1414C165.004 24.7233 164.957 25.3045 164.86 25.8782H149.178C149.504 29.07 152.072 31.2763 155.292 31.2763C157.859 31.2763 159.913 29.8211 160.986 28.6476L164.44 32.1211ZM158.792 21.4189C158.606 19.4005 156.786 17.429 154.312 17.429C151.791 17.429 149.738 19.3536 149.458 21.4189H158.792Z" fill="#505A63"/>
<path d="M118.935 12.4991C116.527 12.4685 114.184 13.2825 112.308 14.8013V12.9695H106.472V47H112.54V34.1399C114.266 35.511 116.409 36.2407 118.608 36.2057C121.969 36.2057 125.189 34.7024 127.196 32.3554C128.97 30.2896 130.041 27.4747 130.041 24.3761C130.041 17.6636 125.094 12.4991 118.935 12.4991ZM118.197 30.6655C114.428 30.6655 111.951 28.0496 111.951 24.396C111.951 20.7423 114.428 18.1264 118.197 18.1264C121.415 18.1264 124.023 20.9339 124.023 24.3959C124.023 27.858 121.415 30.6655 118.197 30.6655Z" fill="#505A63"/>
<path d="M37.6768 27.4414C36.3069 26.6459 34.7642 26.4154 33.2361 26.3617C31.954 26.3167 30.0413 25.4904 30.0413 23.1448C30.0413 21.3972 31.4499 19.9908 33.2368 19.928C34.7647 19.8743 36.3073 19.6435 37.6768 18.8482C38.907 18.1339 39.9286 17.1065 40.6389 15.8692C41.3491 14.632 41.7231 13.2285 41.7231 11.7998C41.7231 10.3712 41.3491 8.96767 40.6388 7.73043C39.9286 6.49318 38.907 5.46576 37.6767 4.75145C36.4465 4.03714 35.051 3.6611 33.6305 3.66113C32.2099 3.66116 30.8144 4.03726 29.5842 4.75162C28.354 5.46598 27.3325 6.49343 26.6222 7.73071C25.912 8.96798 25.5381 10.3715 25.5382 11.8001C25.5382 13.377 26.0958 14.8281 26.8074 16.174C27.4058 17.306 27.7086 19.4069 25.6561 20.5987C24.1292 21.4853 22.2237 20.9239 21.2719 19.3919C20.4679 18.098 19.4974 16.8856 18.1386 16.0965C16.9084 15.3821 15.5129 15.0061 14.0924 15.0061C12.6719 15.0061 11.2764 15.3821 10.0462 16.0964C8.81601 16.8108 7.79444 17.8382 7.08418 19.0754C6.37392 20.3127 6 21.7161 6 23.1448C6 24.5734 6.37392 25.9769 7.08418 27.2141C7.79444 28.4514 8.81601 29.4788 10.0462 30.1931C11.2764 30.9074 12.6719 31.2835 14.0924 31.2835C15.5129 31.2835 16.9084 30.9074 18.1386 30.1931C19.497 29.4042 20.4677 28.1926 21.2711 26.8995C21.9309 25.8376 23.5787 24.484 25.656 25.6911C27.1805 26.577 27.6518 28.5179 26.8067 30.1166C26.0952 31.4623 25.5383 32.9131 25.5383 34.4897C25.5383 35.9183 25.9122 37.3218 26.6225 38.559C27.3327 39.7962 28.3543 40.8236 29.5844 41.5379C30.8146 42.2522 32.2101 42.6283 33.6306 42.6283C35.0511 42.6283 36.4466 42.2522 37.6768 41.5379C38.907 40.8236 39.9285 39.7962 40.6388 38.559C41.349 37.3218 41.7229 35.9183 41.7229 34.4897C41.723 33.0611 41.349 31.6576 40.6388 30.4204C39.9286 29.1832 38.907 28.1558 37.6768 27.4414Z" fill="url(#paint0_linear)"/>
</g>
<defs>
<linearGradient id="paint0_linear" x1="16.0746" y1="9.64099" x2="43.0817" y2="36.4945" gradientUnits="userSpaceOnUse">
<stop stop-color="#00AAE4"/>
<stop offset="1" stop-color="#006097"/>
</linearGradient>
<clipPath id="clip0">
<rect width="159" height="46" fill="white" transform="translate(6 1)"/>
</clipPath>
</defs>
</svg>
