<svg width="180" height="180" viewBox="0 0 180 180" fill="none" xmlns="http://www.w3.org/2000/svg">
<path fill-rule="evenodd" clip-rule="evenodd" d="M1.7598 90.081C1.7598 41.3032 41.302 1.76103 90.0798 1.76103C138.858 1.76103 178.4 41.3032 178.4 90.081C178.4 132.762 148.125 168.371 107.879 176.607C102.13 177.783 96.177 178.401 90.0798 178.401C41.302 178.401 1.7598 138.859 1.7598 90.081ZM90.0798 0.801025C46.9353 0.801025 10.9387 31.4046 2.61366 72.088C1.42437 77.8999 0.799805 83.9175 0.799805 90.081C0.799805 94.6383 1.14126 99.1159 1.79999 103.49C8.26841 146.436 45.3291 179.361 90.0798 179.361C139.388 179.361 179.36 139.389 179.36 90.081C179.36 43.8548 144.228 5.834 99.2082 1.26197C96.2068 0.957166 93.1616 0.801025 90.0798 0.801025ZM90.0798 9.31451C91.5368 9.23904 93.0037 9.20083 94.4797 9.20083C140.025 9.20083 176.96 45.5845 176.96 90.4808C176.96 135.377 140.025 171.761 94.4797 171.761C93.0037 171.761 91.5368 171.723 90.0798 171.647C88.6228 171.723 87.1559 171.761 85.6799 171.761C40.1342 171.761 3.19991 135.377 3.19991 90.4808C3.19991 45.5845 40.1342 9.20083 85.6799 9.20083C87.1559 9.20083 88.6228 9.23904 90.0798 9.31451ZM80.9066 10.2962C38.1001 12.7312 4.1599 47.7062 4.1599 90.4808C4.1599 133.255 38.1002 168.231 80.9067 170.665C68.4737 168.637 56.9788 163.868 47.083 157.009C22.4801 144.692 5.59993 119.349 5.59993 90.0811C5.59993 59.1426 24.4626 32.5887 51.3707 21.173C60.2452 15.8012 70.23 12.0383 80.9066 10.2962ZM90.0798 170.686C76.6257 169.981 64.0382 166.062 53.093 159.695C61.6903 163.093 71.0659 164.961 80.8799 164.961C83.9943 164.961 87.0646 164.773 90.0798 164.408C93.0951 164.773 96.1653 164.961 99.2797 164.961C109.094 164.961 118.469 163.093 127.067 159.695C116.121 166.062 103.534 169.981 90.0798 170.686ZM80.8799 164.001C82.6408 164.001 84.3873 163.94 86.1175 163.82C78.6504 162.511 71.5627 160.106 65.0281 156.779C51.3927 154.455 39.1391 148.123 29.5471 139.05C34.6242 145.629 40.7078 151.413 47.572 156.18C57.5907 161.184 68.9044 164.001 80.8799 164.001ZM25.8078 133.78C35.125 144.425 47.7872 152.117 62.1745 155.248C59.2126 153.576 56.3759 151.71 53.6819 149.667C38.7792 144.84 26.3608 134.305 18.8746 120.574C20.7757 125.206 23.1027 129.624 25.8078 133.78ZM15.5732 110.732C21.5056 127.899 34.6953 141.552 51.3645 147.837C47.6893 144.817 44.3072 141.457 41.2669 137.804C24.9762 128.417 13.9995 110.739 13.9995 90.4809C13.9995 70.7454 24.4172 53.4585 40.0171 43.9003C43.1312 39.9519 46.6355 36.3226 50.4722 33.0697C34.6561 39.33 22.0822 52.2613 16.0515 68.4954C14.0376 75.4828 12.9597 82.8579 12.9597 90.4808C12.9597 97.476 13.8674 104.263 15.5732 110.732ZM38.312 46.1475C24.2206 55.7708 14.9595 72.035 14.9595 90.4809C14.9595 109.443 24.746 126.099 39.5057 135.606C37.3612 132.824 35.4085 129.889 33.6673 126.819C23.3604 118.108 16.7995 104.972 16.7995 90.2812C16.7995 75.7956 23.1786 62.8212 33.238 54.111C34.7636 51.3456 36.4596 48.6864 38.312 46.1475ZM52.9034 135.55C46.0065 133.888 39.713 130.636 34.4182 126.196C33.0731 123.811 31.8572 121.345 30.7797 118.806C35.4751 123.789 41.3978 127.561 48.0531 129.615C49.5579 131.684 51.1778 133.665 52.9034 135.55ZM47.1197 128.299C40.2671 125.929 34.2655 121.675 29.7093 116.139C28.8089 113.763 28.0282 111.327 27.3743 108.841C31.2122 115.397 37.0238 120.507 43.9283 123.216C44.9179 124.959 45.9831 126.655 47.1197 128.299ZM43.1814 121.864C35.8533 118.653 29.8841 112.611 26.4747 105.003C25.7713 101.59 25.3044 98.0911 25.0918 94.5242C26.4453 104.269 32.3887 112.407 40.4803 116.225C41.295 118.151 42.197 120.033 43.1814 121.864ZM41.2205 115.506C44.1964 116.856 47.4601 117.601 50.8798 117.601C51.6944 117.601 52.5001 117.559 53.2952 117.476C52.2959 115.373 51.4088 113.204 50.6421 110.977C49.4249 111.229 48.1672 111.361 46.8799 111.361C44.1148 111.361 41.4861 110.752 39.1027 109.653C39.7186 111.645 40.4262 113.598 41.2205 115.506ZM46.8799 110.401C48.0593 110.401 49.2138 110.284 50.3338 110.059C49.6354 107.924 49.0469 105.738 48.5753 103.507C47.005 104.186 45.2852 104.561 43.48 104.561C41.3014 104.561 39.2472 104.015 37.4301 103.047C37.7899 104.858 38.2237 106.642 38.7282 108.397C41.1949 109.682 43.9614 110.401 46.8799 110.401ZM37.1952 101.802C39.045 102.947 41.1933 103.601 43.48 103.601C45.2162 103.601 46.8726 103.224 48.3791 102.541C47.6054 98.5773 47.1996 94.4775 47.1996 90.2811C47.1996 86.0846 47.6054 81.9848 48.3791 78.0206C46.8726 77.3381 45.2162 76.961 43.48 76.961C41.1607 76.961 38.9839 77.634 37.1164 78.8087C36.4873 82.473 36.1596 86.239 36.1596 90.0808C36.1596 94.0799 36.5147 97.9968 37.1952 101.802ZM36.0153 79.5874C35.4783 83.0072 35.1996 86.5117 35.1996 90.0808C35.1996 93.8095 35.5038 97.4677 36.0889 101.032C32.9839 98.6133 30.96 94.7073 30.96 90.281C30.96 85.8898 32.9519 82.0105 36.0153 79.5874ZM36.2428 78.2303C32.4836 80.77 30 85.2282 30 90.281C30 95.3708 32.5201 99.8573 36.3256 102.387C36.66 104.191 37.0665 105.971 37.5422 107.722C31.9423 104.252 28.1599 97.754 28.1599 90.2813C28.1599 82.866 31.8843 76.4109 37.4134 72.9212C36.9538 74.6645 36.5626 76.4352 36.2428 78.2303ZM37.3428 77.5622C37.688 75.76 38.1063 73.9834 38.5947 72.2357C41.0949 70.9071 43.9086 70.1613 46.8799 70.1613C48.0592 70.1613 49.2138 70.2788 50.3337 70.5036C49.6354 72.6383 49.047 74.8246 48.5754 77.0552C47.0051 76.3758 45.2852 76.001 43.48 76.001C41.2665 76.001 39.1813 76.5646 37.3428 77.5622ZM49.2701 78.4692C48.5414 82.2912 48.1596 86.2404 48.1596 90.2811C48.1596 94.3217 48.5414 98.2709 49.2701 102.093C53.2624 99.8733 56 95.429 56 90.281C56 85.133 53.2624 80.6887 49.2701 78.4692ZM49.4666 103.08C53.9158 100.74 56.96 95.8751 56.96 90.281C56.96 84.6869 53.9158 79.8215 49.4667 77.4817C49.9449 75.177 50.5495 72.9201 51.2729 70.7192C54.6011 71.5803 57.5874 73.3979 59.9612 75.8894C58.6827 80.5335 57.9995 85.4269 57.9995 90.4809C57.9995 95.4222 58.6526 100.21 59.8766 104.761C57.5166 107.208 54.5617 108.992 51.273 109.843C50.5496 107.642 49.9448 105.385 49.4666 103.08ZM54.2984 117.35C53.2724 115.219 52.3638 113.018 51.5812 110.757C54.8428 109.901 57.7814 108.176 60.1742 105.825C60.9997 108.664 62.0484 111.406 63.2997 114.032C60.5751 115.72 57.5332 116.87 54.2984 117.35ZM64.1126 113.505C62.8296 110.797 61.7659 107.963 60.9447 105.026C64.4213 101.22 66.5599 96.0111 66.5599 90.2813C66.5599 84.5988 64.4566 79.429 61.0308 75.6312C61.8709 72.694 62.954 69.8606 64.2568 67.1545C67.4671 69.3551 70.1895 72.3249 72.2022 75.8289C70.772 80.3862 70.0001 85.2423 70.0001 90.2812C70.0001 95.32 70.7719 100.176 72.2021 104.733C70.1593 108.289 67.3856 111.295 64.1126 113.505ZM65.5999 90.2813C65.5999 85.0576 63.7516 80.3105 60.7263 76.7408C59.5737 81.1254 58.9595 85.7308 58.9595 90.4809C58.9595 95.1206 59.5455 99.6223 60.6468 103.915C63.7192 100.335 65.5999 95.5505 65.5999 90.2813ZM63.4475 66.6226C62.1768 69.2463 61.1092 71.9881 60.2652 74.8272C57.8561 72.4309 54.8842 70.6721 51.5811 69.8057C52.3638 67.5439 53.2725 65.3431 54.2985 63.2122C57.5919 63.7003 60.6853 64.8835 63.4475 66.6226ZM53.2954 63.0858C52.2959 65.189 51.4088 67.3582 50.6419 69.5854C49.4248 69.3333 48.1671 69.2013 46.8799 69.2013C44.0595 69.2013 41.3812 69.8353 38.9601 70.9763C39.557 68.9935 40.2443 67.0494 41.0175 65.1487C44.0477 63.74 47.3822 62.9609 50.8798 62.9609C51.6944 62.9609 52.5002 63.0032 53.2954 63.0858ZM39.7265 65.7966C38.9935 67.6861 38.3435 69.6164 37.781 71.5831C31.4834 75.1066 27.1999 82.172 27.1999 90.2813C27.1999 98.4499 31.5463 105.559 37.9196 109.056C38.5011 111.034 39.1712 112.973 39.9253 114.871C31.5518 110.451 25.7598 101.119 25.7598 90.2809C25.7598 79.5292 31.4603 70.2592 39.7265 65.7966ZM41.7705 116.79C44.6043 117.935 47.673 118.561 50.8798 118.561C51.8467 118.561 52.801 118.504 53.7402 118.393C54.7567 120.445 55.8811 122.432 57.1057 124.346C56.5013 124.383 55.8925 124.401 55.2797 124.401C51.5338 124.401 47.9365 123.711 44.5942 122.441C43.5666 120.609 42.6237 118.723 41.7705 116.79ZM54.7426 118.253C55.7833 120.327 56.9361 122.333 58.1927 124.261C61.5555 123.935 64.7694 123.052 67.7518 121.697C66.2529 119.541 64.905 117.27 63.7237 114.901C60.9997 116.576 57.9688 117.735 54.7426 118.253ZM64.5367 114.38C67.7551 112.23 70.5083 109.344 72.5988 105.941C73.7309 109.238 75.2106 112.37 76.9932 115.29C74.534 117.73 71.7149 119.76 68.6316 121.281C67.1027 119.095 65.7321 116.789 64.5367 114.38ZM73.2428 104.838C74.3567 108.281 75.855 111.547 77.6859 114.582C79.995 112.15 81.9595 109.344 83.4933 106.256C81.5006 101.401 80.4 96.0717 80.4 90.4809C80.4 84.8067 81.5337 79.4016 83.5831 74.4889C82.0365 71.3285 80.0403 68.4603 77.6859 65.9805C75.855 69.0155 74.3568 72.2809 73.2429 75.724C75.6036 79.9804 76.9598 84.9628 76.9598 90.2809C76.9598 95.5991 75.6036 100.582 73.2428 104.838ZM72.8458 77.015C71.6189 81.2188 70.9601 85.6715 70.9601 90.2812C70.9601 94.8908 71.6189 99.3434 72.8457 103.547C74.8543 99.6225 75.9998 95.1006 75.9998 90.2809C75.9998 85.4614 74.8543 80.9395 72.8458 77.015ZM72.5989 74.6213C73.731 71.3241 75.2107 68.1926 76.9932 65.2722C74.5895 62.8873 71.842 60.8938 68.8399 59.3856C67.291 61.5681 65.9008 63.8728 64.6863 66.2825C67.8406 68.4212 70.5408 71.2705 72.5989 74.6213ZM63.877 65.7556C65.0772 63.3858 66.4446 61.1161 67.9635 58.9624C64.9216 57.5528 61.6351 56.6348 58.1926 56.3015C56.9361 58.2297 55.7834 60.2348 54.7428 62.3086C58.0296 62.8371 61.1136 64.0298 63.877 65.7556ZM53.7403 62.1688C54.7568 60.1167 55.8811 58.1299 57.1056 56.2162C56.5012 56.1797 55.8925 56.1612 55.2797 56.1612C51.4279 56.1612 47.7332 56.8915 44.3113 58.2302C43.3082 60.0567 42.3887 61.9347 41.5579 63.8594C44.4506 62.659 47.5926 62.0009 50.8798 62.0009C51.8467 62.0009 52.8011 62.0579 53.7403 62.1688ZM40.2712 64.4368C41.0637 62.5197 41.9423 60.6467 42.9023 58.8225C35.5956 62.1116 29.6682 68.2251 26.3275 75.8925C25.6635 79.2895 25.2334 82.7695 25.0545 86.3153C26.3219 76.532 32.2101 68.3328 40.2712 64.4368ZM23.9997 90.0811C23.9997 87.023 24.184 84.0077 24.5421 81.0457C23.7718 83.982 23.3597 87.0794 23.3597 90.2812C23.3597 93.6127 23.8059 96.8311 24.6375 99.8727C24.2168 96.6681 23.9997 93.3998 23.9997 90.0811ZM22.3997 90.2812C22.3997 85.0485 23.4748 80.0797 25.4033 75.6151C25.9086 73.0474 26.5458 70.5267 27.3076 68.0603C23.049 74.4503 20.5597 82.1678 20.5597 90.4809C20.5597 99.1042 23.2382 107.087 27.7914 113.611C26.8909 110.903 26.1416 108.126 25.5534 105.29C23.5306 100.737 22.3997 95.6482 22.3997 90.2812ZM29.171 65.4911C28.4122 67.6313 27.7496 69.8168 27.1885 72.0422C30.9704 65.4249 36.7492 60.2447 43.6383 57.4622C44.5016 55.9094 45.4247 54.3938 46.4044 52.9185C39.5784 55.4312 33.6329 59.8264 29.171 65.4911ZM55.2797 55.2012C56.096 55.2012 56.9052 55.2329 57.7063 55.2952C58.7871 53.6698 59.941 52.0995 61.1633 50.5891C60.671 50.5704 60.1764 50.5609 59.6797 50.5609C55.5818 50.5609 51.6306 51.2041 47.918 52.397C46.9004 53.868 45.9407 55.3813 45.0422 56.9339C48.2628 55.8095 51.7037 55.2012 55.2797 55.2012ZM62.3517 50.6526C61.0924 52.1728 59.9042 53.7567 58.7923 55.3988C62.2266 55.7876 65.5015 56.74 68.535 58.1672C69.8873 56.3209 71.3526 54.5637 72.9205 52.9059C69.584 51.6813 66.0377 50.9064 62.3517 50.6526ZM77.5145 64.4376C75.1152 62.0859 72.3871 60.1094 69.4112 58.596C70.7903 56.7256 72.2878 54.9491 73.8923 53.2776C76.9465 54.4935 79.8145 56.0898 82.4401 58.0096C80.6249 60.0012 78.9756 62.1515 77.5145 64.4376ZM78.2074 65.1365C80.5228 67.5409 82.5069 70.306 84.0804 73.3459C85.5108 70.1902 87.324 67.2518 89.4595 64.5928C87.5991 62.3667 85.5033 60.3518 83.2115 58.5883C81.3603 60.6112 79.684 62.8023 78.2074 65.1365ZM81.36 90.4809C81.36 85.2499 82.3456 80.2548 84.1375 75.6778C86.1007 80.1025 87.1997 85.0526 87.1997 90.2812C87.1997 95.583 86.0697 100.599 84.0545 105.07C82.3152 100.552 81.36 95.6306 81.36 90.4809ZM88.1597 90.2812C88.1597 96.0429 86.8563 101.485 84.5453 106.286C85.9722 109.659 87.842 112.792 90.0798 115.608C92.3176 112.792 94.1875 109.659 95.6144 106.286C93.3033 101.485 91.9999 96.0429 91.9999 90.2812C91.9999 84.5947 93.2695 79.22 95.5244 74.4652C94.1092 71.1717 92.2709 68.1108 90.0798 65.3539C87.8887 68.1108 86.0504 71.1717 84.6353 74.4652C86.8901 79.22 88.1597 84.5947 88.1597 90.2812ZM78.2074 115.426C80.4758 113.07 82.4261 110.369 83.984 107.402C85.4289 110.639 87.2757 113.65 89.4595 116.369C87.6574 118.525 85.6344 120.484 83.4262 122.207C81.4897 120.12 79.7409 117.85 78.2074 115.426ZM82.6588 122.791C80.7572 120.733 79.034 118.502 77.5145 116.125C75.0579 118.533 72.2566 120.547 69.1976 122.074C70.6353 124.052 72.2046 125.926 73.8923 127.684C77.0316 126.434 79.974 124.783 82.6588 122.791ZM72.9206 128.056C71.2684 126.309 69.7302 124.452 68.3181 122.496C65.3456 123.867 62.145 124.784 58.7924 125.164C59.9964 126.942 61.2899 128.652 62.6663 130.286C66.2395 130.011 69.6791 129.246 72.9206 128.056ZM55.2797 125.361C56.096 125.361 56.9053 125.33 57.7065 125.267C58.8796 127.032 60.139 128.731 61.4785 130.359C60.8823 130.387 60.2826 130.401 59.6797 130.401C55.8468 130.401 52.1422 129.838 48.6411 128.789C47.4652 127.156 46.3617 125.468 45.3353 123.729C48.4713 124.789 51.8119 125.361 55.2797 125.361ZM49.5712 130.05C51.121 132.1 52.787 134.058 54.5596 135.916C57.4447 136.497 60.4273 136.801 63.4796 136.801C64.8052 136.801 66.1178 136.744 67.4149 136.631C65.59 134.955 63.8648 133.167 62.2493 131.278C61.3997 131.333 60.5429 131.361 59.6797 131.361C56.1876 131.361 52.8001 130.906 49.5712 130.05ZM63.4368 131.184C65.0834 133.065 66.8419 134.841 68.7014 136.501C72.4243 136.07 76.0119 135.184 79.4088 133.9C77.3704 132.341 75.4452 130.639 73.6477 128.81C70.4203 130.034 66.9963 130.846 63.4368 131.184ZM63.1151 49.749C66.79 50.0671 70.3232 50.8908 73.6477 52.1516C75.5477 50.2183 77.5904 48.4276 79.7587 46.7969C76.2585 45.4394 72.5523 44.5069 68.7012 44.0614C66.7201 45.8304 64.8537 47.7307 63.1151 49.749ZM61.9268 49.6641C63.6345 47.6351 65.4679 45.7199 67.4147 43.9312C66.1176 43.8186 64.8052 43.7612 63.4796 43.7612C60.2611 43.7612 57.1202 44.0997 54.0892 44.7435C52.2069 46.7568 50.4483 48.8854 48.8256 51.1174C52.2773 50.1294 55.9177 49.6009 59.6797 49.6009C60.4338 49.6009 61.183 49.6222 61.9268 49.6641ZM47.3142 51.5833C48.8905 49.3281 50.6015 47.1724 52.4356 45.1277C45.5385 46.8686 39.2588 50.2029 33.9963 54.725C32.5691 57.3264 31.2945 60.0226 30.1845 62.8015C34.7997 57.6876 40.6772 53.7765 47.3142 51.5833ZM28.3179 65.0236C29.3467 62.1411 30.5479 59.34 31.9093 56.6323C23.1917 65.1021 17.7596 77.0443 17.7596 90.2812C17.7596 103.719 23.3583 115.823 32.3095 124.314C31.0229 121.829 29.8719 119.263 28.8665 116.625C23.0796 109.537 19.5997 100.422 19.5997 90.4809C19.5997 80.8581 22.8604 72.0091 28.3179 65.0236ZM83.0987 57.3015C80.4902 55.3826 77.6462 53.7758 74.6192 52.5349C76.541 50.609 78.6083 48.8303 80.8029 47.217C83.7922 48.4632 86.6231 50.0224 89.2561 51.8544C87.0498 53.4864 84.9894 55.3101 83.0987 57.3015ZM90.0798 63.839C88.2237 61.6375 86.1416 59.6398 83.8702 57.8834C85.7741 55.8876 87.8523 54.0651 90.0798 52.4412C92.3073 54.0651 94.3855 55.8876 96.2895 57.8834C94.018 59.6398 91.9359 61.6375 90.0798 63.839ZM96.0792 73.3459C94.6488 70.1902 92.8356 67.2518 90.7002 64.5928C92.5605 62.3667 94.6563 60.3518 96.9481 58.5883C98.7994 60.6112 100.476 62.8023 101.952 65.1365C99.6368 67.541 97.6527 70.306 96.0792 73.3459ZM96.0221 75.6778C94.0589 80.1025 92.9599 85.0526 92.9599 90.2812C92.9599 95.583 94.0899 100.599 96.1051 105.07C97.8444 100.552 98.7997 95.6306 98.7997 90.4809C98.7997 85.2499 97.814 80.2548 96.0221 75.6778ZM96.6664 106.256C98.659 101.401 99.7597 96.0717 99.7597 90.4809C99.7597 84.8067 98.6259 79.4016 96.5765 74.4889C98.1231 71.3285 100.119 68.4603 102.474 65.9805C104.305 69.0156 105.803 72.2809 106.917 75.724C104.556 79.9804 103.2 84.9628 103.2 90.2809C103.2 95.5991 104.556 100.582 106.917 104.838C105.803 108.281 104.305 111.547 102.474 114.582C100.165 112.15 98.2001 109.344 96.6664 106.256ZM96.1757 107.402C94.7307 110.639 92.8839 113.65 90.7002 116.369C92.5022 118.525 94.5253 120.484 96.7334 122.207C98.6699 120.12 100.419 117.85 101.952 115.426C99.6839 113.07 97.7335 110.369 96.1757 107.402ZM90.0798 117.123C88.2836 119.253 86.2758 121.193 84.0897 122.908C85.9335 124.814 87.9376 126.56 90.0798 128.121C92.222 126.56 94.2262 124.814 96.07 122.908C93.8838 121.193 91.876 119.253 90.0798 117.123ZM83.3223 123.495C80.653 125.487 77.7329 127.15 74.6192 128.427C76.4396 130.251 78.3906 131.943 80.4567 133.488C83.5738 132.219 86.5216 130.611 89.2561 128.708C87.1364 127.14 85.1514 125.395 83.3223 123.495ZM54.0743 136.797C47.3287 135.394 41.1138 132.511 35.7711 128.496C37.61 131.497 39.6578 134.357 41.8945 137.057C47.8714 140.476 54.5709 142.76 61.7045 143.619C58.9911 141.536 56.4403 139.255 54.0743 136.797ZM63.5594 143.81C60.7772 141.776 58.1586 139.535 55.7268 137.109C58.2482 137.538 60.8382 137.761 63.4796 137.761C65.1358 137.761 66.7718 137.674 68.3833 137.502C70.8385 139.664 73.4642 141.63 76.2371 143.374C73.5778 143.787 70.8535 144.001 68.0795 144.001C66.557 144.001 65.0495 143.936 63.5594 143.81ZM80.3167 134.579C76.9402 135.908 73.3737 136.848 69.6698 137.348C72.1725 139.489 74.8486 141.425 77.6732 143.13C81.588 142.411 85.3531 141.259 88.9179 139.726C85.8849 138.275 83.0072 136.549 80.3167 134.579ZM90.0795 139.209C87.0065 137.799 84.0902 136.102 81.3643 134.152C84.4507 132.849 87.3698 131.218 90.0798 129.304C92.7897 131.218 95.7087 132.849 98.795 134.152C96.069 136.101 93.1527 137.799 90.0795 139.209ZM99.7026 133.488C96.5856 132.219 93.6379 130.611 90.9035 128.708C93.0232 127.14 95.0082 125.395 96.8374 123.495C99.5065 125.487 102.426 127.15 105.54 128.427C103.72 130.251 101.769 131.943 99.7026 133.488ZM106.267 127.684C103.128 126.434 100.185 124.783 97.5008 122.791C99.4025 120.733 101.126 118.502 102.645 116.125C105.102 118.533 107.903 120.547 110.962 122.074C109.524 124.051 107.955 125.926 106.267 127.684ZM111.528 121.28C108.444 119.76 105.625 117.73 103.166 115.29C104.949 112.37 106.429 109.238 107.561 105.941C109.651 109.344 112.404 112.23 115.623 114.38C114.427 116.789 113.056 119.095 111.528 121.28ZM116.047 113.505C112.774 111.295 110 108.289 107.958 104.733C109.388 100.176 110.16 95.32 110.16 90.2812C110.16 85.2423 109.388 80.3862 107.957 75.8289C109.97 72.3251 112.692 69.3554 115.902 67.1548C117.205 69.861 118.288 72.6944 119.128 75.6317C115.703 79.4294 113.6 84.5991 113.6 90.2813C113.6 96.0109 115.738 101.219 119.215 105.026C118.393 107.962 117.33 110.797 116.047 113.505ZM109.2 90.2812C109.2 85.6715 108.541 81.2187 107.314 77.015C105.305 80.9395 104.16 85.4614 104.16 90.2809C104.16 95.1006 105.305 99.6225 107.314 103.547C108.541 99.3434 109.2 94.8908 109.2 90.2812ZM115.473 66.2828C112.319 68.4215 109.619 71.2707 107.561 74.6213C106.429 71.3241 104.949 68.1926 103.166 65.2722C105.57 62.8874 108.317 60.894 111.319 59.3858C112.868 61.5683 114.258 63.873 115.473 66.2828ZM110.748 58.5962C107.772 60.1096 105.044 62.0861 102.645 64.4376C101.184 62.1515 99.5348 60.0012 97.7196 58.0096C100.345 56.0899 103.213 54.4937 106.267 53.2777C107.871 54.9493 109.369 56.7258 110.748 58.5962ZM105.54 52.5351C102.513 53.776 99.6693 55.3827 97.0609 57.3015C95.1702 55.3101 93.1099 53.4864 90.9035 51.8544C93.5364 50.0225 96.3672 48.4634 99.3563 47.2171C101.551 48.8304 103.618 50.6091 105.54 52.5351ZM98.4435 46.5608C95.4869 47.8383 92.6866 49.417 90.0798 51.2589C87.4729 49.4169 84.6725 47.8382 81.7157 46.5607C84.3404 44.7153 87.1381 43.1027 90.0795 41.7525C93.021 43.1027 95.8188 44.7154 98.4435 46.5608ZM88.9179 41.2361C86.0179 42.6228 83.26 44.2617 80.6719 46.1249C77.1906 44.7214 73.5037 43.7315 69.6696 43.2149C72.0224 41.202 74.5284 39.3704 77.167 37.7411C81.2636 38.4526 85.1997 39.6369 88.9179 41.2361ZM75.7289 37.5117C73.1429 39.1744 70.6879 41.0304 68.3831 43.06C66.7716 42.8889 65.1357 42.8012 63.4796 42.8012C60.6697 42.8012 57.9181 43.0537 55.2452 43.5375C57.4547 41.2886 59.823 39.1937 62.3322 37.2705C64.2201 37.0659 66.1377 36.9609 68.0795 36.9609C70.677 36.9609 73.231 37.1488 75.7289 37.5117ZM60.4802 37.5045C58.0401 39.4676 55.7393 41.5943 53.5948 43.8677C46.8453 45.3476 40.6394 48.3119 35.3229 52.4076C36.9392 49.6989 38.7245 47.1016 40.6644 44.6303C46.6092 41.0143 53.3141 38.5388 60.4802 37.5045ZM43.6481 139.098C46.8192 142.656 50.3301 145.907 54.1301 148.802C59.7976 150.621 65.8273 151.601 72.08 151.601C73.005 151.601 73.9251 151.58 74.8399 151.537C70.7255 149.65 66.8326 147.369 63.2104 144.743C56.222 144.115 49.6164 142.148 43.6481 139.098ZM65.0626 144.878C66.0612 144.933 67.0671 144.961 68.0795 144.961C71.2886 144.961 74.4323 144.679 77.4877 144.139C80.955 146.205 84.64 147.93 88.499 149.27C84.7721 150.355 80.8973 151.079 76.9129 151.405C72.7265 149.621 68.7594 147.428 65.0626 144.878ZM78.9246 143.865C82.4403 145.873 86.1739 147.529 90.0798 148.786C93.9857 147.529 97.7192 145.873 101.235 143.865C97.3486 143.068 93.614 141.852 90.0795 140.264C86.5452 141.852 82.8107 143.068 78.9246 143.865ZM91.2411 139.726C94.8061 141.259 98.5714 142.411 102.486 143.13C105.311 141.425 107.987 139.489 110.49 137.348C106.786 136.848 103.219 135.908 99.8425 134.579C97.152 136.549 94.2742 138.275 91.2411 139.726ZM100.75 133.899C104.147 135.184 107.735 136.07 111.458 136.501C113.318 134.841 115.076 133.065 116.723 131.184C113.163 130.846 109.739 130.034 106.511 128.81C104.714 130.639 102.789 132.34 100.75 133.899ZM107.239 128.056C110.48 129.246 113.92 130.011 117.493 130.286C118.87 128.652 120.163 126.942 121.367 125.164C118.014 124.784 114.814 123.867 111.841 122.496C110.429 124.452 108.891 126.309 107.239 128.056ZM112.407 121.697C115.39 123.052 118.604 123.935 121.967 124.261C123.224 122.333 124.376 120.327 125.417 118.253C122.191 117.735 119.16 116.576 116.435 114.901C115.254 117.27 113.906 119.541 112.407 121.697ZM116.859 114.031C119.584 115.72 122.626 116.87 125.861 117.35C126.887 115.219 127.796 113.018 128.578 110.757C125.317 109.901 122.378 108.175 119.985 105.825C119.159 108.663 118.111 111.406 116.859 114.031ZM120.283 104.761C122.643 107.207 125.598 108.992 128.887 109.843C129.625 107.597 130.24 105.293 130.722 102.938C126.479 100.546 123.6 95.7603 123.6 90.281C123.6 84.8017 126.479 80.0158 130.722 77.6237C130.24 75.2697 129.625 72.9653 128.887 70.7192C125.558 71.5803 122.572 73.3981 120.198 75.8898C121.476 80.5338 122.16 85.4271 122.16 90.4809C122.16 95.422 121.507 100.21 120.283 104.761ZM119.433 76.7413C120.585 81.1257 121.2 85.731 121.2 90.4809C121.2 95.1204 120.614 99.6219 119.512 103.914C116.44 100.334 114.56 95.5502 114.56 90.2813C114.56 85.0579 116.408 80.3109 119.433 76.7413ZM119.894 74.8277C122.303 72.4311 125.275 70.6721 128.579 69.8057C127.796 67.5439 126.887 65.3431 125.861 63.2122C122.568 63.7003 119.474 64.8836 116.712 66.6229C117.982 69.2467 119.05 71.9885 119.894 74.8277ZM116.282 65.7559C119.046 64.0299 122.13 62.8371 125.417 62.3086C124.376 60.2348 123.224 58.2297 121.967 56.3015C118.524 56.6348 115.238 57.5529 112.196 58.9626C113.715 61.1163 115.082 63.386 116.282 65.7559ZM111.624 58.1674C114.658 56.7401 117.933 55.7876 121.367 55.3988C120.255 53.7567 119.067 52.1728 117.808 50.6526C114.122 50.9064 110.575 51.6814 107.239 52.906C108.807 54.5638 110.272 56.3211 111.624 58.1674ZM106.512 52.1518C109.836 50.8909 113.369 50.0671 117.045 49.749C115.306 47.7307 113.44 45.8304 111.458 44.0614C107.607 44.5069 103.901 45.4395 100.401 46.797C102.569 48.4278 104.612 50.2185 106.512 52.1518ZM99.4873 46.125C102.969 44.7215 106.656 43.7315 110.49 43.2149C108.137 41.2019 105.631 39.3703 102.992 37.741C98.8958 38.4525 94.9595 39.6368 91.2411 41.2361C94.1412 42.6228 96.8992 44.2618 99.4873 46.125ZM90.0795 40.6976C93.7695 39.0403 97.6777 37.787 101.749 36.9938C98.0837 34.8521 94.1765 33.0951 90.0798 31.7763C85.983 33.0951 82.0758 34.8522 78.4107 36.9938C82.4817 37.7871 86.3897 39.0403 90.0795 40.6976ZM76.9716 36.7338C80.5886 34.53 84.4479 32.6988 88.499 31.292C84.527 30.1363 80.3871 29.3895 76.1255 29.0987C71.7556 31.0269 67.6314 33.403 63.8121 36.168C65.2201 36.0573 66.6433 36.0009 68.0795 36.0009C71.1082 36.0009 74.0787 36.2517 76.9716 36.7338ZM61.9619 36.3456C65.7041 33.5006 69.7521 31.031 74.0485 28.9936C73.3949 28.972 72.7387 28.9611 72.08 28.9611C65.4949 28.9611 59.1571 30.0485 53.2292 32.0575C49.2607 35.1776 45.6199 38.6918 42.3666 42.5408C48.3144 39.2965 54.9341 37.1426 61.9619 36.3456ZM72.08 152.561C66.6682 152.561 61.4216 151.839 56.4274 150.484C59.2565 152.473 62.2316 154.27 65.3335 155.857C69.0221 156.478 72.8129 156.801 76.68 156.801C80.4041 156.801 84.0574 156.501 87.6169 155.925C83.867 155.041 80.2369 153.85 76.755 152.38C75.2121 152.5 73.653 152.561 72.08 152.561ZM90.0798 155.479C86.1956 154.702 82.4325 153.593 78.8221 152.184C82.6959 151.747 86.4601 150.939 90.0798 149.794C93.6996 150.939 97.4637 151.747 101.338 152.184C97.7271 153.593 93.9641 154.702 90.0798 155.479ZM103.247 151.405C99.2623 151.079 95.3876 150.355 91.6607 149.27C95.5196 147.93 99.2045 146.205 102.672 144.14C105.727 144.679 108.871 144.961 112.08 144.961C113.092 144.961 114.098 144.933 115.097 144.878C111.4 147.428 107.433 149.621 103.247 151.405ZM112.08 144.001C109.306 144.001 106.582 143.787 103.922 143.374C106.695 141.63 109.321 139.664 111.776 137.502C113.388 137.674 115.024 137.761 116.68 137.761C119.321 137.761 121.911 137.538 124.433 137.109C122.001 139.535 119.383 141.776 116.6 143.81C115.11 143.936 113.602 144.001 112.08 144.001ZM116.68 136.801C115.354 136.801 114.042 136.744 112.745 136.631C114.57 134.955 116.295 133.167 117.91 131.278C118.76 131.333 119.617 131.361 120.48 131.361C123.972 131.361 127.359 130.906 130.588 130.05C129.039 132.1 127.373 134.058 125.6 135.916C122.715 136.497 119.732 136.801 116.68 136.801ZM120.48 130.401C119.877 130.401 119.277 130.387 118.681 130.359C120.021 128.731 121.28 127.032 122.453 125.267C123.254 125.33 124.064 125.361 124.88 125.361C128.348 125.361 131.688 124.789 134.824 123.729C133.798 125.468 132.694 127.156 131.519 128.789C128.017 129.838 124.313 130.401 120.48 130.401ZM124.88 124.401C124.267 124.401 123.658 124.383 123.054 124.346C124.279 122.432 125.403 120.445 126.419 118.393C127.359 118.504 128.313 118.561 129.28 118.561C132.487 118.561 135.555 117.935 138.389 116.79C137.536 118.723 136.593 120.609 135.565 122.441C132.223 123.711 128.626 124.401 124.88 124.401ZM129.28 117.601C128.465 117.601 127.66 117.559 126.864 117.476C127.864 115.373 128.751 113.204 129.518 110.977C130.735 111.229 131.992 111.361 133.28 111.361C136.045 111.361 138.673 110.752 141.057 109.653C140.441 111.645 139.733 113.598 138.939 115.506C135.963 116.856 132.7 117.601 129.28 117.601ZM133.28 110.401C132.1 110.401 130.946 110.284 129.826 110.059C130.536 107.888 131.133 105.663 131.608 103.393C133.222 104.144 135.004 104.561 136.88 104.561C138.978 104.561 140.957 104.04 142.716 103.113C142.359 104.901 141.93 106.663 141.431 108.397C138.965 109.682 136.198 110.401 133.28 110.401ZM136.88 103.601C135.073 103.601 133.354 103.179 131.804 102.42C132.562 98.4936 132.96 94.4347 132.96 90.2811C132.96 86.1274 132.562 82.0684 131.804 78.1419C133.354 77.3829 135.073 76.961 136.88 76.961C139.115 76.961 141.218 77.6074 143.031 78.7394C143.668 82.4255 144 86.2148 144 90.0808C144 94.1041 143.641 98.0443 142.952 101.872C141.157 102.973 139.083 103.601 136.88 103.601ZM132 90.2811C132 86.2945 131.628 82.397 130.919 78.6229C127.136 80.8884 124.56 85.2454 124.56 90.281C124.56 95.3166 127.136 99.6736 130.919 101.939C131.628 98.165 132 94.2676 132 90.2811ZM136.88 76.001C135.004 76.001 133.222 76.4178 131.608 77.1687C131.133 74.8987 130.536 72.6745 129.826 70.5036C130.946 70.2788 132.1 70.1613 133.28 70.1613C136.251 70.1613 139.065 70.9071 141.565 72.2357C142.047 73.9619 142.461 75.7162 142.804 77.4956C141.023 76.5396 139.012 76.001 136.88 76.001ZM133.28 69.2013C131.993 69.2013 130.735 69.3333 129.518 69.5854C128.751 67.3582 127.864 65.189 126.864 63.0858C127.659 63.0032 128.465 62.9609 129.28 62.9609C132.777 62.9609 136.112 63.74 139.142 65.1487C139.915 67.0494 140.603 68.9935 141.2 70.9763C138.778 69.8353 136.1 69.2013 133.28 69.2013ZM129.28 62.0009C128.313 62.0009 127.358 62.0579 126.419 62.1688C125.403 60.1167 124.279 58.1299 123.054 56.2162C123.658 56.1797 124.267 56.1612 124.88 56.1612C128.732 56.1612 132.426 56.8914 135.848 58.2302C136.851 60.0567 137.771 61.9347 138.602 63.8594C135.709 62.659 132.567 62.0009 129.28 62.0009ZM124.88 55.2012C124.064 55.2012 123.254 55.2329 122.453 55.2952C121.373 53.6698 120.219 52.0995 118.996 50.5891C119.489 50.5704 119.983 50.5609 120.48 50.5609C124.578 50.5609 128.529 51.2041 132.242 52.397C133.259 53.868 134.219 55.3813 135.117 56.9339C131.897 55.8095 128.456 55.2012 124.88 55.2012ZM120.48 49.6009C119.726 49.6009 118.977 49.6222 118.233 49.6641C116.525 47.6351 114.692 45.7199 112.745 43.9312C114.042 43.8186 115.354 43.7612 116.68 43.7612C119.899 43.7612 123.039 44.0997 126.07 44.7435C127.953 46.7568 129.711 48.8854 131.334 51.1174C127.882 50.1294 124.242 49.6009 120.48 49.6009ZM116.68 42.8012C115.024 42.8012 113.388 42.8889 111.777 43.06C109.472 41.0304 107.017 39.1743 104.431 37.5117C106.928 37.1487 109.482 36.9609 112.08 36.9609C114.022 36.9609 115.939 37.0659 117.828 37.2706C120.337 39.1938 122.705 41.2886 124.914 43.5375C122.242 43.0537 119.49 42.8012 116.68 42.8012ZM112.08 36.0009C109.051 36.0009 106.081 36.2517 103.188 36.7337C99.571 34.5299 95.7117 32.6988 91.6606 31.292C95.6326 30.1363 99.7726 29.3895 104.034 29.0987C108.404 31.0269 112.528 33.403 116.348 36.1681C114.939 36.0573 113.516 36.0009 112.08 36.0009ZM102.133 28.2944C97.9787 28.7063 93.9468 29.5453 90.0798 30.7678C86.2128 29.5453 82.181 28.7063 78.0267 28.2944C81.8788 26.7341 85.9094 25.5173 90.0798 24.6825C94.2502 25.5173 98.2808 26.7341 102.133 28.2944ZM87.6169 24.2368C83.5787 25.1892 79.6795 26.497 75.9548 28.1252C74.6736 28.0429 73.3816 28.0011 72.08 28.0011C66.3345 28.0011 60.7754 28.8151 55.5067 30.3364C58.6094 28.0837 61.8941 26.0644 65.3349 24.3042C69.0231 23.6839 72.8135 23.3609 76.68 23.3609C80.404 23.3609 84.0574 23.6605 87.6169 24.2368ZM62.1759 24.9132C58.8764 26.7759 55.7322 28.8794 52.7675 31.1996C38.7204 36.0026 26.9566 45.9012 19.5693 58.7479C21.8481 53.5325 24.6716 48.6024 27.9692 44.0272C37.0424 34.6034 48.8717 27.8084 62.1759 24.9132ZM23.2199 49.5254C19.7757 55.3325 17.0415 61.5984 15.1347 68.2078C12.5919 75.0692 11.2 82.5094 11.2 90.2811C11.2 97.5443 12.4157 104.518 14.6503 111C16.2302 116.986 18.485 122.703 21.3298 128.069C13.7826 117.287 9.35999 104.195 9.35999 90.0808C9.35999 74.8257 14.5262 60.7653 23.2199 49.5254ZM27.2285 43.4125C15.5621 55.5543 8.4 71.9877 8.4 90.0808C8.4 107.013 14.6722 122.491 25.0384 134.359C29.5637 141.299 35.1312 147.517 41.5228 152.797C20.5252 139.734 6.55992 116.529 6.55992 90.0811C6.55992 61.9551 22.354 37.4961 45.6036 25.0025C38.5326 30.1366 32.3231 36.3564 27.2285 43.4125ZM31.954 38.9408C37.5913 32.3086 44.2955 26.5865 51.8067 22.031C60.7366 18.252 70.5626 16.1611 80.8799 16.1611C82.6407 16.1611 84.3872 16.222 86.1174 16.3418C78.6509 17.6515 71.5638 20.0558 65.0296 23.3822C52.5091 25.5158 41.1536 31.0291 31.954 38.9408ZM68.1929 22.9186C74.9961 19.7983 82.3543 17.6705 90.0798 16.7219C97.8054 17.6705 105.164 19.7983 111.967 22.9186C109.186 22.5769 106.354 22.4009 103.48 22.4009C98.8935 22.4009 94.4128 22.8491 90.0798 23.7037C85.7468 22.8491 81.2662 22.4009 76.68 22.4009C73.8061 22.4009 70.9735 22.5769 68.1929 22.9186ZM68.1913 157.243C70.9725 157.585 73.8055 157.761 76.68 157.761C81.2662 157.761 85.7468 157.313 90.0798 156.458C94.4128 157.313 98.8935 157.761 103.48 157.761C106.354 157.761 109.187 157.585 111.968 157.243C105.165 160.364 97.8059 162.492 90.0798 163.44C82.3537 162.492 74.995 160.364 68.1913 157.243ZM92.5427 155.925C96.1022 156.501 99.7556 156.801 103.48 156.801C107.347 156.801 111.138 156.478 114.826 155.857C117.928 154.27 120.903 152.473 123.732 150.484C118.738 151.839 113.491 152.561 108.08 152.561C106.507 152.561 104.948 152.5 103.405 152.38C99.9228 153.85 96.2927 155.041 92.5427 155.925ZM105.32 151.537C106.235 151.58 107.155 151.601 108.08 151.601C114.332 151.601 120.362 150.621 126.03 148.802C129.83 145.907 133.341 142.655 136.512 139.097C130.544 142.147 123.938 144.115 116.949 144.743C113.327 147.369 109.434 149.65 105.32 151.537ZM118.455 143.619C125.589 142.76 132.289 140.475 138.266 137.057C140.502 134.357 142.55 131.497 144.389 128.496C139.046 132.511 132.831 135.394 126.085 136.797C123.719 139.255 121.169 141.536 118.455 143.619ZM127.256 135.55C134.153 133.888 140.447 130.636 145.741 126.196C147.087 123.811 148.302 121.345 149.38 118.806C144.685 123.789 138.762 127.561 132.107 129.615C130.602 131.684 128.982 133.665 127.256 135.55ZM133.04 128.299C139.893 125.929 145.894 121.675 150.45 116.139C151.351 113.763 152.131 111.327 152.785 108.841C148.947 115.397 143.136 120.507 136.231 123.216C135.242 124.959 134.177 126.655 133.04 128.299ZM136.978 121.864C144.306 118.653 150.276 112.611 153.685 105.003C154.388 101.59 154.855 98.0911 155.068 94.5241C153.714 104.269 147.771 112.407 139.679 116.225C138.865 118.151 137.963 120.033 136.978 121.864ZM140.234 114.871C148.608 110.451 154.4 101.119 154.4 90.2809C154.4 79.5292 148.699 70.2592 140.433 65.7966C141.166 67.686 141.816 69.6164 142.379 71.5831C148.676 75.1066 152.96 82.172 152.96 90.2813C152.96 98.4499 148.613 105.559 142.24 109.056C141.659 111.033 140.988 112.973 140.234 114.871ZM142.617 107.722C148.217 104.252 152 97.754 152 90.2813C152 82.866 148.275 76.4109 142.746 72.9212C143.2 74.6412 143.587 76.3878 143.904 78.1583C147.668 80.6864 150.16 85.1836 150.16 90.281C150.16 95.4159 147.631 99.9418 143.821 102.459C143.489 104.239 143.087 105.994 142.617 107.722ZM144.059 101.106C147.166 98.6939 149.2 94.7554 149.2 90.281C149.2 85.8423 147.198 81.9309 144.133 79.5143C144.677 82.9572 144.96 86.4863 144.96 90.0808C144.96 93.8351 144.652 97.5178 144.059 101.106ZM139.888 64.4368C147.95 68.3329 153.838 76.532 155.105 86.3154C154.926 82.7696 154.496 79.2895 153.832 75.8926C150.491 68.2252 144.564 62.1116 137.257 58.8225C138.217 60.6467 139.096 62.5197 139.888 64.4368ZM136.521 57.4622C143.41 60.2447 149.189 65.4249 152.971 72.0422C152.41 69.8168 151.747 67.6314 150.989 65.4911C146.527 59.8264 140.581 55.4312 133.755 52.9185C134.735 54.3938 135.658 55.9094 136.521 57.4622ZM132.845 51.5833C139.482 53.7765 145.36 57.6876 149.975 62.8015C148.865 60.0226 147.591 57.3264 146.163 54.725C140.901 50.203 134.621 46.8686 127.724 45.1277C129.558 47.1724 131.269 49.3281 132.845 51.5833ZM126.565 43.8677C133.314 45.3476 139.52 48.3119 144.837 52.4076C143.221 49.6991 141.435 47.1021 139.496 44.6309C133.551 41.0147 126.846 38.539 119.68 37.5046C122.12 39.4677 124.42 41.5943 126.565 43.8677ZM118.198 36.3457C125.226 37.1428 131.846 39.2968 137.794 42.5414C134.54 38.6922 130.899 35.1777 126.93 32.0575C121.003 30.0485 114.665 28.9611 108.08 28.9611C107.421 28.9611 106.765 28.972 106.111 28.9936C110.408 31.031 114.456 33.5006 118.198 36.3457ZM104.205 28.1252C105.486 28.0429 106.778 28.0011 108.08 28.0011C113.825 28.0011 119.384 28.8151 124.653 30.3364C121.55 28.0837 118.266 26.0644 114.825 24.3042C111.137 23.6839 107.346 23.3609 103.48 23.3609C99.7556 23.3609 96.1022 23.6605 92.5428 24.2368C96.5809 25.1892 100.48 26.497 104.205 28.1252ZM99.2797 164.001C97.5189 164.001 95.7723 163.94 94.0421 163.82C101.509 162.511 108.597 160.106 115.131 156.779C128.767 154.455 141.021 148.123 150.613 139.05C145.535 145.629 139.452 151.413 132.588 156.18C122.569 161.184 111.255 164.001 99.2797 164.001ZM154.352 133.78C145.035 144.425 132.372 152.117 117.985 155.248C120.947 153.576 123.784 151.71 126.478 149.667C141.38 144.84 153.799 134.305 161.285 120.574C159.384 125.206 157.057 129.624 154.352 133.78ZM164.586 110.732C158.654 127.899 145.464 141.552 128.795 147.837C132.471 144.817 135.853 141.456 138.893 137.804C155.183 128.416 166.16 110.738 166.16 90.4809C166.16 70.7458 155.742 53.4593 140.143 43.901C137.029 39.9523 133.524 36.3228 129.687 33.0697C145.504 39.33 158.078 52.2613 164.108 68.4955C166.122 75.4829 167.2 82.858 167.2 90.4808C167.2 97.476 166.292 104.263 164.586 110.732ZM165.2 90.4809C165.2 109.442 155.414 126.098 140.655 135.605C142.799 132.824 144.751 129.889 146.492 126.819C156.799 118.108 163.36 104.972 163.36 90.2812C163.36 75.7956 156.981 62.8212 146.922 54.111C145.396 51.3459 143.7 48.687 141.848 46.1483C155.939 55.7717 165.2 72.0355 165.2 90.4809ZM162.4 90.2812C162.4 103.719 156.801 115.823 147.85 124.314C149.137 121.829 150.288 119.263 151.293 116.625C157.08 109.537 160.56 100.422 160.56 90.4809C160.56 80.8581 157.299 72.0091 151.842 65.0236C150.813 62.1411 149.612 59.34 148.25 56.6323C156.968 65.1021 162.4 77.0444 162.4 90.2812ZM159.6 90.4809C159.6 99.1041 156.921 107.087 152.368 113.611C153.269 110.903 154.018 108.126 154.606 105.29C156.629 100.737 157.76 95.6482 157.76 90.2812C157.76 85.0485 156.685 80.0797 154.756 75.6151C154.251 73.0474 153.614 70.5267 152.852 68.0603C157.111 74.4503 159.6 82.1678 159.6 90.4809ZM156.8 90.2812C156.8 93.6127 156.354 96.8311 155.522 99.8726C155.943 96.6681 156.16 93.3998 156.16 90.0811C156.16 87.023 155.976 84.0078 155.618 81.0458C156.388 83.982 156.8 87.0794 156.8 90.2812ZM160.59 58.748C153.203 45.9012 141.439 36.0026 127.392 31.1996C124.427 28.8794 121.283 26.7759 117.984 24.9132C131.288 27.8084 143.117 34.6034 152.19 44.0272C155.488 48.6025 158.312 53.5326 160.59 58.748ZM148.206 38.9408C139.006 31.0291 127.65 25.5158 115.13 23.3822C108.596 20.0558 101.509 17.6515 94.0422 16.3418C95.7724 16.222 97.5189 16.1611 99.2797 16.1611C109.597 16.1611 119.423 18.252 128.353 22.031C135.864 26.5865 142.568 32.3086 148.206 38.9408ZM99.2797 15.2011C96.1653 15.2011 93.0951 15.3892 90.0798 15.7547C87.0646 15.3892 83.9943 15.2011 80.8799 15.2011C72.7144 15.2011 64.8523 16.4943 57.4896 18.8861C67.3602 13.9255 78.3931 10.8882 90.0798 10.2758C101.767 10.8882 112.799 13.9255 122.67 18.8861C115.307 16.4943 107.445 15.2011 99.2797 15.2011ZM99.2529 170.665C142.059 168.231 176 133.255 176 90.4808C176 47.7062 142.059 12.7312 99.253 10.2962C109.93 12.0383 119.914 15.8012 128.789 21.173C155.697 32.5887 174.56 59.1426 174.56 90.0811C174.56 119.349 157.679 144.693 133.077 157.009C123.181 163.868 111.686 168.637 99.2529 170.665ZM138.637 152.797C159.634 139.734 173.6 116.529 173.6 90.0811C173.6 61.9551 157.806 37.4961 134.556 25.0025C141.627 30.1366 147.837 36.3564 152.931 43.4125C164.598 55.5543 171.76 71.9877 171.76 90.0808C171.76 107.013 165.487 122.491 155.121 134.359C150.596 141.299 145.028 147.517 138.637 152.797ZM158.83 128.069C166.377 117.287 170.8 104.195 170.8 90.0808C170.8 74.8257 165.633 60.7653 156.94 49.5254C160.384 55.3324 163.118 61.5984 165.025 68.2078C167.568 75.0692 168.96 82.5094 168.96 90.2811C168.96 97.5443 167.744 104.518 165.509 111C163.929 116.986 161.675 122.703 158.83 128.069Z" fill="url(#paint0_linear)"/>
<path fill-rule="evenodd" clip-rule="evenodd" d="M1.7598 90.081C1.7598 41.3032 41.302 1.76103 90.0798 1.76103C138.858 1.76103 178.4 41.3032 178.4 90.081C178.4 132.762 148.125 168.371 107.879 176.607C102.13 177.783 96.177 178.401 90.0798 178.401C41.302 178.401 1.7598 138.859 1.7598 90.081ZM90.0798 0.801025C46.9353 0.801025 10.9387 31.4046 2.61366 72.088C1.42437 77.8999 0.799805 83.9175 0.799805 90.081C0.799805 94.6383 1.14126 99.1159 1.79999 103.49C8.26841 146.436 45.3291 179.361 90.0798 179.361C139.388 179.361 179.36 139.389 179.36 90.081C179.36 43.8548 144.228 5.834 99.2082 1.26197C96.2068 0.957166 93.1616 0.801025 90.0798 0.801025ZM90.0798 9.31451C91.5368 9.23904 93.0037 9.20083 94.4797 9.20083C140.025 9.20083 176.96 45.5845 176.96 90.4808C176.96 135.377 140.025 171.761 94.4797 171.761C93.0037 171.761 91.5368 171.723 90.0798 171.647C88.6228 171.723 87.1559 171.761 85.6799 171.761C40.1342 171.761 3.19991 135.377 3.19991 90.4808C3.19991 45.5845 40.1342 9.20083 85.6799 9.20083C87.1559 9.20083 88.6228 9.23904 90.0798 9.31451ZM80.9066 10.2962C38.1001 12.7312 4.1599 47.7062 4.1599 90.4808C4.1599 133.255 38.1002 168.231 80.9067 170.665C68.4737 168.637 56.9788 163.868 47.083 157.009C22.4801 144.692 5.59993 119.349 5.59993 90.0811C5.59993 59.1426 24.4626 32.5887 51.3707 21.173C60.2452 15.8012 70.23 12.0383 80.9066 10.2962ZM90.0798 170.686C76.6257 169.981 64.0382 166.062 53.093 159.695C61.6903 163.093 71.0659 164.961 80.8799 164.961C83.9943 164.961 87.0646 164.773 90.0798 164.408C93.0951 164.773 96.1653 164.961 99.2797 164.961C109.094 164.961 118.469 163.093 127.067 159.695C116.121 166.062 103.534 169.981 90.0798 170.686ZM80.8799 164.001C82.6408 164.001 84.3873 163.94 86.1175 163.82C78.6504 162.511 71.5627 160.106 65.0281 156.779C51.3927 154.455 39.1391 148.123 29.5471 139.05C34.6242 145.629 40.7078 151.413 47.572 156.18C57.5907 161.184 68.9044 164.001 80.8799 164.001ZM25.8078 133.78C35.125 144.425 47.7872 152.117 62.1745 155.248C59.2126 153.576 56.3759 151.71 53.6819 149.667C38.7792 144.84 26.3608 134.305 18.8746 120.574C20.7757 125.206 23.1027 129.624 25.8078 133.78ZM15.5732 110.732C21.5056 127.899 34.6953 141.552 51.3645 147.837C47.6893 144.817 44.3072 141.457 41.2669 137.804C24.9762 128.417 13.9995 110.739 13.9995 90.4809C13.9995 70.7454 24.4172 53.4585 40.0171 43.9003C43.1312 39.9519 46.6355 36.3226 50.4722 33.0697C34.6561 39.33 22.0822 52.2613 16.0515 68.4954C14.0376 75.4828 12.9597 82.8579 12.9597 90.4808C12.9597 97.476 13.8674 104.263 15.5732 110.732ZM38.312 46.1475C24.2206 55.7708 14.9595 72.035 14.9595 90.4809C14.9595 109.443 24.746 126.099 39.5057 135.606C37.3612 132.824 35.4085 129.889 33.6673 126.819C23.3604 118.108 16.7995 104.972 16.7995 90.2812C16.7995 75.7956 23.1786 62.8212 33.238 54.111C34.7636 51.3456 36.4596 48.6864 38.312 46.1475ZM52.9034 135.55C46.0065 133.888 39.713 130.636 34.4182 126.196C33.0731 123.811 31.8572 121.345 30.7797 118.806C35.4751 123.789 41.3978 127.561 48.0531 129.615C49.5579 131.684 51.1778 133.665 52.9034 135.55ZM47.1197 128.299C40.2671 125.929 34.2655 121.675 29.7093 116.139C28.8089 113.763 28.0282 111.327 27.3743 108.841C31.2122 115.397 37.0238 120.507 43.9283 123.216C44.9179 124.959 45.9831 126.655 47.1197 128.299ZM43.1814 121.864C35.8533 118.653 29.8841 112.611 26.4747 105.003C25.7713 101.59 25.3044 98.0911 25.0918 94.5242C26.4453 104.269 32.3887 112.407 40.4803 116.225C41.295 118.151 42.197 120.033 43.1814 121.864ZM41.2205 115.506C44.1964 116.856 47.4601 117.601 50.8798 117.601C51.6944 117.601 52.5001 117.559 53.2952 117.476C52.2959 115.373 51.4088 113.204 50.6421 110.977C49.4249 111.229 48.1672 111.361 46.8799 111.361C44.1148 111.361 41.4861 110.752 39.1027 109.653C39.7186 111.645 40.4262 113.598 41.2205 115.506ZM46.8799 110.401C48.0593 110.401 49.2138 110.284 50.3338 110.059C49.6354 107.924 49.0469 105.738 48.5753 103.507C47.005 104.186 45.2852 104.561 43.48 104.561C41.3014 104.561 39.2472 104.015 37.4301 103.047C37.7899 104.858 38.2237 106.642 38.7282 108.397C41.1949 109.682 43.9614 110.401 46.8799 110.401ZM37.1952 101.802C39.045 102.947 41.1933 103.601 43.48 103.601C45.2162 103.601 46.8726 103.224 48.3791 102.541C47.6054 98.5773 47.1996 94.4775 47.1996 90.2811C47.1996 86.0846 47.6054 81.9848 48.3791 78.0206C46.8726 77.3381 45.2162 76.961 43.48 76.961C41.1607 76.961 38.9839 77.634 37.1164 78.8087C36.4873 82.473 36.1596 86.239 36.1596 90.0808C36.1596 94.0799 36.5147 97.9968 37.1952 101.802ZM36.0153 79.5874C35.4783 83.0072 35.1996 86.5117 35.1996 90.0808C35.1996 93.8095 35.5038 97.4677 36.0889 101.032C32.9839 98.6133 30.96 94.7073 30.96 90.281C30.96 85.8898 32.9519 82.0105 36.0153 79.5874ZM36.2428 78.2303C32.4836 80.77 30 85.2282 30 90.281C30 95.3708 32.5201 99.8573 36.3256 102.387C36.66 104.191 37.0665 105.971 37.5422 107.722C31.9423 104.252 28.1599 97.754 28.1599 90.2813C28.1599 82.866 31.8843 76.4109 37.4134 72.9212C36.9538 74.6645 36.5626 76.4352 36.2428 78.2303ZM37.3428 77.5622C37.688 75.76 38.1063 73.9834 38.5947 72.2357C41.0949 70.9071 43.9086 70.1613 46.8799 70.1613C48.0592 70.1613 49.2138 70.2788 50.3337 70.5036C49.6354 72.6383 49.047 74.8246 48.5754 77.0552C47.0051 76.3758 45.2852 76.001 43.48 76.001C41.2665 76.001 39.1813 76.5646 37.3428 77.5622ZM49.2701 78.4692C48.5414 82.2912 48.1596 86.2404 48.1596 90.2811C48.1596 94.3217 48.5414 98.2709 49.2701 102.093C53.2624 99.8733 56 95.429 56 90.281C56 85.133 53.2624 80.6887 49.2701 78.4692ZM49.4666 103.08C53.9158 100.74 56.96 95.8751 56.96 90.281C56.96 84.6869 53.9158 79.8215 49.4667 77.4817C49.9449 75.177 50.5495 72.9201 51.2729 70.7192C54.6011 71.5803 57.5874 73.3979 59.9612 75.8894C58.6827 80.5335 57.9995 85.4269 57.9995 90.4809C57.9995 95.4222 58.6526 100.21 59.8766 104.761C57.5166 107.208 54.5617 108.992 51.273 109.843C50.5496 107.642 49.9448 105.385 49.4666 103.08ZM54.2984 117.35C53.2724 115.219 52.3638 113.018 51.5812 110.757C54.8428 109.901 57.7814 108.176 60.1742 105.825C60.9997 108.664 62.0484 111.406 63.2997 114.032C60.5751 115.72 57.5332 116.87 54.2984 117.35ZM64.1126 113.505C62.8296 110.797 61.7659 107.963 60.9447 105.026C64.4213 101.22 66.5599 96.0111 66.5599 90.2813C66.5599 84.5988 64.4566 79.429 61.0308 75.6312C61.8709 72.694 62.954 69.8606 64.2568 67.1545C67.4671 69.3551 70.1895 72.3249 72.2022 75.8289C70.772 80.3862 70.0001 85.2423 70.0001 90.2812C70.0001 95.32 70.7719 100.176 72.2021 104.733C70.1593 108.289 67.3856 111.295 64.1126 113.505ZM65.5999 90.2813C65.5999 85.0576 63.7516 80.3105 60.7263 76.7408C59.5737 81.1254 58.9595 85.7308 58.9595 90.4809C58.9595 95.1206 59.5455 99.6223 60.6468 103.915C63.7192 100.335 65.5999 95.5505 65.5999 90.2813ZM63.4475 66.6226C62.1768 69.2463 61.1092 71.9881 60.2652 74.8272C57.8561 72.4309 54.8842 70.6721 51.5811 69.8057C52.3638 67.5439 53.2725 65.3431 54.2985 63.2122C57.5919 63.7003 60.6853 64.8835 63.4475 66.6226ZM53.2954 63.0858C52.2959 65.189 51.4088 67.3582 50.6419 69.5854C49.4248 69.3333 48.1671 69.2013 46.8799 69.2013C44.0595 69.2013 41.3812 69.8353 38.9601 70.9763C39.557 68.9935 40.2443 67.0494 41.0175 65.1487C44.0477 63.74 47.3822 62.9609 50.8798 62.9609C51.6944 62.9609 52.5002 63.0032 53.2954 63.0858ZM39.7265 65.7966C38.9935 67.6861 38.3435 69.6164 37.781 71.5831C31.4834 75.1066 27.1999 82.172 27.1999 90.2813C27.1999 98.4499 31.5463 105.559 37.9196 109.056C38.5011 111.034 39.1712 112.973 39.9253 114.871C31.5518 110.451 25.7598 101.119 25.7598 90.2809C25.7598 79.5292 31.4603 70.2592 39.7265 65.7966ZM41.7705 116.79C44.6043 117.935 47.673 118.561 50.8798 118.561C51.8467 118.561 52.801 118.504 53.7402 118.393C54.7567 120.445 55.8811 122.432 57.1057 124.346C56.5013 124.383 55.8925 124.401 55.2797 124.401C51.5338 124.401 47.9365 123.711 44.5942 122.441C43.5666 120.609 42.6237 118.723 41.7705 116.79ZM54.7426 118.253C55.7833 120.327 56.9361 122.333 58.1927 124.261C61.5555 123.935 64.7694 123.052 67.7518 121.697C66.2529 119.541 64.905 117.27 63.7237 114.901C60.9997 116.576 57.9688 117.735 54.7426 118.253ZM64.5367 114.38C67.7551 112.23 70.5083 109.344 72.5988 105.941C73.7309 109.238 75.2106 112.37 76.9932 115.29C74.534 117.73 71.7149 119.76 68.6316 121.281C67.1027 119.095 65.7321 116.789 64.5367 114.38ZM73.2428 104.838C74.3567 108.281 75.855 111.547 77.6859 114.582C79.995 112.15 81.9595 109.344 83.4933 106.256C81.5006 101.401 80.4 96.0717 80.4 90.4809C80.4 84.8067 81.5337 79.4016 83.5831 74.4889C82.0365 71.3285 80.0403 68.4603 77.6859 65.9805C75.855 69.0155 74.3568 72.2809 73.2429 75.724C75.6036 79.9804 76.9598 84.9628 76.9598 90.2809C76.9598 95.5991 75.6036 100.582 73.2428 104.838ZM72.8458 77.015C71.6189 81.2188 70.9601 85.6715 70.9601 90.2812C70.9601 94.8908 71.6189 99.3434 72.8457 103.547C74.8543 99.6225 75.9998 95.1006 75.9998 90.2809C75.9998 85.4614 74.8543 80.9395 72.8458 77.015ZM72.5989 74.6213C73.731 71.3241 75.2107 68.1926 76.9932 65.2722C74.5895 62.8873 71.842 60.8938 68.8399 59.3856C67.291 61.5681 65.9008 63.8728 64.6863 66.2825C67.8406 68.4212 70.5408 71.2705 72.5989 74.6213ZM63.877 65.7556C65.0772 63.3858 66.4446 61.1161 67.9635 58.9624C64.9216 57.5528 61.6351 56.6348 58.1926 56.3015C56.9361 58.2297 55.7834 60.2348 54.7428 62.3086C58.0296 62.8371 61.1136 64.0298 63.877 65.7556ZM53.7403 62.1688C54.7568 60.1167 55.8811 58.1299 57.1056 56.2162C56.5012 56.1797 55.8925 56.1612 55.2797 56.1612C51.4279 56.1612 47.7332 56.8915 44.3113 58.2302C43.3082 60.0567 42.3887 61.9347 41.5579 63.8594C44.4506 62.659 47.5926 62.0009 50.8798 62.0009C51.8467 62.0009 52.8011 62.0579 53.7403 62.1688ZM40.2712 64.4368C41.0637 62.5197 41.9423 60.6467 42.9023 58.8225C35.5956 62.1116 29.6682 68.2251 26.3275 75.8925C25.6635 79.2895 25.2334 82.7695 25.0545 86.3153C26.3219 76.532 32.2101 68.3328 40.2712 64.4368ZM23.9997 90.0811C23.9997 87.023 24.184 84.0077 24.5421 81.0457C23.7718 83.982 23.3597 87.0794 23.3597 90.2812C23.3597 93.6127 23.8059 96.8311 24.6375 99.8727C24.2168 96.6681 23.9997 93.3998 23.9997 90.0811ZM22.3997 90.2812C22.3997 85.0485 23.4748 80.0797 25.4033 75.6151C25.9086 73.0474 26.5458 70.5267 27.3076 68.0603C23.049 74.4503 20.5597 82.1678 20.5597 90.4809C20.5597 99.1042 23.2382 107.087 27.7914 113.611C26.8909 110.903 26.1416 108.126 25.5534 105.29C23.5306 100.737 22.3997 95.6482 22.3997 90.2812ZM29.171 65.4911C28.4122 67.6313 27.7496 69.8168 27.1885 72.0422C30.9704 65.4249 36.7492 60.2447 43.6383 57.4622C44.5016 55.9094 45.4247 54.3938 46.4044 52.9185C39.5784 55.4312 33.6329 59.8264 29.171 65.4911ZM55.2797 55.2012C56.096 55.2012 56.9052 55.2329 57.7063 55.2952C58.7871 53.6698 59.941 52.0995 61.1633 50.5891C60.671 50.5704 60.1764 50.5609 59.6797 50.5609C55.5818 50.5609 51.6306 51.2041 47.918 52.397C46.9004 53.868 45.9407 55.3813 45.0422 56.9339C48.2628 55.8095 51.7037 55.2012 55.2797 55.2012ZM62.3517 50.6526C61.0924 52.1728 59.9042 53.7567 58.7923 55.3988C62.2266 55.7876 65.5015 56.74 68.535 58.1672C69.8873 56.3209 71.3526 54.5637 72.9205 52.9059C69.584 51.6813 66.0377 50.9064 62.3517 50.6526ZM77.5145 64.4376C75.1152 62.0859 72.3871 60.1094 69.4112 58.596C70.7903 56.7256 72.2878 54.9491 73.8923 53.2776C76.9465 54.4935 79.8145 56.0898 82.4401 58.0096C80.6249 60.0012 78.9756 62.1515 77.5145 64.4376ZM78.2074 65.1365C80.5228 67.5409 82.5069 70.306 84.0804 73.3459C85.5108 70.1902 87.324 67.2518 89.4595 64.5928C87.5991 62.3667 85.5033 60.3518 83.2115 58.5883C81.3603 60.6112 79.684 62.8023 78.2074 65.1365ZM81.36 90.4809C81.36 85.2499 82.3456 80.2548 84.1375 75.6778C86.1007 80.1025 87.1997 85.0526 87.1997 90.2812C87.1997 95.583 86.0697 100.599 84.0545 105.07C82.3152 100.552 81.36 95.6306 81.36 90.4809ZM88.1597 90.2812C88.1597 96.0429 86.8563 101.485 84.5453 106.286C85.9722 109.659 87.842 112.792 90.0798 115.608C92.3176 112.792 94.1875 109.659 95.6144 106.286C93.3033 101.485 91.9999 96.0429 91.9999 90.2812C91.9999 84.5947 93.2695 79.22 95.5244 74.4652C94.1092 71.1717 92.2709 68.1108 90.0798 65.3539C87.8887 68.1108 86.0504 71.1717 84.6353 74.4652C86.8901 79.22 88.1597 84.5947 88.1597 90.2812ZM78.2074 115.426C80.4758 113.07 82.4261 110.369 83.984 107.402C85.4289 110.639 87.2757 113.65 89.4595 116.369C87.6574 118.525 85.6344 120.484 83.4262 122.207C81.4897 120.12 79.7409 117.85 78.2074 115.426ZM82.6588 122.791C80.7572 120.733 79.034 118.502 77.5145 116.125C75.0579 118.533 72.2566 120.547 69.1976 122.074C70.6353 124.052 72.2046 125.926 73.8923 127.684C77.0316 126.434 79.974 124.783 82.6588 122.791ZM72.9206 128.056C71.2684 126.309 69.7302 124.452 68.3181 122.496C65.3456 123.867 62.145 124.784 58.7924 125.164C59.9964 126.942 61.2899 128.652 62.6663 130.286C66.2395 130.011 69.6791 129.246 72.9206 128.056ZM55.2797 125.361C56.096 125.361 56.9053 125.33 57.7065 125.267C58.8796 127.032 60.139 128.731 61.4785 130.359C60.8823 130.387 60.2826 130.401 59.6797 130.401C55.8468 130.401 52.1422 129.838 48.6411 128.789C47.4652 127.156 46.3617 125.468 45.3353 123.729C48.4713 124.789 51.8119 125.361 55.2797 125.361ZM49.5712 130.05C51.121 132.1 52.787 134.058 54.5596 135.916C57.4447 136.497 60.4273 136.801 63.4796 136.801C64.8052 136.801 66.1178 136.744 67.4149 136.631C65.59 134.955 63.8648 133.167 62.2493 131.278C61.3997 131.333 60.5429 131.361 59.6797 131.361C56.1876 131.361 52.8001 130.906 49.5712 130.05ZM63.4368 131.184C65.0834 133.065 66.8419 134.841 68.7014 136.501C72.4243 136.07 76.0119 135.184 79.4088 133.9C77.3704 132.341 75.4452 130.639 73.6477 128.81C70.4203 130.034 66.9963 130.846 63.4368 131.184ZM63.1151 49.749C66.79 50.0671 70.3232 50.8908 73.6477 52.1516C75.5477 50.2183 77.5904 48.4276 79.7587 46.7969C76.2585 45.4394 72.5523 44.5069 68.7012 44.0614C66.7201 45.8304 64.8537 47.7307 63.1151 49.749ZM61.9268 49.6641C63.6345 47.6351 65.4679 45.7199 67.4147 43.9312C66.1176 43.8186 64.8052 43.7612 63.4796 43.7612C60.2611 43.7612 57.1202 44.0997 54.0892 44.7435C52.2069 46.7568 50.4483 48.8854 48.8256 51.1174C52.2773 50.1294 55.9177 49.6009 59.6797 49.6009C60.4338 49.6009 61.183 49.6222 61.9268 49.6641ZM47.3142 51.5833C48.8905 49.3281 50.6015 47.1724 52.4356 45.1277C45.5385 46.8686 39.2588 50.2029 33.9963 54.725C32.5691 57.3264 31.2945 60.0226 30.1845 62.8015C34.7997 57.6876 40.6772 53.7765 47.3142 51.5833ZM28.3179 65.0236C29.3467 62.1411 30.5479 59.34 31.9093 56.6323C23.1917 65.1021 17.7596 77.0443 17.7596 90.2812C17.7596 103.719 23.3583 115.823 32.3095 124.314C31.0229 121.829 29.8719 119.263 28.8665 116.625C23.0796 109.537 19.5997 100.422 19.5997 90.4809C19.5997 80.8581 22.8604 72.0091 28.3179 65.0236ZM83.0987 57.3015C80.4902 55.3826 77.6462 53.7758 74.6192 52.5349C76.541 50.609 78.6083 48.8303 80.8029 47.217C83.7922 48.4632 86.6231 50.0224 89.2561 51.8544C87.0498 53.4864 84.9894 55.3101 83.0987 57.3015ZM90.0798 63.839C88.2237 61.6375 86.1416 59.6398 83.8702 57.8834C85.7741 55.8876 87.8523 54.0651 90.0798 52.4412C92.3073 54.0651 94.3855 55.8876 96.2895 57.8834C94.018 59.6398 91.9359 61.6375 90.0798 63.839ZM96.0792 73.3459C94.6488 70.1902 92.8356 67.2518 90.7002 64.5928C92.5605 62.3667 94.6563 60.3518 96.9481 58.5883C98.7994 60.6112 100.476 62.8023 101.952 65.1365C99.6368 67.541 97.6527 70.306 96.0792 73.3459ZM96.0221 75.6778C94.0589 80.1025 92.9599 85.0526 92.9599 90.2812C92.9599 95.583 94.0899 100.599 96.1051 105.07C97.8444 100.552 98.7997 95.6306 98.7997 90.4809C98.7997 85.2499 97.814 80.2548 96.0221 75.6778ZM96.6664 106.256C98.659 101.401 99.7597 96.0717 99.7597 90.4809C99.7597 84.8067 98.6259 79.4016 96.5765 74.4889C98.1231 71.3285 100.119 68.4603 102.474 65.9805C104.305 69.0156 105.803 72.2809 106.917 75.724C104.556 79.9804 103.2 84.9628 103.2 90.2809C103.2 95.5991 104.556 100.582 106.917 104.838C105.803 108.281 104.305 111.547 102.474 114.582C100.165 112.15 98.2001 109.344 96.6664 106.256ZM96.1757 107.402C94.7307 110.639 92.8839 113.65 90.7002 116.369C92.5022 118.525 94.5253 120.484 96.7334 122.207C98.6699 120.12 100.419 117.85 101.952 115.426C99.6839 113.07 97.7335 110.369 96.1757 107.402ZM90.0798 117.123C88.2836 119.253 86.2758 121.193 84.0897 122.908C85.9335 124.814 87.9376 126.56 90.0798 128.121C92.222 126.56 94.2262 124.814 96.07 122.908C93.8838 121.193 91.876 119.253 90.0798 117.123ZM83.3223 123.495C80.653 125.487 77.7329 127.15 74.6192 128.427C76.4396 130.251 78.3906 131.943 80.4567 133.488C83.5738 132.219 86.5216 130.611 89.2561 128.708C87.1364 127.14 85.1514 125.395 83.3223 123.495ZM54.0743 136.797C47.3287 135.394 41.1138 132.511 35.7711 128.496C37.61 131.497 39.6578 134.357 41.8945 137.057C47.8714 140.476 54.5709 142.76 61.7045 143.619C58.9911 141.536 56.4403 139.255 54.0743 136.797ZM63.5594 143.81C60.7772 141.776 58.1586 139.535 55.7268 137.109C58.2482 137.538 60.8382 137.761 63.4796 137.761C65.1358 137.761 66.7718 137.674 68.3833 137.502C70.8385 139.664 73.4642 141.63 76.2371 143.374C73.5778 143.787 70.8535 144.001 68.0795 144.001C66.557 144.001 65.0495 143.936 63.5594 143.81ZM80.3167 134.579C76.9402 135.908 73.3737 136.848 69.6698 137.348C72.1725 139.489 74.8486 141.425 77.6732 143.13C81.588 142.411 85.3531 141.259 88.9179 139.726C85.8849 138.275 83.0072 136.549 80.3167 134.579ZM90.0795 139.209C87.0065 137.799 84.0902 136.102 81.3643 134.152C84.4507 132.849 87.3698 131.218 90.0798 129.304C92.7897 131.218 95.7087 132.849 98.795 134.152C96.069 136.101 93.1527 137.799 90.0795 139.209ZM99.7026 133.488C96.5856 132.219 93.6379 130.611 90.9035 128.708C93.0232 127.14 95.0082 125.395 96.8374 123.495C99.5065 125.487 102.426 127.15 105.54 128.427C103.72 130.251 101.769 131.943 99.7026 133.488ZM106.267 127.684C103.128 126.434 100.185 124.783 97.5008 122.791C99.4025 120.733 101.126 118.502 102.645 116.125C105.102 118.533 107.903 120.547 110.962 122.074C109.524 124.051 107.955 125.926 106.267 127.684ZM111.528 121.28C108.444 119.76 105.625 117.73 103.166 115.29C104.949 112.37 106.429 109.238 107.561 105.941C109.651 109.344 112.404 112.23 115.623 114.38C114.427 116.789 113.056 119.095 111.528 121.28ZM116.047 113.505C112.774 111.295 110 108.289 107.958 104.733C109.388 100.176 110.16 95.32 110.16 90.2812C110.16 85.2423 109.388 80.3862 107.957 75.8289C109.97 72.3251 112.692 69.3554 115.902 67.1548C117.205 69.861 118.288 72.6944 119.128 75.6317C115.703 79.4294 113.6 84.5991 113.6 90.2813C113.6 96.0109 115.738 101.219 119.215 105.026C118.393 107.962 117.33 110.797 116.047 113.505ZM109.2 90.2812C109.2 85.6715 108.541 81.2187 107.314 77.015C105.305 80.9395 104.16 85.4614 104.16 90.2809C104.16 95.1006 105.305 99.6225 107.314 103.547C108.541 99.3434 109.2 94.8908 109.2 90.2812ZM115.473 66.2828C112.319 68.4215 109.619 71.2707 107.561 74.6213C106.429 71.3241 104.949 68.1926 103.166 65.2722C105.57 62.8874 108.317 60.894 111.319 59.3858C112.868 61.5683 114.258 63.873 115.473 66.2828ZM110.748 58.5962C107.772 60.1096 105.044 62.0861 102.645 64.4376C101.184 62.1515 99.5348 60.0012 97.7196 58.0096C100.345 56.0899 103.213 54.4937 106.267 53.2777C107.871 54.9493 109.369 56.7258 110.748 58.5962ZM105.54 52.5351C102.513 53.776 99.6693 55.3827 97.0609 57.3015C95.1702 55.3101 93.1099 53.4864 90.9035 51.8544C93.5364 50.0225 96.3672 48.4634 99.3563 47.2171C101.551 48.8304 103.618 50.6091 105.54 52.5351ZM98.4435 46.5608C95.4869 47.8383 92.6866 49.417 90.0798 51.2589C87.4729 49.4169 84.6725 47.8382 81.7157 46.5607C84.3404 44.7153 87.1381 43.1027 90.0795 41.7525C93.021 43.1027 95.8188 44.7154 98.4435 46.5608ZM88.9179 41.2361C86.0179 42.6228 83.26 44.2617 80.6719 46.1249C77.1906 44.7214 73.5037 43.7315 69.6696 43.2149C72.0224 41.202 74.5284 39.3704 77.167 37.7411C81.2636 38.4526 85.1997 39.6369 88.9179 41.2361ZM75.7289 37.5117C73.1429 39.1744 70.6879 41.0304 68.3831 43.06C66.7716 42.8889 65.1357 42.8012 63.4796 42.8012C60.6697 42.8012 57.9181 43.0537 55.2452 43.5375C57.4547 41.2886 59.823 39.1937 62.3322 37.2705C64.2201 37.0659 66.1377 36.9609 68.0795 36.9609C70.677 36.9609 73.231 37.1488 75.7289 37.5117ZM60.4802 37.5045C58.0401 39.4676 55.7393 41.5943 53.5948 43.8677C46.8453 45.3476 40.6394 48.3119 35.3229 52.4076C36.9392 49.6989 38.7245 47.1016 40.6644 44.6303C46.6092 41.0143 53.3141 38.5388 60.4802 37.5045ZM43.6481 139.098C46.8192 142.656 50.3301 145.907 54.1301 148.802C59.7976 150.621 65.8273 151.601 72.08 151.601C73.005 151.601 73.9251 151.58 74.8399 151.537C70.7255 149.65 66.8326 147.369 63.2104 144.743C56.222 144.115 49.6164 142.148 43.6481 139.098ZM65.0626 144.878C66.0612 144.933 67.0671 144.961 68.0795 144.961C71.2886 144.961 74.4323 144.679 77.4877 144.139C80.955 146.205 84.64 147.93 88.499 149.27C84.7721 150.355 80.8973 151.079 76.9129 151.405C72.7265 149.621 68.7594 147.428 65.0626 144.878ZM78.9246 143.865C82.4403 145.873 86.1739 147.529 90.0798 148.786C93.9857 147.529 97.7192 145.873 101.235 143.865C97.3486 143.068 93.614 141.852 90.0795 140.264C86.5452 141.852 82.8107 143.068 78.9246 143.865ZM91.2411 139.726C94.8061 141.259 98.5714 142.411 102.486 143.13C105.311 141.425 107.987 139.489 110.49 137.348C106.786 136.848 103.219 135.908 99.8425 134.579C97.152 136.549 94.2742 138.275 91.2411 139.726ZM100.75 133.899C104.147 135.184 107.735 136.07 111.458 136.501C113.318 134.841 115.076 133.065 116.723 131.184C113.163 130.846 109.739 130.034 106.511 128.81C104.714 130.639 102.789 132.34 100.75 133.899ZM107.239 128.056C110.48 129.246 113.92 130.011 117.493 130.286C118.87 128.652 120.163 126.942 121.367 125.164C118.014 124.784 114.814 123.867 111.841 122.496C110.429 124.452 108.891 126.309 107.239 128.056ZM112.407 121.697C115.39 123.052 118.604 123.935 121.967 124.261C123.224 122.333 124.376 120.327 125.417 118.253C122.191 117.735 119.16 116.576 116.435 114.901C115.254 117.27 113.906 119.541 112.407 121.697ZM116.859 114.031C119.584 115.72 122.626 116.87 125.861 117.35C126.887 115.219 127.796 113.018 128.578 110.757C125.317 109.901 122.378 108.175 119.985 105.825C119.159 108.663 118.111 111.406 116.859 114.031ZM120.283 104.761C122.643 107.207 125.598 108.992 128.887 109.843C129.625 107.597 130.24 105.293 130.722 102.938C126.479 100.546 123.6 95.7603 123.6 90.281C123.6 84.8017 126.479 80.0158 130.722 77.6237C130.24 75.2697 129.625 72.9653 128.887 70.7192C125.558 71.5803 122.572 73.3981 120.198 75.8898C121.476 80.5338 122.16 85.4271 122.16 90.4809C122.16 95.422 121.507 100.21 120.283 104.761ZM119.433 76.7413C120.585 81.1257 121.2 85.731 121.2 90.4809C121.2 95.1204 120.614 99.6219 119.512 103.914C116.44 100.334 114.56 95.5502 114.56 90.2813C114.56 85.0579 116.408 80.3109 119.433 76.7413ZM119.894 74.8277C122.303 72.4311 125.275 70.6721 128.579 69.8057C127.796 67.5439 126.887 65.3431 125.861 63.2122C122.568 63.7003 119.474 64.8836 116.712 66.6229C117.982 69.2467 119.05 71.9885 119.894 74.8277ZM116.282 65.7559C119.046 64.0299 122.13 62.8371 125.417 62.3086C124.376 60.2348 123.224 58.2297 121.967 56.3015C118.524 56.6348 115.238 57.5529 112.196 58.9626C113.715 61.1163 115.082 63.386 116.282 65.7559ZM111.624 58.1674C114.658 56.7401 117.933 55.7876 121.367 55.3988C120.255 53.7567 119.067 52.1728 117.808 50.6526C114.122 50.9064 110.575 51.6814 107.239 52.906C108.807 54.5638 110.272 56.3211 111.624 58.1674ZM106.512 52.1518C109.836 50.8909 113.369 50.0671 117.045 49.749C115.306 47.7307 113.44 45.8304 111.458 44.0614C107.607 44.5069 103.901 45.4395 100.401 46.797C102.569 48.4278 104.612 50.2185 106.512 52.1518ZM99.4873 46.125C102.969 44.7215 106.656 43.7315 110.49 43.2149C108.137 41.2019 105.631 39.3703 102.992 37.741C98.8958 38.4525 94.9595 39.6368 91.2411 41.2361C94.1412 42.6228 96.8992 44.2618 99.4873 46.125ZM90.0795 40.6976C93.7695 39.0403 97.6777 37.787 101.749 36.9938C98.0837 34.8521 94.1765 33.0951 90.0798 31.7763C85.983 33.0951 82.0758 34.8522 78.4107 36.9938C82.4817 37.7871 86.3897 39.0403 90.0795 40.6976ZM76.9716 36.7338C80.5886 34.53 84.4479 32.6988 88.499 31.292C84.527 30.1363 80.3871 29.3895 76.1255 29.0987C71.7556 31.0269 67.6314 33.403 63.8121 36.168C65.2201 36.0573 66.6433 36.0009 68.0795 36.0009C71.1082 36.0009 74.0787 36.2517 76.9716 36.7338ZM61.9619 36.3456C65.7041 33.5006 69.7521 31.031 74.0485 28.9936C73.3949 28.972 72.7387 28.9611 72.08 28.9611C65.4949 28.9611 59.1571 30.0485 53.2292 32.0575C49.2607 35.1776 45.6199 38.6918 42.3666 42.5408C48.3144 39.2965 54.9341 37.1426 61.9619 36.3456ZM72.08 152.561C66.6682 152.561 61.4216 151.839 56.4274 150.484C59.2565 152.473 62.2316 154.27 65.3335 155.857C69.0221 156.478 72.8129 156.801 76.68 156.801C80.4041 156.801 84.0574 156.501 87.6169 155.925C83.867 155.041 80.2369 153.85 76.755 152.38C75.2121 152.5 73.653 152.561 72.08 152.561ZM90.0798 155.479C86.1956 154.702 82.4325 153.593 78.8221 152.184C82.6959 151.747 86.4601 150.939 90.0798 149.794C93.6996 150.939 97.4637 151.747 101.338 152.184C97.7271 153.593 93.9641 154.702 90.0798 155.479ZM103.247 151.405C99.2623 151.079 95.3876 150.355 91.6607 149.27C95.5196 147.93 99.2045 146.205 102.672 144.14C105.727 144.679 108.871 144.961 112.08 144.961C113.092 144.961 114.098 144.933 115.097 144.878C111.4 147.428 107.433 149.621 103.247 151.405ZM112.08 144.001C109.306 144.001 106.582 143.787 103.922 143.374C106.695 141.63 109.321 139.664 111.776 137.502C113.388 137.674 115.024 137.761 116.68 137.761C119.321 137.761 121.911 137.538 124.433 137.109C122.001 139.535 119.383 141.776 116.6 143.81C115.11 143.936 113.602 144.001 112.08 144.001ZM116.68 136.801C115.354 136.801 114.042 136.744 112.745 136.631C114.57 134.955 116.295 133.167 117.91 131.278C118.76 131.333 119.617 131.361 120.48 131.361C123.972 131.361 127.359 130.906 130.588 130.05C129.039 132.1 127.373 134.058 125.6 135.916C122.715 136.497 119.732 136.801 116.68 136.801ZM120.48 130.401C119.877 130.401 119.277 130.387 118.681 130.359C120.021 128.731 121.28 127.032 122.453 125.267C123.254 125.33 124.064 125.361 124.88 125.361C128.348 125.361 131.688 124.789 134.824 123.729C133.798 125.468 132.694 127.156 131.519 128.789C128.017 129.838 124.313 130.401 120.48 130.401ZM124.88 124.401C124.267 124.401 123.658 124.383 123.054 124.346C124.279 122.432 125.403 120.445 126.419 118.393C127.359 118.504 128.313 118.561 129.28 118.561C132.487 118.561 135.555 117.935 138.389 116.79C137.536 118.723 136.593 120.609 135.565 122.441C132.223 123.711 128.626 124.401 124.88 124.401ZM129.28 117.601C128.465 117.601 127.66 117.559 126.864 117.476C127.864 115.373 128.751 113.204 129.518 110.977C130.735 111.229 131.992 111.361 133.28 111.361C136.045 111.361 138.673 110.752 141.057 109.653C140.441 111.645 139.733 113.598 138.939 115.506C135.963 116.856 132.7 117.601 129.28 117.601ZM133.28 110.401C132.1 110.401 130.946 110.284 129.826 110.059C130.536 107.888 131.133 105.663 131.608 103.393C133.222 104.144 135.004 104.561 136.88 104.561C138.978 104.561 140.957 104.04 142.716 103.113C142.359 104.901 141.93 106.663 141.431 108.397C138.965 109.682 136.198 110.401 133.28 110.401ZM136.88 103.601C135.073 103.601 133.354 103.179 131.804 102.42C132.562 98.4936 132.96 94.4347 132.96 90.2811C132.96 86.1274 132.562 82.0684 131.804 78.1419C133.354 77.3829 135.073 76.961 136.88 76.961C139.115 76.961 141.218 77.6074 143.031 78.7394C143.668 82.4255 144 86.2148 144 90.0808C144 94.1041 143.641 98.0443 142.952 101.872C141.157 102.973 139.083 103.601 136.88 103.601ZM132 90.2811C132 86.2945 131.628 82.397 130.919 78.6229C127.136 80.8884 124.56 85.2454 124.56 90.281C124.56 95.3166 127.136 99.6736 130.919 101.939C131.628 98.165 132 94.2676 132 90.2811ZM136.88 76.001C135.004 76.001 133.222 76.4178 131.608 77.1687C131.133 74.8987 130.536 72.6745 129.826 70.5036C130.946 70.2788 132.1 70.1613 133.28 70.1613C136.251 70.1613 139.065 70.9071 141.565 72.2357C142.047 73.9619 142.461 75.7162 142.804 77.4956C141.023 76.5396 139.012 76.001 136.88 76.001ZM133.28 69.2013C131.993 69.2013 130.735 69.3333 129.518 69.5854C128.751 67.3582 127.864 65.189 126.864 63.0858C127.659 63.0032 128.465 62.9609 129.28 62.9609C132.777 62.9609 136.112 63.74 139.142 65.1487C139.915 67.0494 140.603 68.9935 141.2 70.9763C138.778 69.8353 136.1 69.2013 133.28 69.2013ZM129.28 62.0009C128.313 62.0009 127.358 62.0579 126.419 62.1688C125.403 60.1167 124.279 58.1299 123.054 56.2162C123.658 56.1797 124.267 56.1612 124.88 56.1612C128.732 56.1612 132.426 56.8914 135.848 58.2302C136.851 60.0567 137.771 61.9347 138.602 63.8594C135.709 62.659 132.567 62.0009 129.28 62.0009ZM124.88 55.2012C124.064 55.2012 123.254 55.2329 122.453 55.2952C121.373 53.6698 120.219 52.0995 118.996 50.5891C119.489 50.5704 119.983 50.5609 120.48 50.5609C124.578 50.5609 128.529 51.2041 132.242 52.397C133.259 53.868 134.219 55.3813 135.117 56.9339C131.897 55.8095 128.456 55.2012 124.88 55.2012ZM120.48 49.6009C119.726 49.6009 118.977 49.6222 118.233 49.6641C116.525 47.6351 114.692 45.7199 112.745 43.9312C114.042 43.8186 115.354 43.7612 116.68 43.7612C119.899 43.7612 123.039 44.0997 126.07 44.7435C127.953 46.7568 129.711 48.8854 131.334 51.1174C127.882 50.1294 124.242 49.6009 120.48 49.6009ZM116.68 42.8012C115.024 42.8012 113.388 42.8889 111.777 43.06C109.472 41.0304 107.017 39.1743 104.431 37.5117C106.928 37.1487 109.482 36.9609 112.08 36.9609C114.022 36.9609 115.939 37.0659 117.828 37.2706C120.337 39.1938 122.705 41.2886 124.914 43.5375C122.242 43.0537 119.49 42.8012 116.68 42.8012ZM112.08 36.0009C109.051 36.0009 106.081 36.2517 103.188 36.7337C99.571 34.5299 95.7117 32.6988 91.6606 31.292C95.6326 30.1363 99.7726 29.3895 104.034 29.0987C108.404 31.0269 112.528 33.403 116.348 36.1681C114.939 36.0573 113.516 36.0009 112.08 36.0009ZM102.133 28.2944C97.9787 28.7063 93.9468 29.5453 90.0798 30.7678C86.2128 29.5453 82.181 28.7063 78.0267 28.2944C81.8788 26.7341 85.9094 25.5173 90.0798 24.6825C94.2502 25.5173 98.2808 26.7341 102.133 28.2944ZM87.6169 24.2368C83.5787 25.1892 79.6795 26.497 75.9548 28.1252C74.6736 28.0429 73.3816 28.0011 72.08 28.0011C66.3345 28.0011 60.7754 28.8151 55.5067 30.3364C58.6094 28.0837 61.8941 26.0644 65.3349 24.3042C69.0231 23.6839 72.8135 23.3609 76.68 23.3609C80.404 23.3609 84.0574 23.6605 87.6169 24.2368ZM62.1759 24.9132C58.8764 26.7759 55.7322 28.8794 52.7675 31.1996C38.7204 36.0026 26.9566 45.9012 19.5693 58.7479C21.8481 53.5325 24.6716 48.6024 27.9692 44.0272C37.0424 34.6034 48.8717 27.8084 62.1759 24.9132ZM23.2199 49.5254C19.7757 55.3325 17.0415 61.5984 15.1347 68.2078C12.5919 75.0692 11.2 82.5094 11.2 90.2811C11.2 97.5443 12.4157 104.518 14.6503 111C16.2302 116.986 18.485 122.703 21.3298 128.069C13.7826 117.287 9.35999 104.195 9.35999 90.0808C9.35999 74.8257 14.5262 60.7653 23.2199 49.5254ZM27.2285 43.4125C15.5621 55.5543 8.4 71.9877 8.4 90.0808C8.4 107.013 14.6722 122.491 25.0384 134.359C29.5637 141.299 35.1312 147.517 41.5228 152.797C20.5252 139.734 6.55992 116.529 6.55992 90.0811C6.55992 61.9551 22.354 37.4961 45.6036 25.0025C38.5326 30.1366 32.3231 36.3564 27.2285 43.4125ZM31.954 38.9408C37.5913 32.3086 44.2955 26.5865 51.8067 22.031C60.7366 18.252 70.5626 16.1611 80.8799 16.1611C82.6407 16.1611 84.3872 16.222 86.1174 16.3418C78.6509 17.6515 71.5638 20.0558 65.0296 23.3822C52.5091 25.5158 41.1536 31.0291 31.954 38.9408ZM68.1929 22.9186C74.9961 19.7983 82.3543 17.6705 90.0798 16.7219C97.8054 17.6705 105.164 19.7983 111.967 22.9186C109.186 22.5769 106.354 22.4009 103.48 22.4009C98.8935 22.4009 94.4128 22.8491 90.0798 23.7037C85.7468 22.8491 81.2662 22.4009 76.68 22.4009C73.8061 22.4009 70.9735 22.5769 68.1929 22.9186ZM68.1913 157.243C70.9725 157.585 73.8055 157.761 76.68 157.761C81.2662 157.761 85.7468 157.313 90.0798 156.458C94.4128 157.313 98.8935 157.761 103.48 157.761C106.354 157.761 109.187 157.585 111.968 157.243C105.165 160.364 97.8059 162.492 90.0798 163.44C82.3537 162.492 74.995 160.364 68.1913 157.243ZM92.5427 155.925C96.1022 156.501 99.7556 156.801 103.48 156.801C107.347 156.801 111.138 156.478 114.826 155.857C117.928 154.27 120.903 152.473 123.732 150.484C118.738 151.839 113.491 152.561 108.08 152.561C106.507 152.561 104.948 152.5 103.405 152.38C99.9228 153.85 96.2927 155.041 92.5427 155.925ZM105.32 151.537C106.235 151.58 107.155 151.601 108.08 151.601C114.332 151.601 120.362 150.621 126.03 148.802C129.83 145.907 133.341 142.655 136.512 139.097C130.544 142.147 123.938 144.115 116.949 144.743C113.327 147.369 109.434 149.65 105.32 151.537ZM118.455 143.619C125.589 142.76 132.289 140.475 138.266 137.057C140.502 134.357 142.55 131.497 144.389 128.496C139.046 132.511 132.831 135.394 126.085 136.797C123.719 139.255 121.169 141.536 118.455 143.619ZM127.256 135.55C134.153 133.888 140.447 130.636 145.741 126.196C147.087 123.811 148.302 121.345 149.38 118.806C144.685 123.789 138.762 127.561 132.107 129.615C130.602 131.684 128.982 133.665 127.256 135.55ZM133.04 128.299C139.893 125.929 145.894 121.675 150.45 116.139C151.351 113.763 152.131 111.327 152.785 108.841C148.947 115.397 143.136 120.507 136.231 123.216C135.242 124.959 134.177 126.655 133.04 128.299ZM136.978 121.864C144.306 118.653 150.276 112.611 153.685 105.003C154.388 101.59 154.855 98.0911 155.068 94.5241C153.714 104.269 147.771 112.407 139.679 116.225C138.865 118.151 137.963 120.033 136.978 121.864ZM140.234 114.871C148.608 110.451 154.4 101.119 154.4 90.2809C154.4 79.5292 148.699 70.2592 140.433 65.7966C141.166 67.686 141.816 69.6164 142.379 71.5831C148.676 75.1066 152.96 82.172 152.96 90.2813C152.96 98.4499 148.613 105.559 142.24 109.056C141.659 111.033 140.988 112.973 140.234 114.871ZM142.617 107.722C148.217 104.252 152 97.754 152 90.2813C152 82.866 148.275 76.4109 142.746 72.9212C143.2 74.6412 143.587 76.3878 143.904 78.1583C147.668 80.6864 150.16 85.1836 150.16 90.281C150.16 95.4159 147.631 99.9418 143.821 102.459C143.489 104.239 143.087 105.994 142.617 107.722ZM144.059 101.106C147.166 98.6939 149.2 94.7554 149.2 90.281C149.2 85.8423 147.198 81.9309 144.133 79.5143C144.677 82.9572 144.96 86.4863 144.96 90.0808C144.96 93.8351 144.652 97.5178 144.059 101.106ZM139.888 64.4368C147.95 68.3329 153.838 76.532 155.105 86.3154C154.926 82.7696 154.496 79.2895 153.832 75.8926C150.491 68.2252 144.564 62.1116 137.257 58.8225C138.217 60.6467 139.096 62.5197 139.888 64.4368ZM136.521 57.4622C143.41 60.2447 149.189 65.4249 152.971 72.0422C152.41 69.8168 151.747 67.6314 150.989 65.4911C146.527 59.8264 140.581 55.4312 133.755 52.9185C134.735 54.3938 135.658 55.9094 136.521 57.4622ZM132.845 51.5833C139.482 53.7765 145.36 57.6876 149.975 62.8015C148.865 60.0226 147.591 57.3264 146.163 54.725C140.901 50.203 134.621 46.8686 127.724 45.1277C129.558 47.1724 131.269 49.3281 132.845 51.5833ZM126.565 43.8677C133.314 45.3476 139.52 48.3119 144.837 52.4076C143.221 49.6991 141.435 47.1021 139.496 44.6309C133.551 41.0147 126.846 38.539 119.68 37.5046C122.12 39.4677 124.42 41.5943 126.565 43.8677ZM118.198 36.3457C125.226 37.1428 131.846 39.2968 137.794 42.5414C134.54 38.6922 130.899 35.1777 126.93 32.0575C121.003 30.0485 114.665 28.9611 108.08 28.9611C107.421 28.9611 106.765 28.972 106.111 28.9936C110.408 31.031 114.456 33.5006 118.198 36.3457ZM104.205 28.1252C105.486 28.0429 106.778 28.0011 108.08 28.0011C113.825 28.0011 119.384 28.8151 124.653 30.3364C121.55 28.0837 118.266 26.0644 114.825 24.3042C111.137 23.6839 107.346 23.3609 103.48 23.3609C99.7556 23.3609 96.1022 23.6605 92.5428 24.2368C96.5809 25.1892 100.48 26.497 104.205 28.1252ZM99.2797 164.001C97.5189 164.001 95.7723 163.94 94.0421 163.82C101.509 162.511 108.597 160.106 115.131 156.779C128.767 154.455 141.021 148.123 150.613 139.05C145.535 145.629 139.452 151.413 132.588 156.18C122.569 161.184 111.255 164.001 99.2797 164.001ZM154.352 133.78C145.035 144.425 132.372 152.117 117.985 155.248C120.947 153.576 123.784 151.71 126.478 149.667C141.38 144.84 153.799 134.305 161.285 120.574C159.384 125.206 157.057 129.624 154.352 133.78ZM164.586 110.732C158.654 127.899 145.464 141.552 128.795 147.837C132.471 144.817 135.853 141.456 138.893 137.804C155.183 128.416 166.16 110.738 166.16 90.4809C166.16 70.7458 155.742 53.4593 140.143 43.901C137.029 39.9523 133.524 36.3228 129.687 33.0697C145.504 39.33 158.078 52.2613 164.108 68.4955C166.122 75.4829 167.2 82.858 167.2 90.4808C167.2 97.476 166.292 104.263 164.586 110.732ZM165.2 90.4809C165.2 109.442 155.414 126.098 140.655 135.605C142.799 132.824 144.751 129.889 146.492 126.819C156.799 118.108 163.36 104.972 163.36 90.2812C163.36 75.7956 156.981 62.8212 146.922 54.111C145.396 51.3459 143.7 48.687 141.848 46.1483C155.939 55.7717 165.2 72.0355 165.2 90.4809ZM162.4 90.2812C162.4 103.719 156.801 115.823 147.85 124.314C149.137 121.829 150.288 119.263 151.293 116.625C157.08 109.537 160.56 100.422 160.56 90.4809C160.56 80.8581 157.299 72.0091 151.842 65.0236C150.813 62.1411 149.612 59.34 148.25 56.6323C156.968 65.1021 162.4 77.0444 162.4 90.2812ZM159.6 90.4809C159.6 99.1041 156.921 107.087 152.368 113.611C153.269 110.903 154.018 108.126 154.606 105.29C156.629 100.737 157.76 95.6482 157.76 90.2812C157.76 85.0485 156.685 80.0797 154.756 75.6151C154.251 73.0474 153.614 70.5267 152.852 68.0603C157.111 74.4503 159.6 82.1678 159.6 90.4809ZM156.8 90.2812C156.8 93.6127 156.354 96.8311 155.522 99.8726C155.943 96.6681 156.16 93.3998 156.16 90.0811C156.16 87.023 155.976 84.0078 155.618 81.0458C156.388 83.982 156.8 87.0794 156.8 90.2812ZM160.59 58.748C153.203 45.9012 141.439 36.0026 127.392 31.1996C124.427 28.8794 121.283 26.7759 117.984 24.9132C131.288 27.8084 143.117 34.6034 152.19 44.0272C155.488 48.6025 158.312 53.5326 160.59 58.748ZM148.206 38.9408C139.006 31.0291 127.65 25.5158 115.13 23.3822C108.596 20.0558 101.509 17.6515 94.0422 16.3418C95.7724 16.222 97.5189 16.1611 99.2797 16.1611C109.597 16.1611 119.423 18.252 128.353 22.031C135.864 26.5865 142.568 32.3086 148.206 38.9408ZM99.2797 15.2011C96.1653 15.2011 93.0951 15.3892 90.0798 15.7547C87.0646 15.3892 83.9943 15.2011 80.8799 15.2011C72.7144 15.2011 64.8523 16.4943 57.4896 18.8861C67.3602 13.9255 78.3931 10.8882 90.0798 10.2758C101.767 10.8882 112.799 13.9255 122.67 18.8861C115.307 16.4943 107.445 15.2011 99.2797 15.2011ZM99.2529 170.665C142.059 168.231 176 133.255 176 90.4808C176 47.7062 142.059 12.7312 99.253 10.2962C109.93 12.0383 119.914 15.8012 128.789 21.173C155.697 32.5887 174.56 59.1426 174.56 90.0811C174.56 119.349 157.679 144.693 133.077 157.009C123.181 163.868 111.686 168.637 99.2529 170.665ZM138.637 152.797C159.634 139.734 173.6 116.529 173.6 90.0811C173.6 61.9551 157.806 37.4961 134.556 25.0025C141.627 30.1366 147.837 36.3564 152.931 43.4125C164.598 55.5543 171.76 71.9877 171.76 90.0808C171.76 107.013 165.487 122.491 155.121 134.359C150.596 141.299 145.028 147.517 138.637 152.797ZM158.83 128.069C166.377 117.287 170.8 104.195 170.8 90.0808C170.8 74.8257 165.633 60.7653 156.94 49.5254C160.384 55.3324 163.118 61.5984 165.025 68.2078C167.568 75.0692 168.96 82.5094 168.96 90.2811C168.96 97.5443 167.744 104.518 165.509 111C163.929 116.986 161.675 122.703 158.83 128.069Z" fill="url(#paint1_linear)"/>
<defs>
<linearGradient id="paint0_linear" x1="90.0799" y1="3.0811" x2="90.0799" y2="181.281" gradientUnits="userSpaceOnUse">
<stop stop-color="#137F4C"/>
<stop offset="0.479235" stop-color="#84F2BE"/>
<stop offset="1" stop-color="#137F4C"/>
</linearGradient>
<linearGradient id="paint1_linear" x1="179.2" y1="90.001" x2="0.799803" y2="90.001" gradientUnits="userSpaceOnUse">
<stop stop-color="white"/>
<stop offset="0.400629" stop-color="white" stop-opacity="0"/>
</linearGradient>
</defs>
</svg>
