<svg width="175" height="48" viewBox="0 0 175 48" fill="none" xmlns="http://www.w3.org/2000/svg">
<g clip-path="url(#clip0)">
<path d="M98.833 12.0465L106.724 9.11628L98.833 6.10233V2L112.348 7.44186V10.7907L98.833 16.2326V12.0465Z" fill="#A100FF"/>
<path d="M24.2047 38.0001C21.3505 38.0001 19 36.5768 19 33.3954V33.228C19 29.3768 22.3578 28.0373 26.4712 28.0373H28.402V27.2838C28.402 25.6931 27.7304 24.7722 26.0515 24.7722C24.5404 24.7722 23.7849 25.6094 23.701 26.7815H19.5037C19.8395 23.2652 22.6097 21.5908 26.3033 21.5908C30.0809 21.5908 32.8511 23.1815 32.8511 27.1164V37.6652H28.5699V35.8233C27.7304 36.9954 26.3033 38.0001 24.2047 38.0001ZM28.402 32.4745V30.9675H26.6391C24.4565 30.9675 23.3652 31.5536 23.3652 32.9768V33.1443C23.3652 34.2326 24.0368 34.9861 25.5478 34.9861C27.0588 34.9024 28.402 34.0652 28.402 32.4745ZM42.8407 38.0001C38.4755 38.0001 35.2855 35.321 35.2855 29.9629V29.7117C35.2855 24.3536 38.6434 21.5071 42.8407 21.5071C46.4504 21.5071 49.3885 23.3489 49.7243 27.4512H45.527C45.2751 25.9443 44.4357 24.9396 42.9246 24.9396C41.0778 24.9396 39.7347 26.4466 39.7347 29.5443V30.0466C39.7347 33.228 40.9099 34.6512 42.9246 34.6512C44.4357 34.6512 45.527 33.5629 45.7788 31.8047H49.8082C49.5564 35.4884 47.1219 38.0001 42.8407 38.0001ZM59.2941 38.0001C54.9289 38.0001 51.739 35.321 51.739 29.9629V29.7117C51.739 24.3536 55.0968 21.5071 59.2941 21.5071C62.9038 21.5071 65.8419 23.3489 66.1777 27.4512H61.9804C61.7286 25.9443 60.8891 24.9396 59.3781 24.9396C57.5312 24.9396 56.1881 26.4466 56.1881 29.5443V30.0466C56.1881 33.228 57.3634 34.6512 59.3781 34.6512C60.8891 34.6512 61.9804 33.5629 62.2322 31.8047H66.2616C66.0098 35.4884 63.5754 38.0001 59.2941 38.0001ZM75.8315 38.0001C71.2984 38.0001 68.1924 35.321 68.1924 30.0466V29.7117C68.1924 24.4373 71.4663 21.5071 75.7475 21.5071C79.693 21.5071 82.9669 23.6838 82.9669 28.9582V30.8838H72.6415C72.8094 33.7303 74.0686 34.8187 75.9154 34.8187C77.5944 34.8187 78.5178 33.8978 78.8536 32.8094H82.9669C82.4632 35.7396 79.9449 38.0001 75.8315 38.0001ZM72.7255 27.9536H78.6017C78.5178 25.6094 77.4265 24.6047 75.6636 24.6047C74.3205 24.6884 73.0613 25.4419 72.7255 27.9536ZM85.6532 21.9257H90.1023V24.2698C90.8578 22.7629 92.4528 21.5908 94.8873 21.5908C97.7414 21.5908 99.6722 23.3489 99.6722 27.1164V37.6652H95.223V27.7861C95.223 25.9443 94.4675 25.1071 92.8726 25.1071C91.3615 25.1071 90.1023 26.028 90.1023 28.0373V37.6652H85.6532V21.9257ZM107.815 17.1536V21.9257H110.837V25.1908H107.815V32.6419C107.815 33.814 108.319 34.4001 109.41 34.4001C110.081 34.4001 110.501 34.3164 110.921 34.1489V37.5815C110.417 37.7489 109.494 37.9164 108.403 37.9164C104.961 37.9164 103.366 36.3257 103.366 33.1443V25.1908H101.519V21.9257H103.366V18.9954L107.815 17.1536ZM127.458 37.6652H123.093V35.321C122.338 36.828 120.827 38.0001 118.476 38.0001C115.622 38.0001 113.523 36.2419 113.523 32.5582V21.9257H117.972V31.9722C117.972 33.814 118.728 34.6512 120.239 34.6512C121.75 34.6512 123.009 33.6466 123.009 31.721V21.9257H127.458V37.6652ZM130.732 21.9257H135.181V24.8559C136.105 22.7629 137.616 21.7582 139.966 21.7582V26.1117C136.944 26.1117 135.181 27.0326 135.181 29.628V37.7489H130.732V21.9257ZM148.949 38.0001C144.415 38.0001 141.309 35.321 141.309 30.0466V29.7117C141.309 24.4373 144.583 21.5071 148.865 21.5071C152.81 21.5071 156.084 23.6838 156.084 28.9582V30.8838H145.843C146.01 33.7303 147.27 34.8187 149.116 34.8187C150.795 34.8187 151.719 33.8978 152.055 32.8094H156.168C155.496 35.7396 153.062 38.0001 148.949 38.0001ZM145.759 27.9536H151.719C151.635 25.6094 150.544 24.6047 148.781 24.6047C147.438 24.6884 146.178 25.4419 145.759 27.9536Z" fill="white"/>
</g>
<defs>
<clipPath id="clip0">
<rect width="137" height="36" fill="white" transform="translate(19 2)"/>
</clipPath>
</defs>
</svg>
