<svg width="175" height="48" viewBox="0 0 175 48" fill="none" xmlns="http://www.w3.org/2000/svg">
<g clip-path="url(#clip0)">
<g clip-path="url(#clip1)">
<path d="M13.5 23.1779C13.5002 23.6406 13.3648 24.0931 13.1108 24.478C12.8568 24.8629 12.4956 25.1629 12.073 25.3402C11.6504 25.5174 11.1853 25.5639 10.7365 25.4738C10.2878 25.3837 9.87553 25.1609 9.55194 24.8338C9.22835 24.5066 9.00794 24.0898 8.9186 23.6359C8.82926 23.182 8.875 22.7116 9.05002 22.284C9.22505 21.8564 9.52151 21.4909 9.9019 21.2338C10.2823 20.9767 10.7295 20.8394 11.187 20.8394C11.8003 20.8394 12.3884 21.0858 12.8221 21.5243C13.2559 21.9628 13.4997 22.5576 13.5 23.1779ZM50.2496 23.1779C50.2499 23.6407 50.1144 24.0932 49.8603 24.4781C49.6062 24.863 49.245 25.1631 48.8223 25.3403C48.3996 25.5175 47.9345 25.564 47.4857 25.4737C47.0369 25.3835 46.6247 25.1606 46.3011 24.8334C45.9776 24.5061 45.7573 24.0891 45.6681 23.6352C45.5789 23.1812 45.6248 22.7107 45.8 22.2832C45.9752 21.8556 46.2718 21.4902 46.6524 21.2332C47.0329 20.9763 47.4803 20.8392 47.9378 20.8394C48.55 20.841 49.1367 21.088 49.5692 21.5264C50.0016 21.9647 50.2446 22.5586 50.245 23.1779H50.2496ZM31.8754 32.4075C31.8756 32.8704 31.7401 33.3229 31.4861 33.7078C31.232 34.0927 30.8708 34.3927 30.4481 34.57C30.0254 34.7472 29.5603 34.7936 29.1115 34.7034C28.6627 34.6132 28.2505 34.3903 27.9269 34.063C27.6034 33.7358 27.3831 33.3188 27.2938 32.8648C27.2046 32.4109 27.2505 31.9404 27.4257 31.5128C27.601 31.0853 27.8976 30.7199 28.2781 30.4629C28.6587 30.2059 29.106 30.0689 29.5636 30.0691C30.1766 30.0694 30.7645 30.3159 31.198 30.7544C31.6314 31.1928 31.8751 31.7874 31.8754 32.4075ZM22.6247 27.8511C22.6247 28.3138 22.489 28.7662 22.2349 29.1509C21.9807 29.5357 21.6195 29.8355 21.1969 30.0126C20.7742 30.1897 20.3092 30.236 19.8605 30.1457C19.4118 30.0555 18.9997 29.8327 18.6762 29.5055C18.3527 29.1783 18.1324 28.7614 18.0432 28.3075C17.9539 27.8537 17.9998 27.3833 18.1748 26.9558C18.3499 26.5283 18.6463 26.1629 19.0267 25.9058C19.4071 25.6487 19.8543 25.5115 20.3117 25.5115C20.9252 25.5115 21.5135 25.758 21.9472 26.1968C22.381 26.6355 22.6247 27.2306 22.6247 27.8511ZM41.0001 27.8511C41.0012 28.3143 40.8664 28.7674 40.6128 29.153C40.3591 29.5386 39.998 29.8394 39.5752 30.0173C39.1524 30.1951 38.6869 30.242 38.2377 30.152C37.7886 30.062 37.3759 29.8392 37.052 29.5118C36.7281 29.1843 36.5076 28.767 36.4184 28.3127C36.3293 27.8584 36.3754 27.3876 36.551 26.9598C36.7266 26.532 37.0238 26.1666 37.4049 25.9098C37.786 25.6531 38.2339 25.5165 38.6918 25.5174C39.3034 25.5187 39.8896 25.7649 40.3222 26.2023C40.7548 26.6396 40.9985 27.2325 41.0001 27.8511ZM12.7496 30.2592C12.7494 30.5718 12.6575 30.8773 12.4856 31.1371C12.3138 31.3969 12.0696 31.5993 11.7839 31.7187C11.4983 31.8381 11.1841 31.8692 10.8811 31.808C10.578 31.7467 10.2997 31.596 10.0813 31.3748C9.86292 31.1536 9.71431 30.8718 9.65424 30.5652C9.59418 30.2585 9.62536 29.9408 9.74384 29.652C9.86232 29.3633 10.0628 29.1166 10.3199 28.9431C10.577 28.7696 10.8792 28.6772 11.1882 28.6774C11.3934 28.6776 11.5966 28.7186 11.7861 28.7982C11.9756 28.8777 12.1478 28.9943 12.2928 29.1412C12.4378 29.2881 12.5528 29.4624 12.6311 29.6542C12.7095 29.846 12.7498 30.0516 12.7496 30.2592ZM49.4992 30.2592C49.499 30.5718 49.4071 30.8773 49.2353 31.1371C49.0634 31.3969 48.8192 31.5993 48.5336 31.7187C48.2479 31.8381 47.9337 31.8692 47.6307 31.808C47.3276 31.7467 47.0493 31.596 46.8309 31.3748C46.6125 31.1536 46.4639 30.8718 46.4039 30.5652C46.3438 30.2585 46.375 29.9408 46.4935 29.652C46.6119 29.3633 46.8124 29.1166 47.0695 28.9431C47.3266 28.7696 47.6288 28.6772 47.9378 28.6774C48.3522 28.6777 48.7494 28.8443 49.0424 29.1407C49.3354 29.437 49.5001 29.8389 49.5004 30.258L49.4992 30.2592ZM31.125 39.614C31.1253 39.9267 31.0338 40.2324 30.8622 40.4925C30.6906 40.7526 30.4465 40.9554 30.161 41.0752C29.8754 41.195 29.5611 41.2264 29.2579 41.1654C28.9546 41.1045 28.6761 40.9539 28.4575 40.7328C28.2389 40.5117 28.0901 40.2299 28.0298 39.9232C27.9695 39.6165 28.0006 39.2986 28.119 39.0097C28.2374 38.7209 28.4379 38.474 28.695 38.3005C28.9522 38.1269 29.2544 38.0343 29.5636 38.0346C29.9775 38.0352 30.3743 38.2018 30.667 38.4979C30.9597 38.7939 31.1244 39.1953 31.125 39.614ZM21.8755 34.9336C21.8755 35.2463 21.7838 35.5519 21.6121 35.8119C21.4403 36.0718 21.1962 36.2744 20.9106 36.394C20.625 36.5136 20.3108 36.5448 20.0076 36.4837C19.7045 36.4227 19.426 36.272 19.2076 36.0508C18.9891 35.8297 18.8403 35.5479 18.7802 35.2412C18.72 34.9346 18.7511 34.6167 18.8696 34.3279C18.988 34.0391 19.1885 33.7924 19.4456 33.6188C19.7027 33.4453 20.005 33.3528 20.3141 33.353C20.5192 33.353 20.7223 33.3939 20.9119 33.4734C21.1014 33.5528 21.2736 33.6693 21.4186 33.816C21.5636 33.9628 21.6786 34.1371 21.757 34.3288C21.8354 34.5206 21.8756 34.7261 21.8755 34.9336ZM40.2509 34.9336C40.2516 35.2465 40.1604 35.5526 39.989 35.8131C39.8176 36.0735 39.5735 36.2767 39.2879 36.3967C39.0022 36.5168 38.6877 36.5484 38.3843 36.4875C38.0808 36.4267 37.8021 36.2761 37.5834 36.0548C37.3646 35.8335 37.2157 35.5516 37.1555 35.2446C37.0954 34.9377 37.1266 34.6196 37.2453 34.3307C37.364 34.0417 37.5648 33.7949 37.8223 33.6215C38.0798 33.4481 38.3824 33.3559 38.6918 33.3566C39.1048 33.3578 39.5005 33.5244 39.7924 33.8199C40.0844 34.1154 40.2488 34.5159 40.2497 34.9336H40.2509ZM12.0004 35.8213C12.0004 35.9847 11.9525 36.1445 11.8628 36.2804C11.773 36.4162 11.6454 36.5221 11.4962 36.5847C11.3469 36.6472 11.1826 36.6636 11.0242 36.6317C10.8657 36.5998 10.7202 36.5211 10.6059 36.4056C10.4917 36.29 10.4139 36.1428 10.3823 35.9825C10.3508 35.8222 10.367 35.6561 10.4288 35.5051C10.4907 35.3541 10.5954 35.225 10.7297 35.1343C10.864 35.0435 11.022 34.995 11.1835 34.995C11.4002 34.995 11.608 35.0821 11.7612 35.237C11.9144 35.392 12.0004 35.6021 12.0004 35.8213ZM48.75 35.8213C48.75 35.9847 48.7021 36.1445 48.6124 36.2804C48.5226 36.4162 48.395 36.5221 48.2458 36.5847C48.0965 36.6472 47.9322 36.6636 47.7738 36.6317C47.6153 36.5998 47.4698 36.5211 47.3555 36.4056C47.2413 36.29 47.1635 36.1428 47.132 35.9825C47.1004 35.8222 47.1166 35.6561 47.1784 35.5051C47.2403 35.3541 47.345 35.225 47.4793 35.1343C47.6136 35.0435 47.7716 34.995 47.9332 34.995C48.1498 34.995 48.3576 35.0821 48.5108 35.237C48.664 35.392 48.75 35.6021 48.75 35.8213ZM30.3747 45.1785C30.3747 45.3419 30.3267 45.5016 30.237 45.6375C30.1472 45.7734 30.0196 45.8793 29.8704 45.9418C29.7211 46.0044 29.5569 46.0207 29.3984 45.9889C29.2399 45.957 29.0944 45.8783 28.9801 45.7627C28.8659 45.6472 28.7881 45.4999 28.7566 45.3397C28.725 45.1794 28.7412 45.0132 28.8031 44.8622C28.8649 44.7113 28.9696 44.5822 29.1039 44.4914C29.2383 44.4006 29.3962 44.3522 29.5578 44.3522C29.7744 44.3522 29.9822 44.4392 30.1354 44.5942C30.2886 44.7491 30.3747 44.9593 30.3747 45.1785ZM21.1251 40.5005C21.1251 40.6639 21.0772 40.8236 20.9874 40.9595C20.8977 41.0954 20.7701 41.2013 20.6208 41.2639C20.4716 41.3264 20.3073 41.3428 20.1489 41.3109C19.9904 41.279 19.8448 41.2003 19.7306 41.0847C19.6163 40.9692 19.5385 40.8219 19.507 40.6617C19.4755 40.5014 19.4917 40.3352 19.5535 40.1842C19.6153 40.0333 19.72 39.9042 19.8544 39.8134C19.9887 39.7226 20.1467 39.6742 20.3082 39.6742C20.5249 39.6742 20.7327 39.7612 20.8858 39.9162C21.039 40.0711 21.1251 40.2813 21.1251 40.5005ZM39.5005 40.5005C39.5005 40.6639 39.4526 40.8236 39.3628 40.9595C39.2731 41.0954 39.1455 41.2013 38.9962 41.2639C38.847 41.3264 38.6827 41.3428 38.5242 41.3109C38.3658 41.279 38.2202 41.2003 38.106 41.0847C37.9917 40.9692 37.9139 40.8219 37.8824 40.6617C37.8509 40.5014 37.8671 40.3352 37.9289 40.1842C37.9907 40.0333 38.0954 39.9042 38.2298 39.8134C38.3641 39.7226 38.522 39.6742 38.6836 39.6742C38.9003 39.6742 39.108 39.7612 39.2612 39.9162C39.4144 40.0711 39.5005 40.2813 39.5005 40.5005ZM32.6234 5.16116C32.6234 5.78647 32.4401 6.39774 32.0966 6.91764C31.7531 7.43754 31.2649 7.84272 30.6937 8.08191C30.1225 8.3211 29.494 8.38356 28.8877 8.2614C28.2814 8.13923 27.7246 7.83793 27.2876 7.39559C26.8506 6.95326 26.5531 6.38978 26.4328 5.77642C26.3125 5.16306 26.3747 4.52738 26.6116 3.9498C26.8485 3.37221 27.2494 2.87867 27.7637 2.5316C28.2779 2.18454 28.8824 1.99953 29.5006 2C30.329 2.00063 31.1233 2.33395 31.7089 2.92672C32.2945 3.51948 32.6234 4.32317 32.6234 5.16116ZM32.6234 14.5124C32.6234 15.1377 32.4401 15.7489 32.0967 16.2688C31.7532 16.7887 31.2651 17.1938 30.6939 17.4331C30.1228 17.6723 29.4944 17.7348 28.8881 17.6127C28.2819 17.4907 27.725 17.1895 27.288 16.7473C26.851 16.3051 26.5534 15.7417 26.433 15.1284C26.3125 14.5151 26.3746 13.8795 26.6113 13.3019C26.848 12.7243 27.2487 12.2306 27.7628 11.8834C28.2769 11.5362 28.8813 11.351 29.4994 11.3513C30.3281 11.3516 31.1227 11.6848 31.7085 12.2776C32.2943 12.8704 32.6234 13.6742 32.6234 14.5124ZM32.6234 23.7433C32.6234 24.3685 32.4401 24.9798 32.0967 25.4996C31.7532 26.0195 31.2651 26.4247 30.6939 26.6639C30.1228 26.9031 29.4944 26.9657 28.8881 26.8436C28.2819 26.7215 27.725 26.4203 27.288 25.9781C26.851 25.5359 26.5534 24.9725 26.433 24.3593C26.3125 23.746 26.3746 23.1103 26.6113 22.5327C26.848 21.9551 27.2487 21.4615 27.7628 21.1143C28.2769 20.7671 28.8813 20.5819 29.4994 20.5821C29.9101 20.5823 30.3168 20.6643 30.6961 20.8235C31.0754 20.9828 31.42 21.2161 31.7102 21.5101C32.0003 21.8041 32.2303 22.1531 32.387 22.5371C32.5437 22.9211 32.6241 23.3326 32.6234 23.748V23.7433ZM51 14.5124C51 15.1376 50.8167 15.7488 50.4733 16.2687C50.1299 16.7885 49.6418 17.1937 49.0708 17.4329C48.4997 17.6722 47.8713 17.7348 47.2651 17.6128C46.6589 17.4909 46.102 17.1898 45.665 16.7477C45.2279 16.3056 44.9302 15.7423 44.8097 15.1291C44.6891 14.5159 44.751 13.8803 44.9875 13.3027C45.224 12.7251 45.6246 12.2314 46.1385 11.884C46.6525 11.5367 47.2567 11.3513 47.8748 11.3513C48.7037 11.3513 49.4986 11.6843 50.0846 12.2771C50.6707 12.87 51 13.674 51 14.5124ZM14.2504 14.5124C14.2513 15.1378 14.0688 15.7495 13.726 16.2699C13.3831 16.7904 12.8954 17.1963 12.3244 17.4363C11.7534 17.6763 11.1249 17.7396 10.5184 17.6181C9.91183 17.4967 9.35453 17.196 8.917 16.7541C8.47947 16.3122 8.18136 15.7489 8.06039 15.1356C7.93943 14.5223 8.00104 13.8864 8.23745 13.3085C8.47385 12.7306 8.87441 12.2366 9.38844 11.8891C9.90248 11.5415 10.5069 11.356 11.1252 11.356C11.9532 11.356 12.7474 11.6884 13.3334 12.2802C13.9193 12.872 14.2491 13.6748 14.2504 14.5124ZM23.4999 9.83442C23.5009 10.4596 23.3185 11.0711 22.9758 11.5915C22.6332 12.1118 22.1457 12.5177 21.575 12.7579C21.0043 12.998 20.376 13.0615 19.7696 12.9405C19.1632 12.8194 18.6059 12.5192 18.1682 12.0778C17.7305 11.6363 17.432 11.0735 17.3105 10.4605C17.189 9.84746 17.25 9.21177 17.4857 8.63379C17.7213 8.0558 18.1212 7.56149 18.6346 7.21337C19.148 6.86524 19.752 6.67893 20.3701 6.67799C21.1989 6.67799 21.9938 7.01104 22.5799 7.60387C23.166 8.1967 23.4953 9.00076 23.4953 9.83915L23.4999 9.83442ZM23.4953 19.0688C23.4953 19.694 23.312 20.3052 22.9686 20.8251C22.6252 21.3449 22.1371 21.7501 21.566 21.9893C20.995 22.2286 20.3666 22.2912 19.7604 22.1692C19.1541 22.0473 18.5973 21.7462 18.1602 21.3041C17.7232 20.862 17.4255 20.2987 17.3049 19.6855C17.1843 19.0723 17.2462 18.4367 17.4828 17.8591C17.7193 17.2815 18.1199 16.7878 18.6338 16.4404C19.1477 16.0931 19.752 15.9077 20.3701 15.9077C21.1989 15.9077 21.9938 16.2407 22.5799 16.8335C23.166 17.4264 23.4953 18.2304 23.4953 19.0688ZM41.8753 9.83915C41.8753 10.4644 41.692 11.0755 41.3486 11.5954C41.0052 12.1152 40.5171 12.5204 39.9461 12.7597C39.375 12.9989 38.7467 13.0615 38.1404 12.9396C37.5342 12.8176 36.9773 12.5165 36.5403 12.0744C36.1032 11.6323 35.8056 11.0691 35.685 10.4559C35.5644 9.84265 35.6263 9.20705 35.8628 8.62942C36.0994 8.0518 36.4999 7.55809 37.0139 7.21074C37.5278 6.86339 38.132 6.67799 38.7501 6.67799C39.579 6.67799 40.3739 7.01104 40.96 7.60387C41.5461 8.1967 41.8753 9.00076 41.8753 9.83915ZM41.8753 19.0688C41.8753 19.694 41.692 20.3052 41.3486 20.8251C41.0052 21.3449 40.5171 21.7501 39.9461 21.9893C39.375 22.2286 38.7467 22.2912 38.1404 22.1692C37.5342 22.0473 36.9773 21.7462 36.5403 21.3041C36.1032 20.862 35.8056 20.2987 35.685 19.6855C35.5644 19.0723 35.6263 18.4367 35.8628 17.8591C36.0994 17.2815 36.4999 16.7878 37.0139 16.4404C37.5278 16.0931 38.132 15.9077 38.7501 15.9077C39.579 15.9077 40.3739 16.2407 40.96 16.8335C41.5461 17.4264 41.8753 18.2304 41.8753 19.0688Z" fill="white"/>
</g>
<path d="M62.626 21.937C62.626 20.0581 62.9873 18.3659 63.71 16.8604C64.4447 15.3548 65.4744 14.1865 66.7993 13.3555C68.1362 12.5124 69.6478 12.0908 71.334 12.0908C73.9355 12.0908 76.0433 13.0062 77.6572 14.8369C79.2712 16.6556 80.0781 19.0705 80.0781 22.0815V22.5332C80.0781 24.4242 79.7108 26.1284 78.9761 27.646C78.2534 29.1515 77.2297 30.3138 75.9048 31.1328C74.5799 31.9518 73.0684 32.3613 71.3701 32.3613C68.7806 32.3613 66.6729 31.452 65.0469 29.6333C63.4329 27.8026 62.626 25.3817 62.626 22.3706V21.937ZM64.7939 22.5332C64.7939 24.8698 65.3962 26.7909 66.6006 28.2964C67.8171 29.7899 69.4069 30.5366 71.3701 30.5366C73.3213 30.5366 74.8991 29.7899 76.1035 28.2964C77.32 26.7909 77.9282 24.8096 77.9282 22.3525V21.937C77.9282 20.4435 77.6512 19.0765 77.0972 17.8359C76.5431 16.5954 75.7663 15.6379 74.7666 14.9634C73.7669 14.2769 72.6227 13.9336 71.334 13.9336C69.4069 13.9336 67.8351 14.6924 66.6187 16.21C65.4022 17.7155 64.7939 19.6908 64.7939 22.1357V22.5332ZM92.5252 30.5366C94.0307 30.5366 95.2893 30.1151 96.301 29.272C97.3248 28.4168 97.8788 27.3148 97.9631 25.9658H100.041C99.9806 27.1582 99.6072 28.2482 98.9207 29.2358C98.2341 30.2114 97.3188 30.9762 96.1746 31.5303C95.0424 32.0843 93.8259 32.3613 92.5252 32.3613C89.9597 32.3613 87.9242 31.4701 86.4187 29.6875C84.9252 27.9049 84.1785 25.5081 84.1785 22.4971V21.8467C84.1785 19.9196 84.5157 18.2153 85.1902 16.7339C85.8647 15.2524 86.8282 14.1082 88.0808 13.3013C89.3455 12.4943 90.8209 12.0908 92.5071 12.0908C94.651 12.0908 96.4155 12.7292 97.8005 14.0059C99.1977 15.2826 99.9444 16.9627 100.041 19.0464H97.9631C97.8668 17.5168 97.3128 16.2822 96.301 15.3428C95.3014 14.4033 94.0367 13.9336 92.5071 13.9336C90.5559 13.9336 89.0383 14.6382 87.9544 16.0474C86.8824 17.4565 86.3464 19.4318 86.3464 21.9731V22.6055C86.3464 25.0986 86.8824 27.0438 87.9544 28.4409C89.0383 29.8381 90.5619 30.5366 92.5252 30.5366ZM112.687 32.3613C111.024 32.3613 109.519 31.9518 108.17 31.1328C106.833 30.3138 105.791 29.1756 105.044 27.7183C104.298 26.2489 103.924 24.6048 103.924 22.7861V22.0093C103.924 20.1304 104.286 18.4382 105.008 16.9326C105.743 15.4271 106.761 14.2467 108.062 13.3916C109.362 12.5244 110.772 12.0908 112.289 12.0908C114.662 12.0908 116.541 12.9038 117.926 14.5298C119.323 16.1437 120.022 18.3538 120.022 21.1602V22.3706H106.074V22.7861C106.074 25.0023 106.707 26.8511 107.971 28.3325C109.248 29.8019 110.85 30.5366 112.777 30.5366C113.933 30.5366 114.951 30.3258 115.83 29.9043C116.721 29.4827 117.528 28.8083 118.251 27.8809L119.606 28.9106C118.016 31.2111 115.71 32.3613 112.687 32.3613ZM112.289 13.9336C110.663 13.9336 109.29 14.5298 108.17 15.7222C107.062 16.9146 106.387 18.5164 106.147 20.5278H117.872V20.293C117.811 18.4141 117.275 16.8844 116.264 15.7041C115.252 14.5238 113.927 13.9336 112.289 13.9336ZM137.31 32C137.094 31.3857 136.955 30.4764 136.895 29.272C136.136 30.2596 135.166 31.0244 133.986 31.5664C132.818 32.0964 131.577 32.3613 130.264 32.3613C128.386 32.3613 126.862 31.8374 125.694 30.7896C124.537 29.7417 123.959 28.4168 123.959 26.8149C123.959 24.9119 124.748 23.4064 126.326 22.2983C127.916 21.1903 130.126 20.6362 132.956 20.6362H136.877V18.4141C136.877 17.0169 136.443 15.9209 135.576 15.126C134.721 14.319 133.468 13.9155 131.818 13.9155C130.313 13.9155 129.066 14.3009 128.078 15.0718C127.091 15.8426 126.597 16.77 126.597 17.854L124.429 17.8359C124.429 16.2822 125.152 14.9393 126.597 13.8071C128.042 12.6629 129.819 12.0908 131.927 12.0908C134.107 12.0908 135.823 12.6388 137.075 13.7349C138.34 14.8188 138.991 16.3364 139.027 18.2876V27.5376C139.027 29.4285 139.225 30.8438 139.623 31.7832V32H137.31ZM130.517 30.4463C131.963 30.4463 133.251 30.097 134.384 29.3984C135.528 28.6999 136.359 27.7664 136.877 26.5981V22.2983H133.011C130.855 22.3224 129.168 22.7199 127.952 23.4907C126.735 24.2495 126.127 25.2974 126.127 26.6343C126.127 27.7303 126.531 28.6396 127.338 29.3623C128.157 30.085 129.217 30.4463 130.517 30.4463ZM147.607 12.4521L147.68 15.7944C148.414 14.59 149.33 13.6746 150.426 13.0483C151.522 12.41 152.732 12.0908 154.057 12.0908C156.153 12.0908 157.713 12.681 158.736 13.8613C159.76 15.0417 160.278 16.8122 160.29 19.1729V32H158.14V19.1548C158.128 17.4084 157.755 16.1076 157.02 15.2524C156.297 14.3973 155.135 13.9697 153.533 13.9697C152.196 13.9697 151.01 14.3913 149.974 15.2344C148.95 16.0654 148.192 17.1916 147.698 18.6128V32H145.548V12.4521H147.607Z" fill="white"/>
</g>
<defs>
<clipPath id="clip0">
<rect width="175" height="48" fill="white"/>
</clipPath>
<clipPath id="clip1">
<rect width="43" height="44" fill="white" transform="translate(8 2)"/>
</clipPath>
</defs>
</svg>
