<svg width="65" height="82" viewBox="0 0 65 82" fill="none" xmlns="http://www.w3.org/2000/svg">
<g clip-path="url(#clip0)">
<path d="M23.7986 41.6604C24.1703 41.6604 24.4716 41.359 24.4716 40.9873C24.4716 40.6156 24.1703 40.3142 23.7986 40.3142C23.4268 40.3142 23.1255 40.6156 23.1255 40.9873C23.1255 41.359 23.4268 41.6604 23.7986 41.6604Z" fill="white"/>
<path d="M22.0709 38.6666C22.0333 38.8063 21.9551 38.9316 21.8462 39.0266C21.7372 39.1216 21.6024 39.182 21.459 39.2002C21.3155 39.2183 21.1699 39.1934 21.0407 39.1285C20.9115 39.0636 20.8045 38.9617 20.7334 38.8359C20.6623 38.71 20.6302 38.5658 20.6413 38.4216C20.6524 38.2775 20.7062 38.1399 20.7958 38.0264C20.8853 37.9129 21.0067 37.8286 21.1443 37.7843C21.2819 37.74 21.4296 37.7377 21.5686 37.7776C21.7435 37.843 21.8898 37.968 21.9817 38.1306C22.0736 38.2932 22.1052 38.483 22.0709 38.6666Z" fill="white"/>
<path d="M20.2175 35.7985C20.0969 35.9564 19.9291 36.0716 19.7385 36.1276C19.5479 36.1836 19.3444 36.1774 19.1576 36.1099C18.9999 35.988 18.8849 35.8193 18.829 35.6281C18.773 35.4368 18.7791 35.2327 18.8461 35.0451C18.9677 34.8871 19.1367 34.7721 19.3283 34.717C19.5199 34.6618 19.724 34.6694 19.911 34.7387C20.0692 34.8589 20.1845 35.0269 20.2397 35.2179C20.2949 35.4088 20.2871 35.6124 20.2175 35.7985Z" fill="white"/>
<path d="M19.052 32.5085C18.9391 32.6305 18.7925 32.7161 18.6308 32.7546C18.4691 32.7931 18.2996 32.7827 18.1438 32.7247C17.988 32.6667 17.853 32.5637 17.7558 32.4288C17.6587 32.2939 17.6038 32.1332 17.5981 31.9671C17.5925 31.801 17.6363 31.6369 17.7241 31.4958C17.8118 31.3546 17.9395 31.2427 18.091 31.1742C18.2425 31.1057 18.4108 31.0838 18.5748 31.1112C18.7387 31.1386 18.8909 31.2141 19.0118 31.3281C19.1301 31.5007 19.1966 31.7034 19.2037 31.9124C19.2109 32.1215 19.1582 32.3283 19.052 32.5085Z" fill="white"/>
<path d="M18.6751 29.1782C18.4752 29.3061 18.2328 29.3494 18.0011 29.2985C17.7694 29.2477 17.5673 29.1068 17.4394 28.907C17.3116 28.7072 17.2683 28.4647 17.3191 28.233C17.37 28.0013 17.5108 27.7993 17.7106 27.6714C17.9105 27.5435 18.153 27.5002 18.3847 27.5511C18.6164 27.6019 18.8184 27.7428 18.9463 27.9426C19.0742 28.1424 19.1175 28.3849 19.0666 28.6166C19.0158 28.8483 18.8749 29.0504 18.6751 29.1782Z" fill="white"/>
<path d="M19.0469 25.9284C18.7756 26.0489 17.9619 25.617 17.8413 25.3457C17.8398 25.1143 17.8915 24.8856 17.9925 24.6775C18.0936 24.4693 18.2412 24.2872 18.424 24.1452C18.7003 24.0247 19.509 24.4516 19.6295 24.7229C19.7501 24.9941 19.3181 25.8078 19.0469 25.9284Z" fill="white"/>
<path d="M20.1071 22.8745C19.8258 22.9298 19.0624 22.2617 19.0071 21.9854C18.9519 21.7092 19.6249 20.9407 19.9012 20.8854C20.1775 20.8302 20.9459 21.5032 20.9962 21.7795C21.0464 22.0558 20.3834 22.8243 20.1071 22.8745Z" fill="white"/>
<path d="M21.7945 20.127C21.5283 20.127 20.8753 19.2128 20.8854 18.9466C20.8954 18.6804 21.7945 18.0274 22.0657 18.0375C22.337 18.0475 22.985 18.9466 22.9749 19.2179C22.9649 19.4891 22.0657 20.1371 21.7945 20.127Z" fill="white"/>
<path d="M24.0598 17.8013C23.8137 17.741 23.3516 16.6159 23.4169 16.3748C23.4822 16.1337 24.6023 15.6615 24.8484 15.7268C25.0945 15.7921 25.5567 16.9123 25.4914 17.1584C25.4261 17.4045 24.3059 17.8566 24.0598 17.8013Z" fill="white"/>
<path d="M26.8529 15.9831C26.6419 15.8726 26.436 14.5716 26.5465 14.3607C26.657 14.1497 27.9579 13.9488 28.1689 14.0593C28.3799 14.1698 28.5808 15.4657 28.4703 15.6767C28.3597 15.8877 27.0588 16.0936 26.8529 15.9831Z" fill="white"/>
<path d="M30.1227 14.7875C29.952 14.6418 30.0725 13.2354 30.2181 13.0646C30.3638 12.8938 31.7703 13.0144 31.941 13.1601C32.1118 13.3057 31.9912 14.7172 31.8456 14.8829C31.6999 15.0487 30.2885 14.9533 30.1227 14.7875Z" fill="white"/>
<path d="M33.8344 14.4008C33.7139 14.2351 34.186 12.7985 34.3367 12.6729C34.4874 12.5473 35.944 13.0245 36.0646 13.1752C36.1851 13.3259 35.713 14.7775 35.5623 14.9031C35.4116 15.0287 33.955 14.5716 33.8344 14.4008Z" fill="white"/>
<path d="M37.1899 14.7876C37.1246 14.6067 38.0387 13.2807 38.1944 13.2154C38.3502 13.1501 39.7013 14.0592 39.7666 14.22C39.8319 14.3807 38.9178 15.7269 38.737 15.7922C38.5561 15.8575 37.2552 14.9533 37.1899 14.7876Z" fill="white"/>
<path d="M40.4849 16.1337C40.4849 15.9528 41.7154 14.7925 41.8913 14.7725C42.0671 14.7524 43.2324 16.0031 43.2525 16.1789C43.2726 16.3547 42.0219 17.52 41.8461 17.5401C41.6703 17.5602 40.505 16.2944 40.4849 16.1337Z" fill="white"/>
<path d="M43.2373 17.962C43.7745 17.5416 44.3791 17.2155 45.0254 16.9976C45.1912 16.9976 46.0301 18.625 45.9949 18.7857C45.9597 18.9465 44.3675 19.7903 44.2017 19.7552C43.7802 19.2169 43.4539 18.6104 43.2373 17.962Z" fill="white"/>
<path d="M45.6187 20.8452C46.273 20.5767 46.9637 20.4074 47.668 20.3429C47.9342 20.998 48.1034 21.6884 48.1703 22.3923C47.515 22.6578 46.8247 22.827 46.1209 22.8946C45.8535 22.2399 45.6843 21.5493 45.6187 20.8452Z" fill="white"/>
<path d="M47.1958 24.0097C47.9216 23.9058 48.6578 23.8974 49.3858 23.9846C49.489 24.712 49.4991 25.4497 49.416 26.1796C48.6871 26.2702 47.9498 26.2702 47.2209 26.1796C47.1191 25.4604 47.1107 24.7311 47.1958 24.0097Z" fill="white"/>
<path d="M47.9842 27.2545C48.7385 27.3417 49.4812 27.5101 50.1994 27.7568C50.1152 28.5116 49.9467 29.2546 49.6971 29.9719C48.9423 29.8872 48.1994 29.7187 47.4819 29.4696C47.5691 28.7153 47.7376 27.9727 47.9842 27.2545Z" fill="white"/>
<path d="M48.0245 30.4893C48.7588 30.7668 49.4652 31.1132 50.1341 31.524C49.8587 32.2592 49.5122 32.9658 49.0994 33.6336C48.3651 33.3561 47.6587 33.0097 46.9897 32.5989C47.2693 31.8655 47.6157 31.1593 48.0245 30.4893Z" fill="white"/>
<path d="M47.3663 33.6035C48.0302 34.0589 48.6598 34.5626 49.2499 35.1104C48.7957 35.7753 48.292 36.405 47.743 36.994C47.0768 36.5415 46.447 36.0377 45.8594 35.4871C46.3105 34.82 46.8144 34.1901 47.3663 33.6035Z" fill="white"/>
<path d="M46.0502 36.4917C46.6054 37.116 47.122 37.7735 47.5972 38.4607C46.9712 39.016 46.312 39.5327 45.6232 40.0078C45.0667 39.3828 44.5501 38.7235 44.0762 38.0337C44.7012 37.4789 45.3605 36.9639 46.0502 36.4917Z" fill="white"/>
<path d="M44.1366 39.0333C44.1919 39.0333 45.2416 41.3187 45.2316 41.374C45.2215 41.4292 42.9511 42.484 42.8909 42.474C42.4865 41.7128 42.1211 40.9315 41.7959 40.1333C41.8059 40.073 44.0763 39.0232 44.1366 39.0333Z" fill="white"/>
<path d="M41.6654 41.1329C41.7055 41.1329 42.2279 43.6946 42.2128 43.7398C42.1978 43.785 39.6462 44.3024 39.606 44.2823C39.5658 44.2622 39.0434 41.7156 39.0584 41.6754C39.0735 41.6352 41.6252 41.1128 41.6654 41.1329Z" fill="white"/>
<path d="M38.7719 42.695L38.586 45.4275C38.586 45.4275 35.8737 45.2567 35.8536 45.2366C35.8335 45.2165 36.0193 42.5242 36.0394 42.4991C36.0595 42.474 38.7468 42.6749 38.7719 42.695Z" fill="white"/>
<path d="M35.4922 43.2978C35.4922 43.2978 34.5278 45.9348 34.5178 45.9398C34.5077 45.9449 31.8807 44.9754 31.8707 44.9654C31.8606 44.9554 32.8351 42.3284 32.8501 42.3183C32.8652 42.3083 35.4872 43.2827 35.4922 43.2978Z" fill="white"/>
<path d="M29.531 41.7261L28.2568 44.3292L30.86 45.6034L32.1341 43.0002L29.531 41.7261Z" fill="white"/>
<path d="M23.3368 48.3107C23.8472 48.3107 24.261 47.8969 24.261 47.3865C24.261 46.8761 23.8472 46.4623 23.3368 46.4623C22.8264 46.4623 22.4126 46.8761 22.4126 47.3865C22.4126 47.8969 22.8264 48.3107 23.3368 48.3107Z" fill="white"/>
<path d="M21.0061 45.1813C20.9991 45.3722 20.9359 45.5568 20.8243 45.712C20.7128 45.8671 20.5579 45.9858 20.3791 46.0531C20.2003 46.1205 20.0056 46.1335 19.8194 46.0906C19.6333 46.0476 19.4639 45.9506 19.3327 45.8118C19.2015 45.6729 19.1142 45.4984 19.0819 45.3101C19.0495 45.1218 19.0735 44.9281 19.1509 44.7534C19.2282 44.5787 19.3555 44.4308 19.5167 44.3282C19.6778 44.2256 19.8657 44.1729 20.0567 44.1767C20.3135 44.1909 20.555 44.3029 20.7316 44.4898C20.9082 44.6767 21.0065 44.9242 21.0061 45.1813Z" fill="white"/>
<path d="M18.1577 42.5293C18.1123 42.7223 18.0108 42.8975 17.866 43.0329C17.7212 43.1683 17.5397 43.2578 17.3441 43.2902C17.1486 43.3226 16.9478 43.2965 16.7671 43.215C16.5864 43.1336 16.4338 43.0005 16.3285 42.8325C16.2233 42.6646 16.1701 42.4692 16.1757 42.2711C16.1812 42.0729 16.2452 41.8809 16.3597 41.719C16.4742 41.5572 16.634 41.4329 16.8189 41.3616C17.0039 41.2904 17.2058 41.2755 17.3992 41.3188C17.6452 41.4032 17.8547 41.5695 17.9928 41.7898C18.1308 42.0101 18.189 42.2712 18.1577 42.5293Z" fill="white"/>
<path d="M15.8123 39.2845C15.7235 39.4735 15.5806 39.6318 15.4017 39.7396C15.2228 39.8473 15.016 39.8995 14.8075 39.8896C14.5989 39.8797 14.398 39.8081 14.2301 39.6838C14.0623 39.5596 13.9351 39.3884 13.8646 39.1918C13.7942 38.9953 13.7836 38.7822 13.8343 38.5797C13.8851 38.3771 13.9948 38.1942 14.1495 38.054C14.3043 37.9139 14.4973 37.8228 14.7038 37.7924C14.9104 37.762 15.1214 37.7935 15.31 37.8831C15.5316 38.0331 15.6997 38.2498 15.79 38.5017C15.8803 38.7537 15.8882 39.0278 15.8123 39.2845Z" fill="white"/>
<path d="M14.1594 35.6981C14.0298 35.8729 13.8512 36.0054 13.6462 36.0787C13.4412 36.152 13.2191 36.1628 13.0079 36.1098C12.7968 36.0568 12.6061 35.9423 12.4601 35.7809C12.314 35.6194 12.2192 35.4183 12.1875 35.2029C12.1558 34.9876 12.1888 34.7676 12.2822 34.571C12.3755 34.3744 12.5252 34.2098 12.7121 34.0983C12.899 33.9867 13.1149 33.9331 13.3323 33.9443C13.5497 33.9555 13.7589 34.0309 13.9334 34.1611C14.1179 34.3667 14.2377 34.6222 14.2779 34.8955C14.3181 35.1689 14.2769 35.448 14.1594 35.6981Z" fill="white"/>
<path d="M13.2505 31.9862C12.9492 32.2875 11.9345 32.1921 11.6331 31.8907C11.3317 31.5894 11.4272 30.5797 11.7286 30.2784C12.0299 29.977 13.0395 30.0724 13.3409 30.3738C13.6423 30.6752 13.5469 31.6848 13.2505 31.9862Z" fill="white"/>
<path d="M13.0497 28.239C12.7132 28.47 11.6534 28.1536 11.4223 27.8171C11.1913 27.4805 11.5077 26.4257 11.8442 26.1946C12.1808 25.9636 13.2406 26.275 13.4716 26.6115C13.7027 26.9481 13.3863 28.0079 13.0497 28.239Z" fill="white"/>
<path d="M13.5318 24.5522C13.1752 24.7079 12.1254 24.1604 11.9647 23.7987C11.8039 23.4371 12.3564 22.3873 12.7181 22.2316C13.0798 22.0758 14.1295 22.6233 14.2853 22.985C14.441 23.3467 13.8935 24.3914 13.5318 24.5522Z" fill="white"/>
<path d="M14.6771 21.021C14.3104 21.1064 13.3159 20.3128 13.2305 19.9461C13.1451 19.5794 13.9387 18.5849 14.3054 18.4995C14.6721 18.4141 15.6666 19.2128 15.752 19.5744C15.8374 19.9361 15.0388 20.9356 14.6771 21.021Z" fill="white"/>
<path d="M16.45 17.7461C16.0934 17.7461 15.2093 16.7415 15.1893 16.3648C15.1692 15.9881 16.1938 15.1241 16.5706 15.1091C16.9473 15.094 17.8112 16.1136 17.8263 16.4904C17.8414 16.8671 16.8066 17.726 16.45 17.7461Z" fill="white"/>
<path d="M18.8207 14.8127C18.4841 14.7675 17.7759 13.4967 17.8161 13.1602C17.8563 12.8236 19.1321 12.1204 19.4686 12.1556C19.8051 12.1907 20.5134 13.4716 20.4732 13.8081C20.433 14.1447 19.1572 14.8629 18.8207 14.8127Z" fill="white"/>
<path d="M21.7745 12.3264C21.4731 12.2159 21.0009 10.7542 21.1064 10.4478C21.2119 10.1414 22.6786 9.67425 22.985 9.77973C23.2914 9.88521 23.7585 11.3519 23.6531 11.6583C23.5476 11.9647 22.0809 12.4318 21.7745 12.3264Z" fill="white"/>
<path d="M25.2958 10.3774C25.0296 10.2217 24.8487 8.60432 25.0044 8.36824C25.1601 8.13216 26.7775 7.9212 27.0136 8.07691C27.2497 8.23262 27.4556 9.85001 27.305 10.0861C27.1543 10.3222 25.557 10.5331 25.2958 10.3774Z" fill="white"/>
<path d="M29.3589 9.07648C29.1429 8.88561 29.2886 7.17781 29.4795 6.96182C29.6703 6.74584 31.3781 6.8915 31.5941 7.08238C31.8101 7.27325 31.6644 8.98105 31.4736 9.19704C31.2827 9.41302 29.5749 9.26233 29.3589 9.07648Z" fill="white"/>
<path d="M33.3726 8.53389C33.2168 8.31288 33.7794 6.60005 34.0054 6.44434C34.2315 6.28863 35.9343 6.8512 36.09 7.07221C36.2457 7.29322 35.6831 9.00604 35.4621 9.16176C35.2411 9.31747 33.5333 8.75992 33.3726 8.53389Z" fill="white"/>
<path d="M37.3104 8.97599C37.205 8.74494 38.1493 7.10746 38.3803 7.007C38.6114 6.90654 40.2489 7.84583 40.3544 8.08191C40.4598 8.31799 39.5105 9.94542 39.2794 10.0509C39.0484 10.1564 37.4109 9.21207 37.3104 8.97599Z" fill="white"/>
<path d="M41.2433 10.1916C41.183 9.96052 42.4688 8.46369 42.6999 8.40341C42.9309 8.34314 44.4328 9.63403 44.4881 9.86509C44.5433 10.0961 43.2624 11.598 43.0264 11.6533C42.7903 11.7085 41.2985 10.4226 41.2433 10.1916Z" fill="white"/>
<path d="M44.5435 11.8942C44.5435 11.6732 46.2312 10.4828 46.4522 10.4828C46.6732 10.4828 47.8636 12.1705 47.8586 12.3915C47.8536 12.6125 46.1759 13.803 45.9549 13.7979C45.7339 13.7929 44.5435 12.1152 44.5435 11.8942Z" fill="white"/>
<path d="M47.8387 14.8278C47.8789 14.6269 49.8479 13.7429 50.0388 13.7831C50.2296 13.8232 51.1187 15.7922 51.0785 15.9831C51.0383 16.174 49.0693 17.0681 48.8835 17.0279C48.6976 16.9877 47.7985 15.0288 47.8387 14.8278Z" fill="white"/>
<path d="M50.3499 18.0776C50.4252 17.9068 52.6002 17.3995 52.776 17.4698C52.9518 17.5401 53.454 19.7201 53.3787 19.8959C53.3033 20.0717 51.1284 20.574 50.9577 20.4986C50.7869 20.4233 50.2796 18.2483 50.3499 18.0776Z" fill="white"/>
<path d="M52.1181 21.5584C52.2135 21.4178 54.5342 21.3474 54.6748 21.4429C54.8155 21.5383 54.8858 23.8589 54.7954 23.9996C54.705 24.1402 52.3794 24.2105 52.2337 24.1201C52.088 24.0297 52.0227 21.7041 52.1181 21.5584Z" fill="white"/>
<path d="M53.153 25.1951C54.0311 25.2182 54.9032 25.3481 55.7499 25.5818C55.723 26.46 55.5915 27.3317 55.3581 28.1787C54.48 28.1556 53.608 28.0257 52.7612 27.7919C52.7881 26.9138 52.9197 26.042 53.153 25.1951Z" fill="white"/>
<path d="M53.4942 28.887C54.3602 29.0991 55.2018 29.4004 56.0057 29.7861C55.7976 30.6526 55.4979 31.4945 55.1116 32.2975C54.2451 32.0895 53.4032 31.7898 52.6001 31.4035C52.809 30.5356 53.1087 29.6921 53.4942 28.887Z" fill="white"/>
<path d="M53.1529 32.5487C53.9852 32.9379 54.7805 33.4019 55.5288 33.935C55.138 34.7665 54.6741 35.5616 54.1424 36.3109C53.3089 35.924 52.5135 35.4598 51.7666 34.9246C52.1558 34.0922 52.6198 33.297 53.1529 32.5487Z" fill="white"/>
<path d="M52.1483 36.0797C52.9015 36.6403 53.6117 37.2565 54.273 37.9231C53.7134 38.6787 53.0954 39.3891 52.4246 40.0478C51.6711 39.4875 50.9609 38.8712 50.2998 38.2044C50.8621 37.4511 51.48 36.7409 52.1483 36.0797Z" fill="white"/>
<path d="M50.5256 39.4C51.1645 40.1159 51.7584 40.8708 52.3037 41.6603C51.5891 42.3008 50.8341 42.8947 50.0434 43.4385C49.4029 42.7226 48.8073 41.9677 48.2603 41.1781C48.9789 40.5404 49.7354 39.9466 50.5256 39.4Z" fill="white"/>
<path d="M48.2908 42.3686C48.3561 42.3686 49.642 44.9202 49.632 44.9855C49.6219 45.0508 47.0854 46.3367 47.015 46.3317C46.9447 46.3267 45.6638 43.78 45.6739 43.7097C45.6839 43.6394 48.2205 42.3585 48.2908 42.3686Z" fill="white"/>
<path d="M45.4677 44.9252C45.5129 44.9252 46.3065 47.7682 46.2914 47.8134C46.2764 47.8586 43.4484 48.6572 43.3982 48.6371C43.348 48.617 42.5594 45.7941 42.5744 45.7489C42.5895 45.7037 45.4174 44.9252 45.4677 44.9252Z" fill="white"/>
<path d="M42.2982 46.9344C42.2982 46.9344 42.2982 49.9783 42.2982 50.0034C42.2982 50.0285 39.2844 50.0034 39.2291 50.0034C39.1739 50.0034 39.2291 46.9595 39.2291 46.9344C39.2291 46.9093 42.268 46.9344 42.2982 46.9344Z" fill="white"/>
<path d="M38.4355 47.9389C38.4355 47.9389 37.8479 51.0029 37.8378 51.013C37.8278 51.023 34.7738 50.4253 34.7638 50.4152C34.7538 50.4052 35.3515 47.3512 35.3615 47.3412C35.3715 47.3311 38.4255 47.9389 38.4355 47.9389Z" fill="white"/>
<path d="M31.533 47.4037L30.689 50.4849L33.77 51.3289L34.6141 48.2478L31.533 47.4037Z" fill="white"/>
<path d="M24.3862 55.614C25.0437 55.614 25.5767 55.081 25.5767 54.4236C25.5767 53.7661 25.0437 53.2332 24.3862 53.2332C23.7288 53.2332 23.1958 53.7661 23.1958 54.4236C23.1958 55.081 23.7288 55.614 24.3862 55.614Z" fill="white"/>
<path d="M21.5688 52.4596C21.6085 52.698 21.5769 52.9429 21.4779 53.1633C21.3788 53.3838 21.2168 53.5701 21.0122 53.6987C20.8075 53.8274 20.5695 53.8926 20.3278 53.8863C20.0862 53.88 19.8518 53.8024 19.6542 53.6632C19.4566 53.524 19.3045 53.3295 19.2172 53.1042C19.1298 52.8788 19.111 52.6326 19.1632 52.3966C19.2153 52.1606 19.3361 51.9453 19.5103 51.7778C19.6845 51.6102 19.9044 51.4979 20.1423 51.455C20.463 51.4112 20.7884 51.4905 21.053 51.6769C21.3177 51.8632 21.502 52.1429 21.5688 52.4596Z" fill="white"/>
<path d="M17.8968 50.2345C17.8978 50.4849 17.8245 50.7299 17.6863 50.9386C17.548 51.1473 17.3509 51.3103 17.12 51.407C16.8891 51.5037 16.6347 51.5298 16.389 51.482C16.1433 51.4341 15.9172 51.3144 15.7395 51.1381C15.5618 50.9618 15.4404 50.7367 15.3906 50.4914C15.3407 50.2461 15.3648 49.9915 15.4597 49.7598C15.5545 49.5281 15.716 49.3298 15.9236 49.1899C16.1312 49.05 16.3756 48.9748 16.626 48.9738C16.9534 48.9978 17.2613 49.1381 17.4943 49.3693C17.7274 49.6005 17.8701 49.9074 17.8968 50.2345Z" fill="white"/>
<path d="M14.5714 47.3865C14.5267 47.6399 14.4079 47.8744 14.23 48.0603C14.052 48.2462 13.823 48.3751 13.5717 48.4308C13.3205 48.4865 13.0584 48.4664 12.8186 48.3731C12.5788 48.2798 12.372 48.1175 12.2244 47.9067C12.0768 47.6959 11.9951 47.4461 11.9896 47.1888C11.984 46.9315 12.0549 46.6784 12.1932 46.4614C12.3315 46.2444 12.531 46.0733 12.7666 45.9698C13.0022 45.8662 13.2632 45.8348 13.5166 45.8796C13.8341 45.9791 14.1098 46.1808 14.3006 46.4534C14.4914 46.726 14.5866 47.0541 14.5714 47.3865Z" fill="white"/>
<path d="M11.7187 43.9608C11.6271 44.2085 11.4642 44.4235 11.2505 44.5786C11.0368 44.7338 10.7819 44.8222 10.518 44.8325C10.2541 44.8429 9.99313 44.7749 9.7679 44.637C9.54266 44.4991 9.3633 44.2976 9.25254 44.0578C9.14178 43.8181 9.1046 43.5509 9.14561 43.29C9.18661 43.0291 9.304 42.7862 9.48296 42.592C9.66193 42.3978 9.89444 42.261 10.1511 42.1989C10.4078 42.1368 10.6771 42.1521 10.9251 42.2429C11.2226 42.4079 11.4599 42.6633 11.6026 42.9722C11.7453 43.281 11.7859 43.6273 11.7187 43.9608Z" fill="white"/>
<path d="M9.53848 40.2389C9.28231 40.7412 8.1622 40.9923 7.6599 40.7412C7.15761 40.49 6.90646 39.3598 7.15761 38.8626C7.40876 38.3653 8.53891 38.1041 9.03618 38.3603C9.53346 38.6164 9.79967 39.7366 9.53848 40.2389Z" fill="white"/>
<path d="M8.03162 36.3008C7.70513 36.7378 6.47953 36.8031 6.02244 36.4766C5.56535 36.1501 5.5201 34.9245 5.85162 34.4674C6.18313 34.0103 7.40371 33.9651 7.86079 34.2916C8.31788 34.6181 8.35811 35.8839 8.03162 36.3008Z" fill="white"/>
<path d="M7.18795 32.2322C6.8062 32.5989 5.51031 32.4482 5.14364 32.0665C4.77696 31.6847 4.93265 30.3938 5.30937 30.0272C5.68609 29.6605 6.98706 29.8162 7.34872 30.1929C7.71037 30.5697 7.56467 31.8656 7.18795 32.2322Z" fill="white"/>
<path d="M6.99187 28.1134C6.57497 28.4048 5.24392 28.018 4.95259 27.6112C4.66126 27.2043 5.05305 25.8632 5.45488 25.602C5.85672 25.3408 7.20284 25.6974 7.49417 26.1043C7.7855 26.5111 7.40878 27.8472 6.99187 28.1134Z" fill="white"/>
<path d="M7.44379 24.0247C7.00177 24.2407 5.68077 23.6078 5.46478 23.1658C5.24879 22.7238 5.88669 21.4027 6.32871 21.1918C6.77073 20.9808 8.08671 21.6137 8.30269 22.0507C8.51868 22.4877 7.88079 23.8288 7.44379 24.0247Z" fill="white"/>
<path d="M8.52408 20.0466C8.07704 20.1822 6.81123 19.2981 6.67561 18.8461C6.53999 18.394 7.42404 17.1333 7.8761 16.9976C8.32817 16.862 9.58896 17.7461 9.7296 18.1981C9.87024 18.6502 8.97614 19.9109 8.52408 20.0466Z" fill="white"/>
<path d="M10.2318 16.2643C9.7898 16.3245 8.62947 15.1793 8.5692 14.7323C8.50892 14.2852 9.64913 13.13 10.0761 13.0697C10.503 13.0094 11.6835 14.1496 11.7437 14.5766C11.804 15.0035 10.6789 16.204 10.2318 16.2643Z" fill="white"/>
<path d="M12.5572 12.7483C12.1302 12.7483 11.1306 11.3519 11.1457 10.9199C11.1607 10.488 12.5421 9.4884 12.974 9.50346C13.406 9.51853 14.4005 10.8998 14.3905 11.3318C14.3804 11.7638 12.969 12.7784 12.5572 12.7483Z" fill="white"/>
<path d="M15.4805 9.58881C15.0737 9.50342 14.2901 7.9011 14.3705 7.49425C14.4509 7.08739 16.0582 6.30883 16.465 6.3892C16.8719 6.46956 17.6505 8.07691 17.5701 8.47874C17.4897 8.88058 15.9025 9.66918 15.4805 9.58881Z" fill="white"/>
<path d="M19.0518 6.86133C18.6801 6.72069 18.1628 4.9275 18.3034 4.56082C18.4441 4.19415 20.2372 3.67176 20.6039 3.8124C20.9706 3.95305 21.493 5.74624 21.3523 6.11291C21.2117 6.47959 19.4185 7.00197 19.0518 6.86133Z" fill="white"/>
<path d="M23.2159 4.66124C22.8945 4.47037 22.6734 2.53654 22.8643 2.21005C23.0552 1.88356 24.984 1.66757 25.3105 1.85844C25.6369 2.04932 25.853 3.97812 25.6621 4.30462C25.4712 4.63111 23.5424 4.84709 23.2159 4.66124Z" fill="white"/>
<path d="M27.7066 3.11423C27.4404 2.87815 27.5811 0.858926 27.8121 0.602756C28.0432 0.346586 30.0674 0.477182 30.3236 0.708237C30.5798 0.939293 30.4491 2.96354 30.2181 3.21971C29.987 3.47588 27.9779 3.34528 27.7066 3.11423Z" fill="white"/>
<path d="M31.8356 2.54663C31.6297 2.28041 32.1972 0.251142 32.4635 0.0351559C32.7297 -0.180831 34.7589 0.396808 34.9749 0.663024C35.1909 0.92924 34.6133 2.95851 34.3471 3.1745C34.0809 3.39048 32.0566 2.81284 31.8356 2.54663Z" fill="white"/>
<path d="M36.4162 2.78767C36.2605 2.50639 37.1697 0.517303 37.4509 0.361592C37.7322 0.205881 39.7163 1.12006 39.872 1.39632C40.0277 1.67258 39.1135 3.66669 38.8373 3.8224C38.561 3.97811 36.577 3.06394 36.4162 2.78767Z" fill="white"/>
<path d="M40.7913 3.6667C40.6858 3.38039 41.9667 1.50684 42.248 1.40638C42.5293 1.30592 44.4028 2.58174 44.5033 2.86805C44.6037 3.15436 43.3279 5.0229 43.0466 5.12336C42.7653 5.22382 40.8918 3.94799 40.7913 3.6667Z" fill="white"/>
<path d="M44.719 5.24398C44.6788 4.96269 46.3816 3.35033 46.6628 3.31015C46.9441 3.26996 48.5565 4.97776 48.5917 5.25905C48.6269 5.54033 46.9241 7.1527 46.6478 7.18786C46.3716 7.22302 44.7541 5.49513 44.719 5.24398Z" fill="white"/>
<path d="M48.7877 7.88596C48.7877 7.62477 50.7968 6.26857 51.068 6.27862C51.3393 6.28867 52.6905 8.2878 52.6804 8.55904C52.6704 8.83028 50.6712 10.1814 50.4 10.1714C50.1288 10.1614 48.7776 8.15218 48.7877 7.88596Z" fill="white"/>
<path d="M52.1733 10.9752C52.2235 10.7391 54.504 9.70435 54.7451 9.75458C54.9862 9.80481 56.0158 12.0852 55.9706 12.3263C55.9254 12.5674 53.635 13.5971 53.3989 13.5469C53.1628 13.4967 52.1482 11.2163 52.1733 10.9752Z" fill="white"/>
<path d="M54.8856 14.4158C54.966 14.2049 57.4725 13.5469 57.6834 13.6272C57.8944 13.7076 58.5474 16.2141 58.467 16.425C58.3866 16.636 55.8802 17.289 55.6743 17.2086C55.4683 17.1282 54.8053 14.6268 54.8856 14.4158Z" fill="white"/>
<path d="M56.9401 18.1277C57.0456 17.9519 59.7027 17.7158 59.8785 17.8213C60.0543 17.9268 60.2954 20.5839 60.1899 20.7597C60.0845 20.9356 57.4273 21.1716 57.2465 21.0661C57.0657 20.9607 56.8346 18.3035 56.9401 18.1277Z" fill="white"/>
<path d="M58.3362 22.0458C58.4567 21.9001 61.1942 22.1111 61.3499 22.2316C61.5056 22.3522 61.2846 25.0897 61.1641 25.2454C61.0435 25.4011 58.306 25.1801 58.1503 25.0595C57.9946 24.939 58.2156 22.1914 58.3362 22.0458Z" fill="white"/>
<path d="M59.0797 26.0891C59.2053 25.9786 61.9528 26.6417 62.0935 26.7672C62.2341 26.8928 61.5359 29.6454 61.4103 29.781C61.2847 29.9166 58.5321 29.2285 58.3965 29.0979C58.2609 28.9673 58.9491 26.1997 59.0797 26.0891Z" fill="white"/>
<path d="M59.1802 30.1729C60.1796 30.4657 61.1471 30.8577 62.0684 31.3432C61.7774 32.3432 61.3853 33.3109 60.8981 34.2314C59.8968 33.9395 58.9275 33.5474 58.0049 33.061C58.2973 32.0608 58.6911 31.093 59.1802 30.1729Z" fill="white"/>
<path d="M58.6427 34.2162C59.5908 34.6864 60.4966 35.2376 61.35 35.8637C60.8828 36.8152 60.3315 37.7229 59.7025 38.5761C58.7543 38.1059 57.8485 37.5547 56.9951 36.9286C57.4645 35.9784 58.0158 35.0708 58.6427 34.2162Z" fill="white"/>
<path d="M57.4775 38.1493C58.3429 38.7888 59.162 39.4887 59.9287 40.2439C59.2885 41.1102 58.5868 41.9294 57.8291 42.6951C56.9604 42.0579 56.141 41.356 55.3779 40.5955C56.018 39.7306 56.7196 38.9131 57.4775 38.1493Z" fill="white"/>
<path d="M55.6896 41.8762C56.4407 42.6719 57.1451 43.5105 57.7992 44.3877C57.0057 45.1414 56.167 45.8459 55.2877 46.4973C54.537 45.7027 53.8342 44.864 53.1831 43.9859C53.975 43.2324 54.812 42.5279 55.6896 41.8762Z" fill="white"/>
<path d="M53.2834 45.327C53.3588 45.327 54.9761 48.1298 54.9711 48.2052C54.9661 48.2805 52.1683 49.8979 52.093 49.8929C52.0176 49.8879 50.4003 47.0901 50.4053 47.0147C50.4103 46.9394 53.2081 45.322 53.2834 45.327Z" fill="white"/>
<path d="M50.2847 48.4412C50.3349 48.4412 51.4701 51.5655 51.455 51.6207C51.4399 51.676 48.3308 52.8062 48.2755 52.7911C48.2203 52.776 47.0901 49.6668 47.1051 49.6166C47.1202 49.5664 50.2294 48.4061 50.2847 48.4412Z" fill="white"/>
<path d="M46.8842 50.8021C46.9143 50.8021 47.2207 54.1976 47.2056 54.2327C47.1906 54.2679 43.8101 54.5693 43.7749 54.5492C43.7398 54.5291 43.4384 51.1587 43.4585 51.1235C43.4786 51.0884 46.849 50.787 46.8842 50.8021Z" fill="white"/>
<path d="M42.685 52.3742C42.685 52.3742 42.5494 55.8501 42.5394 55.8652C42.5293 55.8802 39.0585 55.7295 39.0233 55.7195C38.9882 55.7094 39.159 52.2386 39.174 52.2034C39.1891 52.1683 42.67 52.3642 42.685 52.3742Z" fill="white"/>
<path d="M35.024 52.9912L34.667 56.5244L38.2002 56.8814L38.5572 53.3482L35.024 52.9912Z" fill="white"/>
<path d="M8.44848 73.0537C8.28775 71.0997 6.70048 70.5874 4.85706 70.5874C3.01364 70.5874 1.62232 71.3057 1.62232 72.5966C1.62232 74.1034 3.01365 74.435 5.80138 74.9021C7.8859 75.2537 9.97045 75.7359 9.97045 77.9159C9.97045 80.7187 7.42381 81.4872 5.19362 81.4872C2.29538 81.4872 0.17064 80.4826 0.00488281 77.4186H1.19035C1.39629 79.8196 2.99861 80.3972 5.20871 80.3972C6.92153 80.3972 8.72477 79.9351 8.72477 78.1218C8.72477 76.3085 6.64525 76.1679 4.56073 75.8313C1.83829 75.3994 0.381604 74.6309 0.381604 72.7874C0.381604 70.276 2.68713 69.4723 4.90225 69.4723C7.24294 69.4723 9.59871 70.3061 9.67908 73.0285L8.44848 73.0537Z" fill="white"/>
<path d="M13.2456 70.276H14.431V72.903H16.7867V73.8021H14.431V79.3273C14.431 80.0456 14.657 80.3822 15.6164 80.3822C16.0088 80.392 16.4011 80.36 16.7867 80.2867V81.2913C16.3575 81.3532 15.9245 81.3851 15.4908 81.3867C13.6474 81.3867 13.2456 80.6685 13.2456 79.3223V73.8021H11.4624V72.903H13.2706L13.2456 70.276Z" fill="white"/>
<path d="M28.0379 78.5789C27.5356 80.0507 26.305 81.4922 23.5524 81.4922C20.1418 81.4922 19.0317 79.1063 19.0317 77.072C19.0317 74.7514 20.4583 72.6519 23.5524 72.6519C25.6972 72.6519 28.2439 73.5811 28.2439 77.3634H20.2072C20.2072 79.0913 21.4428 80.5027 23.5574 80.5027C25.5666 80.5027 26.4406 79.8447 26.8575 78.5789H28.0379ZM27.0333 76.4643C26.6968 74.4149 25.1949 73.6464 23.6077 73.6464C22.0204 73.6464 20.4532 74.43 20.177 76.4643H27.0333Z" fill="white"/>
<path d="M30.8359 69.6984H32.0214V81.2511H30.8359V69.6984Z" fill="white"/>
<path d="M34.9849 69.6984H36.1703V71.4614H34.9849V69.6984ZM34.9849 72.903H36.1703V81.2361H34.9849V72.903Z" fill="white"/>
<path d="M46.2463 79.5836H46.2161C45.8645 80.4676 44.6138 81.4722 42.7704 81.4722C40.0027 81.4722 39.1689 80.0306 39.1689 78.0466V72.9031H40.3544V78.2726C40.3544 79.9201 41.3589 80.4978 42.8658 80.4978C45.1915 80.4978 46.2463 79.3124 46.2463 77.4237V72.9031H47.4317V81.2362H46.2463V79.5836Z" fill="white"/>
<path d="M63.4701 75.9469C63.4701 74.44 62.7016 73.6413 60.9587 73.6413C59.1353 73.6413 58.1257 74.6962 58.1257 76.3186V81.236H56.9403V75.5953C56.9403 74.5354 56.1868 73.6413 54.5694 73.6413C52.8717 73.6413 51.621 74.6158 51.621 76.5396V81.236H50.4355V72.903H51.6461V74.44H51.6763C52.1786 73.561 53.0726 72.6468 54.9763 72.6468C56.88 72.6468 57.7188 73.6514 57.9599 74.4752C58.289 73.9046 58.7661 73.4335 59.3408 73.1117C59.9155 72.7899 60.5664 72.6293 61.2248 72.6468C63.5655 72.6468 64.6555 73.8322 64.6555 75.545V81.236H63.4701V75.9469Z" fill="white"/>
</g>
<defs>
<clipPath id="clip0">
<rect width="64.6553" height="81.5224" fill="white"/>
</clipPath>
</defs>
</svg>
