<svg width="175" height="48" viewBox="0 0 175 48" fill="none" xmlns="http://www.w3.org/2000/svg">
<g clip-path="url(#clip0)">
<path d="M74.7419 5H37.6099V42H74.7419V5Z" fill="white"/>
<path d="M93.3077 23.5435L74.7417 5V42.0435L93.3077 23.5435Z" fill="#DB0011"/>
<path d="M56.1759 23.5435L74.7419 5H37.6099L56.1759 23.5435Z" fill="#DB0011"/>
<path d="M19 23.5435L37.6097 42.0435V5L19 23.5435Z" fill="#DB0011"/>
<path d="M56.1759 23.5435L37.6099 42.0435H74.7419L56.1759 23.5435Z" fill="#DB0011"/>
<path d="M109.602 24.632H102.875V31.2484H99.5112V15.752H102.875V22.1072H109.602V15.752H112.966V31.2484H109.602V24.632Z" fill="white"/>
<path d="M121.091 31.5531C117.727 31.5531 114.975 30.2037 114.932 26.5037H118.295C118.339 28.1578 119.3 29.159 121.135 29.159C122.489 29.159 124.062 28.4625 124.062 26.939C124.062 25.7201 123.013 25.3719 121.266 24.8495L120.13 24.5448C117.684 23.8484 115.237 22.8907 115.237 20.1048C115.237 16.666 118.47 15.4907 121.397 15.4907C124.411 15.4907 127.032 16.5354 127.076 19.9743H123.712C123.581 18.5813 122.751 17.7543 121.179 17.7543C119.912 17.7543 118.689 18.4072 118.689 19.8001C118.689 20.9319 119.737 21.2801 121.921 21.9766L123.232 22.3684C125.897 23.1954 127.6 24.1095 127.6 26.7213C127.557 30.2037 124.149 31.5531 121.091 31.5531Z" fill="white"/>
<path d="M129.479 15.7955H134.895C135.9 15.752 136.949 15.7955 137.953 15.9696C139.832 16.4049 141.273 17.6237 141.273 19.7131C141.273 21.7155 140.007 22.7167 138.172 23.1955C140.269 23.5873 141.841 24.632 141.841 26.939C141.841 30.4649 138.347 31.2484 135.638 31.2484H129.522L129.479 15.7955ZM134.895 22.2378C136.381 22.2378 137.91 21.9331 137.91 20.1484C137.91 18.5378 136.512 18.1025 135.114 18.1025H132.755V22.2378H134.895ZM135.201 28.9414C136.774 28.9414 138.303 28.5931 138.303 26.6778C138.303 24.7625 136.992 24.4143 135.376 24.4143H132.711V28.9414H135.201Z" fill="white"/>
<path d="M150.578 31.5531C145.555 31.5531 143.327 28.3755 143.327 23.6308C143.327 18.8861 145.817 15.4473 150.753 15.4473C153.855 15.4473 156.869 16.8402 156.956 20.3226H153.461C153.287 18.7555 152.238 17.972 150.753 17.972C147.695 17.972 146.778 21.2367 146.778 23.7179C146.778 26.199 147.695 29.072 150.622 29.072C152.151 29.072 153.287 28.2449 153.505 26.6779H157C156.65 30.2473 153.811 31.5531 150.578 31.5531Z" fill="white"/>
</g>
<defs>
<clipPath id="clip0">
<rect width="138" height="37" fill="white" transform="translate(19 5)"/>
</clipPath>
</defs>
</svg>
