<svg width="175" height="48" viewBox="0 0 175 48" fill="none" xmlns="http://www.w3.org/2000/svg">
<g clip-path="url(#clip0)">
<path d="M51.6811 25.4802C51.6811 25.7518 51.4094 26.0235 51.1378 26.0235H40.9055C41.1772 28.5589 43.0787 30.9133 45.7953 30.9133C47.6063 30.9133 48.9646 30.1888 50.0512 28.74C50.1417 28.5589 50.3228 28.4684 50.5039 28.4684C50.7756 28.4684 51.0472 28.6495 51.0472 29.0117C51.0472 29.1022 51.0472 29.1928 50.9567 29.2833C49.9606 31.0944 47.878 31.9999 45.8858 31.9999C42.4449 31.9999 40 28.9211 40 25.5707C40 22.2203 42.4449 19.1416 45.8858 19.1416C49.3268 19.1416 51.6811 22.1298 51.6811 25.4802ZM50.5945 24.9369C50.4134 22.4014 48.4213 20.0471 45.7047 20.0471C42.9882 20.0471 41.0866 22.4014 40.815 24.9369H50.5945Z" fill="#757DA0"/>
<path d="M64.177 19.3227C64.4487 19.3227 64.7203 19.5944 64.7203 19.866C64.7203 20.1377 64.5392 20.4093 64.177 20.4093H61.4605V31.1849C61.4605 31.4566 61.2794 31.7282 60.9172 31.7282C60.6455 31.7282 60.3739 31.4566 60.3739 31.1849V20.3188H57.7479C57.4762 20.3188 57.2046 20.1377 57.2046 19.7755C57.2046 19.5038 57.3857 19.2321 57.7479 19.2321H60.3739V15.2479C60.3739 14.9762 60.555 14.7046 60.9172 14.7046C61.1888 14.7046 61.4605 14.8857 61.4605 15.2479V19.2321H64.177V19.3227Z" fill="#757DA0"/>
<path d="M81.0199 24.5748V31.0945C81.0199 31.3661 80.7482 31.6378 80.4766 31.6378C80.2049 31.6378 79.9333 31.4567 79.9333 31.0945V24.5748C79.9333 22.4016 78.6655 20.1378 76.2207 20.1378C73.0514 20.1378 71.6931 22.8543 71.8742 25.752C71.8742 25.8425 71.8742 26.1142 71.8742 26.2047V31.0945C71.8742 31.3661 71.6931 31.6378 71.3309 31.6378C71.0592 31.6378 70.7876 31.4567 70.7876 31.0945V9.54331C70.7876 9.27165 70.9687 9 71.3309 9C71.6026 9 71.8742 9.27165 71.8742 9.54331V21.6772C72.7797 20.1378 74.3191 19.0512 76.2207 19.0512C79.2994 19.0512 81.0199 21.7677 81.0199 24.5748Z" fill="#757DA0"/>
<path d="M99.4018 25.4802C99.4018 25.7518 99.1302 26.0235 98.8585 26.0235H88.6262C88.8979 28.5589 90.7994 30.9132 93.516 30.9132C95.327 30.9132 96.6853 30.1888 97.7719 28.74C97.8624 28.5589 98.0435 28.4684 98.2246 28.4684C98.4963 28.4684 98.7679 28.6495 98.7679 29.0117C98.7679 29.1022 98.7679 29.1928 98.6774 29.2833C97.6813 31.0943 95.5987 31.9999 93.6065 31.9999C90.1656 31.9999 87.7207 28.9211 87.7207 25.5707C87.7207 22.2203 90.1656 19.1416 93.6065 19.1416C96.9569 19.051 99.4018 22.1298 99.4018 25.4802ZM98.3152 24.9369C98.1341 22.4014 96.142 20.0471 93.4254 20.0471C90.7089 20.0471 88.8073 22.4014 88.5357 24.9369H98.3152Z" fill="#757DA0"/>
<path d="M112.078 19.7755C112.078 20.1377 111.897 20.3188 111.625 20.3188C108.637 20.7716 107.279 23.2165 107.279 26.1141V31.0039C107.279 31.2755 107.098 31.5472 106.736 31.5472C106.464 31.5472 106.192 31.3661 106.192 31.0039V19.8661C106.192 19.5944 106.373 19.3228 106.736 19.3228C107.007 19.3228 107.279 19.5039 107.279 19.8661V22.1298C108.094 20.681 109.814 19.3228 111.625 19.3228C111.716 19.3228 112.078 19.5039 112.078 19.7755Z" fill="#757DA0"/>
<path d="M128.921 25.4802C128.921 25.7518 128.649 26.0235 128.378 26.0235H118.145C118.417 28.5589 120.318 30.9132 123.035 30.9132C124.846 30.9132 126.204 30.1888 127.291 28.74C127.381 28.5589 127.563 28.4684 127.744 28.4684C128.015 28.4684 128.287 28.6495 128.287 29.0117C128.287 29.1022 128.287 29.1928 128.196 29.2833C127.2 31.0943 125.118 31.9999 123.126 31.9999C119.685 31.9999 117.24 28.9211 117.24 25.5707C117.24 22.2203 119.685 19.1416 123.126 19.1416C126.385 19.051 128.921 22.1298 128.921 25.4802ZM127.834 24.9369C127.653 22.4014 125.661 20.0471 122.944 20.0471C120.228 20.0471 118.326 22.4014 118.055 24.9369H127.834Z" fill="#757DA0"/>
<path d="M145.492 19.866V23.3975V31.0944C145.492 31.366 145.22 31.6377 144.949 31.6377C144.677 31.6377 144.405 31.4566 144.405 31.0944V28.9212C143.591 30.6416 142.051 31.8188 140.15 31.8188C137.071 31.8188 135.441 29.1928 135.441 26.3857V19.7755C135.441 19.5038 135.622 19.2322 135.984 19.2322C136.256 19.2322 136.528 19.5038 136.528 19.7755V26.4763C136.528 28.6495 137.795 30.9133 140.24 30.9133C143.681 30.9133 144.496 27.6534 144.496 24.1219V19.9566C144.496 19.6849 144.677 19.4133 145.039 19.4133C145.22 19.4133 145.492 19.5944 145.492 19.866Z" fill="#757DA0"/>
<path d="M171.48 24.4842V31.0944C171.48 31.3661 171.208 31.6377 170.936 31.6377C170.665 31.6377 170.393 31.4566 170.393 31.0944V24.4842C170.393 22.311 169.125 20.1377 166.681 20.1377C163.602 20.1377 162.425 23.4881 162.425 26.0236V31.0944C162.425 31.3661 162.153 31.6377 161.881 31.6377C161.61 31.6377 161.338 31.4566 161.338 31.0944V24.4842C161.338 22.311 160.07 20.1377 157.625 20.1377C154.456 20.1377 153.188 22.5826 153.279 25.8425C153.279 25.933 153.279 26.0236 153.279 26.1141V31.0944C153.279 31.3661 153.098 31.6377 152.736 31.6377C152.464 31.6377 152.192 31.4566 152.192 31.0944V19.8661C152.192 19.5944 152.373 19.3228 152.736 19.3228C153.007 19.3228 153.279 19.5039 153.279 19.8661V21.7677C154.185 20.2283 155.724 19.1417 157.625 19.1417C159.708 19.1417 161.338 20.4999 161.972 22.4015C162.787 20.4999 164.507 19.1417 166.59 19.1417C169.759 19.0511 171.48 21.6771 171.48 24.4842Z" fill="#757DA0"/>
<path d="M5 28.8899L18.9715 48.6211V37.1587L5 28.8899Z" fill="#9CA4BF"/>
<path d="M5 26.2098L18.9715 34.5357V19.8799L5 26.2098Z" fill="#757DA0"/>
<path d="M5 26.2098L18.9715 19.8798V3L5 26.2098Z" fill="#9CA4BF"/>
<path d="M32.9997 28.8899L18.9712 48.6211V37.1587L32.9997 28.8899Z" fill="#747C9F"/>
<path d="M32.9997 26.2098L18.9712 34.5357V19.8799L32.9997 26.2098Z" fill="#575E88"/>
<path d="M32.9997 26.2098L18.9712 19.8798V3L32.9997 26.2098Z" fill="#757DA0"/>
</g>
<defs>
<clipPath id="clip0">
<rect width="175" height="48" fill="white"/>
</clipPath>
</defs>
</svg>
