<svg width="175" height="48" viewBox="0 0 175 48" fill="none" xmlns="http://www.w3.org/2000/svg">
<path d="M31.7989 16.6257V32.581H40.7151L39.5084 35.6648H27.9106V16.6257H31.7989ZM106.883 25.2737C109.363 24.3352 112.246 22.1899 112.246 18.6369C112.246 14.2123 108.425 12 102.995 12H95.8884V35.6648H100.112V25.9441H102.592L109.162 35.6648H113.922L106.883 25.2737ZM102.19 22.9274H100.112V14.8156H102.726C106.145 14.8156 108.022 15.8883 108.022 18.838C108.022 21.9888 105.743 22.9274 102.19 22.9274ZM48.1565 16.6257L48.7598 18.1006L41.3855 35.6648H45.0056L46.6146 31.7765H54.9945L56.6705 35.6648H60.961L52.514 16.6257H48.1565ZM47.8213 28.8939L50.704 21.8547L53.6537 28.8939H47.8213ZM20.5363 22.9944C22.6145 22.324 24.6257 20.7151 24.6257 17.7654C24.6257 12 17.6536 12 15.4414 12H8V35.6648H15.1062C19.2626 35.6648 25.9665 34.6592 25.9665 28.8268C25.9665 25.6089 24.0224 23.5307 20.5363 22.9944ZM14.905 14.8827C18.0559 14.8827 20.2011 15.2179 20.2011 18.0335C20.2011 21.8547 16.3129 21.6536 14.4358 21.6536H12.2905V14.8156L14.905 14.8827ZM14.9721 32.581L12.2905 32.514V24.7374H14.771C18.5252 24.7374 21.5419 25.2737 21.5419 28.6257C21.5419 31.9106 19.0615 32.581 14.9721 32.581ZM77.9219 16.6257H81.8772V35.6648H77.9219V16.6257ZM90.123 16.6257L82.0783 25.743L90.19 35.6648H94.6817L86.5029 25.5419L94.0783 16.6257H90.123ZM60.0895 25.5419C60.0895 31.7765 63.9777 36 69.2738 36C72.0224 36 73.8325 35.3296 75.6425 34.0559L74.704 32.1788C73.1621 32.9162 71.8213 33.3184 70.2794 33.3184C66.8604 33.3184 64.38 30.838 64.38 25.676C64.38 21.5196 65.9219 19.0391 68.8716 19.0391C70.4805 19.0391 71.8213 19.5754 72.3576 21.1844L75.7766 20.3128C75.4414 18.9721 73.6314 16.3575 68.6705 16.3575C64.1118 16.3575 60.0895 19.4413 60.0895 25.5419ZM150.525 16.6257H154.414V35.6648H150.525V16.6257ZM162.726 16.6257L154.615 25.743L162.726 35.6648H167.352L159.106 25.5419L166.682 16.6257H162.726ZM132.626 25.5419C132.626 31.7765 136.447 36 141.676 36C144.492 36 146.369 35.3296 148.112 34.0559L147.173 32.1788C145.631 32.9162 144.291 33.3184 142.682 33.3184C139.263 33.3184 136.849 30.838 136.849 25.676C136.849 21.5196 138.391 19.0391 141.408 19.0391C142.95 19.0391 144.291 19.5754 144.894 21.1844L148.246 20.3128C147.911 18.9721 146.168 16.3575 141.207 16.3575C136.581 16.3575 132.626 19.4413 132.626 25.5419Z" fill="white"/>
<path d="M122.101 16.3574C116.939 16.3574 113.185 19.4412 113.185 26.1451C113.185 32.8491 116.738 35.9999 122.101 35.9999C127.464 35.9999 131.017 32.8491 131.017 26.1451C131.017 19.4412 127.263 16.3574 122.101 16.3574ZM122.101 33.3183C118.145 33.3183 117.207 30.1004 117.207 26.1451C117.207 22.2569 118.145 18.9049 122.101 18.9049C126.056 18.9049 126.995 22.2569 126.995 26.1451C126.995 30.1004 126.056 33.3183 122.101 33.3183Z" fill="white"/>
</svg>
