<svg width="24" height="20" viewBox="0 0 24 20" fill="none" xmlns="http://www.w3.org/2000/svg">
<path d="M16.4369 0.0644531H17.3409C17.3597 0.0770395 17.3803 0.0864553 17.4019 0.0923467C18.5233 0.231321 19.4857 0.711112 20.2898 1.54354C20.335 1.59081 20.4534 1.60074 20.5289 1.58419C21.449 1.38491 22.3343 1.03827 23.1533 0.556538C23.2071 0.524867 23.2663 0.50265 23.3585 0.461998C22.9924 1.60783 22.3279 2.45681 21.4148 3.11812C22.3008 3.03539 23.1325 2.76311 23.9999 2.40055C23.4326 3.27174 22.8174 4.01294 22.0599 4.60524C21.7543 4.84395 21.5627 5.08125 21.6589 5.49392C21.6775 5.5757 21.6625 5.66598 21.6589 5.75249C21.5987 8.47053 20.8733 10.9779 19.483 13.2746C16.4888 18.2295 11.392 20.2834 6.17491 19.5261C4.63968 19.2985 3.15653 18.7822 1.7972 18.0021C1.526 17.8485 1.26428 17.6774 0.998047 17.5143C4.34879 17.8419 6.96728 16.2824 7.83965 15.4315C5.7229 15.2269 4.28958 14.0886 3.51122 12.0456C3.88232 12.0456 4.21861 12.0602 4.5531 12.0413C4.8799 12.0229 5.2049 11.9699 5.53034 11.9321C2.9679 11.207 1.77505 8.82316 1.86229 7.01602C2.18999 7.14554 2.51047 7.29964 2.84586 7.39796C3.18125 7.49628 3.53517 7.53457 3.88096 7.59933L3.89045 7.53552C1.48034 5.69198 1.53684 2.6109 2.53804 1.00371C5.09416 4.14104 8.32376 5.87775 12.2621 6.15192C12.2345 5.79928 12.2002 5.49013 12.1875 5.17531C12.1007 3.08455 13.3587 1.11007 15.2454 0.396291C15.6309 0.24739 16.0396 0.172229 16.4369 0.0644531Z" fill="white"/>
</svg>
