<svg width="21" height="22" viewBox="0 0 21 22" fill="none" xmlns="http://www.w3.org/2000/svg">
<path d="M1.27111 0H19.7287C19.739 0.008484 19.7485 0.0216327 19.7604 0.0250263C20.6177 0.279546 20.9999 0.802585 20.9999 1.72183C20.9999 7.80372 20.9999 13.8855 20.9999 19.9671C21.0035 20.0938 20.9971 20.2207 20.9805 20.3463C20.8466 21.1629 20.2367 21.6779 19.4045 21.6779C13.4713 21.6779 7.53818 21.6779 1.60523 21.6779C1.55755 21.6779 1.50947 21.6779 1.4618 21.6779C1.15237 21.6664 0.853809 21.5572 0.60638 21.3651C0.358952 21.1729 0.174563 20.9071 0.0780842 20.6034C0.0530154 20.5245 0.0263017 20.446 0 20.3671V1.31247C0.0973985 0.973112 0.208359 0.633752 0.493157 0.421652C0.729461 0.248154 1.01015 0.138289 1.27111 0ZM11.4219 8.45897H8.87395V16.3665H11.4219C11.4219 15.6789 11.4219 15.009 11.4219 14.3396C11.4248 13.451 11.4182 12.5618 11.4421 11.674C11.456 11.1649 11.7269 10.7798 12.1432 10.5244C12.8895 10.0663 13.7718 10.423 14.0024 11.2837C14.075 11.577 14.1105 11.8787 14.108 12.1813C14.1191 13.5002 14.1129 14.8194 14.1129 16.1387V16.3741H16.6572C16.6613 16.3029 16.6687 16.2413 16.6687 16.1798C16.6687 14.7337 16.6716 13.2876 16.6662 11.842C16.664 11.5529 16.6455 11.2643 16.6108 10.9774C16.4295 9.43166 15.5344 8.45685 14.0911 8.28123C13.0465 8.15397 12.1596 8.47763 11.5341 9.39984C11.5115 9.43293 11.4848 9.46305 11.4244 9.53983L11.4219 8.45897ZM7.43845 16.3775C7.44338 16.3211 7.44996 16.2799 7.44996 16.2392C7.44996 13.6994 7.45119 11.1596 7.45366 8.61974C7.45366 8.45982 7.39037 8.43606 7.25886 8.43691C6.53433 8.44157 5.8098 8.43691 5.08527 8.43988C5.02568 8.43988 4.96609 8.44836 4.90157 8.45345V16.3775H7.43845ZM6.19775 4.61529C5.59528 4.61275 5.10623 4.89272 4.87691 5.37122C4.79525 5.53801 4.74783 5.72041 4.73763 5.90699C4.72743 6.09358 4.75466 6.28033 4.81762 6.45554C4.88059 6.63076 4.97792 6.79067 5.10353 6.92526C5.22914 7.05985 5.38032 7.16622 5.5476 7.2377C6.34981 7.58385 7.29502 7.20461 7.54448 6.43596C7.84983 5.49975 7.19927 4.61911 6.19857 4.61529H6.19775Z" fill="white"/>
</svg>
